<svg xmlns="http://www.w3.org/2000/svg" width="512" height="172.67"><path fill="#FFF" d="M489.42 81.82h.12l3.97 18.03h-8l4-18.03zm-15.93 33.15h8.6l1.9-8.48h10.9l1.9 8.4h8.6l-10.9-40.1h-10.2l-10.9 40.1zm-27.6-40.12l9.4 40.12H466l9.44-40.12h-8.57l-6.1 29.67h-.17l-5.8-29.67h-8.85zm-3.5 0h-8.3v40.12h8.3V74.85zm-38.5 0v6.63h9v33.5h8.2v-33.5h8.9v-6.63h-26zm-13.6 6.97h.1l3.9 18.03h-8.1l3.96-18.03zm-16 33.15h8.7l1.9-8.48h10.9l1.9 8.4h8.6l-10.8-40.1h-10.2l-10.9 40.1zm-.8 0v-6.63H359v-33.5h-8.28v40.13h22.95zm-54.4-12.53v1.63c0 7.4 3.6 11.7 13 11.7 8.94 0 14.24-3.83 14.24-12.32 0-4.9-1.6-7.98-7.8-10.62l-6.4-2.7c-3.5-1.46-4.25-2.97-4.25-5.45 0-2.36 1-4.66 4.7-4.66 3.14 0 4.5 2.2 4.5 5.95h7.9v-1.12c0-7.7-5.36-10.8-12.7-10.8-7.84 0-12.7 4-12.7 11.8 0 6.7 3.4 9.68 10.73 12.15 5.45 1.85 7.34 3.2 7.34 6.85 0 3.38-2.4 4.95-4.94 4.95-4.38 0-5.47-2.42-5.47-6.18v-1.18H319zm-4.6-27.6h-8.3v40.13h8.3V74.85zM300 86.76c0-8.15-3.67-12.7-12.76-12.7-10.6 0-13.8 6.9-13.8 20.4 0 13.88 2 21.3 12.2 21.3 3.83 0 6.65-1.36 8.6-4.5h.12v3.7h6.1v-21.6h-13.4v5.94h5.46v4.1c0 4.32-3.17 6.4-5.1 6.4-4.8 0-5.7-6.07-5.7-15.73 0-10 1.6-14.05 5.63-14.05 3.3 0 4.7 3.76 4.7 6.74H300zm-53.82-11.9v40.1H270v-6.62h-15.25v-10.8h13.8v-6.62h-13.8v-9.44h14.67v-6.63h-22.95zm-3.7 40.1v-6.62H228v-33.5h-8.3v40.13h22.96zm243.66 32.2v.7c0 4.16 1.7 9.06 9.13 9.06 6.03 0 9.9-2.62 9.9-8.94 0-4.08-1.85-6.37-6.1-7.87L496 139c-3.2-1.2-4.5-2.5-4.5-5 0-3.14 2-4.26 4.05-4.26 2.98 0 4.2 1.58 4.2 4.28v.65h4.8V134c0-3.08-.8-7.8-8.5-7.8-5.63 0-9.33 3-9.33 8.4 0 4.23 1.9 6.5 6.25 8.14l3.3 1.13c2.7.8 4.3 2.18 4.3 5.3 0 2.2-1.5 4.33-4.58 4.33-3.4 0-5-1.85-5-5.47v-.76h-4.8zm-8.44 9.2h4.8v-29.7h-4.8v29.7zm-24.46 0h5l1.97-7.3h8.8l1.88 7.3h5l-7.9-29.7h-6.14l-8.5 29.7zm7.85-11.08l3.6-14.65h.1l3.42 14.65h-7.1zm-22.76-5.4v-9.67h4.1c3.13 0 4.52 1.7 4.52 4.9 0 3-1.73 4.9-4.8 4.9h-3.83zm-4.8 16.46h4.8v-12.9h3.9c3.3 0 4.3 1.42 4.4 4.66.1 2.16.02 3.83.2 5.62.12 1.16.33 2.07.8 2.62h5.4c-.6-.42-1.35-1.13-1.4-2.58-.1-1.8-.17-4.12-.2-6.03-.17-4.16-1.7-5.78-4.7-6.08v-.08c3.3-.5 5-3.45 5-7.28 0-5.6-3.4-7.7-7.6-7.7h-10.5v29.7zm-20.2 0H430v-4h-11.7v-9.48h10.76v-4H418.3v-8.23h11.44v-4h-16.2v29.7zm-7.75 0h3.6V140.7h-9.58v3.57h5c0 6.5-1.36 9.12-5 9.08-3.25 0-4.85-2.42-4.85-12 0-9.48 1.8-11.72 5.2-11.72 3.3 0 4.2 2.62 4.2 4.83v.7h4.6v-.54c0-2.7-1.3-8.56-8.8-8.56-6.97 0-10 4.82-10 15.43 0 10.6 2.38 15.4 8.93 15.4 3.55 0 5.28-1.3 6.58-4.1h.1v3.4zm-47.8-9.2v.72c0 4.15 1.65 9.06 9.1 9.06 6.04 0 9.9-2.62 9.9-8.94 0-4.08-1.84-6.37-6.1-7.87l-3.2-1.1c-3.2-1.2-4.5-2.5-4.5-5 0-3.1 2-4.2 4.04-4.2 3 0 4.2 1.6 4.2 4.3v.7h4.8v-.7c0-3.04-.8-7.8-8.5-7.8-5.67 0-9.36 3-9.36 8.4 0 4.27 1.9 6.5 6.24 8.18l3.27 1.13c2.67.8 4.27 2.2 4.27 5.3 0 2.2-1.5 4.34-4.6 4.34-3.3 0-4.9-1.84-4.9-5.46v-.75H358zm-23.6 9.2h5l1.9-7.28h8.8l1.86 7.28h5l-7.9-29.7h-6.2l-8.55 29.7zm7.8-11.06l3.6-14.65h.05l3.5 14.65h-7.1zm-29 11.06h4.5v-22.72h.1l8.72 22.72h5.82v-29.7h-4.55v22.13h-.1l-8.7-22.13H313v29.7zm-9.6 0h4.8v-29.7h-4.8v29.7zm-30.13 0h4.6v-24.7h.1l6.04 24.7h4l6.05-24.7h.1v24.7h4.53v-29.7h-7.3l-5.3 22H286l-5.3-22h-7.5v29.7zm-30.3 0h16.56v-4H248v-9.48h10.76v-4H248v-8.23h11.44v-4h-16.22v29.7zm-23.36 0h8.5c9.4 0 10.6-6.07 10.6-14.85 0-8.8-1.2-14.9-10.6-14.9h-8.52v29.7zm4.8-26.13h3.93c4.13 0 5.56 3 5.56 11.3 0 8.7-1.65 11.3-5.6 11.3h-3.95v-22.6zm265.3-99.4h.13l3.82 18.1H486l3.84-18zM474.5 64h8.36l1.84-8.5h10.58l1.84 8.5h8.34l-10.52-40.12h-9.9l-10.54 40.1zm-3.17-40.12h-8V64h8V23.85zm-35.2 0V64h22.78v-6.63h-14.7v-10.8h13.4v-6.62h-13.4V30.5h14.2v-6.62h-22.2zM432.57 64v-6.63h-14.2v-33.5h-8V64h22.2zM387.4 45.93h3.46c3.52 0 6.14 1.35 6.14 6.02 0 4.66-2.62 6.07-6.47 6.07h-3.12v-12.1zm0-16.13h2.9c3.97 0 5.8 1.4 5.8 5.23 0 3.77-2 5.3-6.4 5.3h-2.3V29.8zm-8 34.17h13.52c9.36 0 12.42-5.45 12.42-11.74 0-5.34-2.84-8.7-7.23-9.33v-.1c4-1.14 6.1-4.45 6.1-8.78 0-7.7-4.7-10.17-11.3-10.17h-13.5v40.12zm-41.05 0h7.35V31.94h.1l7.08 32.03h6.24l7.08-32.03h.1v32.03h7.35V23.85H361.8l-5.74 28.32h-.1l-5.7-28.32h-11.9v40.12zM311.4 23.85v40.12h22.77v-6.63h-14.75v-10.8h13.36v-6.62h-13.36v-9.45h14.2v-6.62H311.4zm-30.46 27.6v1.62c0 7.42 3.56 11.7 12.64 11.7 8.7 0 13.8-3.83 13.8-12.3 0-4.9-1.56-8-7.56-10.64l-6.2-2.7c-3.4-1.46-4.1-2.98-4.1-5.45 0-2.36.94-4.67 4.56-4.67 3.06 0 4.35 2.2 4.35 6h7.67v-1.1c0-7.7-5.17-10.8-12.3-10.8-7.57 0-12.3 4-12.3 11.8 0 6.7 3.28 9.7 10.4 12.2 5.3 1.9 7.14 3.2 7.14 6.9 0 3.4-2.34 5-4.8 5-4.23 0-5.3-2.4-5.3-6.1v-1.2h-8zm-28.9 0v1.62c0 7.42 3.56 11.7 12.64 11.7 8.68 0 13.8-3.83 13.8-12.3 0-4.9-1.55-8-7.56-10.64l-6.2-2.7c-3.4-1.46-4.1-2.98-4.1-5.45 0-2.36.93-4.67 4.56-4.67 3.06 0 4.35 2.2 4.35 6h7.68v-1.1c0-7.7-5.1-10.8-12.3-10.8-7.5 0-12.3 4-12.3 11.8 0 6.7 3.3 9.7 10.4 12.2 5.3 1.9 7.2 3.2 7.2 6.9 0 3.4-2.3 5-4.8 5-4.2 0-5.3-2.4-5.3-6.1v-1.2h-8zM235.27 30.8h.1l3.85 18.06h-7.8l3.85-18.05zm-15.42 33.17h8.35l1.84-8.5h10.58l1.84 8.5h8.35l-10.5-40.12h-9.9l-10.5 40.12zM54.52 128.72l46.83-89.9L84.6 6.9C42.93 16.9 8.88 54.84 8.88 99.72c0 25.38 9.92 48.44 26.1 65.5l19.55-36.5zM103.68 4.64c-4.97 0-9.86.4-14.62 1.13l-.2.04 60.88 116.9h46.23c1.58-6.8 2.52-15.5 2.52-22.9 0-52.5-42.5-95.1-94.9-95.1m91.3 122.2l-.7 2.1c-4.6 14.4-12.7 28.7-23.1 37.6h-132L60 126.9l134.92-.06z"/><path fill="#FFF" d="M489.42 81.82h.12l3.97 18.03h-8l4-18.03zm-15.93 33.15h8.6l1.9-8.48h10.9l1.9 8.4h8.6l-10.9-40.1h-10.2l-10.9 40.1zm-27.6-40.12l9.4 40.12H466l9.44-40.12h-8.57l-6.1 29.67h-.17l-5.8-29.67h-8.85zm-3.5 0h-8.3v40.12h8.3V74.85zm-38.5 0v6.63h9v33.5h8.2v-33.5h8.9v-6.63h-26zm-13.6 6.97h.1l3.9 18.03h-8.1l3.96-18.03zm-16 33.15h8.7l1.9-8.48h10.9l1.9 8.4h8.6l-10.8-40.1h-10.2l-10.9 40.1zm-.8 0v-6.63H359v-33.5h-8.28v40.13h22.95zm-54.4-12.53v1.63c0 7.4 3.6 11.7 13 11.7 8.94 0 14.24-3.83 14.24-12.32 0-4.9-1.6-7.98-7.8-10.62l-6.4-2.7c-3.5-1.46-4.25-2.97-4.25-5.45 0-2.36 1-4.66 4.7-4.66 3.14 0 4.5 2.2 4.5 5.95h7.9v-1.12c0-7.7-5.36-10.8-12.7-10.8-7.84 0-12.7 4-12.7 11.8 0 6.7 3.4 9.68 10.73 12.15 5.45 1.85 7.34 3.2 7.34 6.85 0 3.38-2.4 4.95-4.94 4.95-4.38 0-5.47-2.42-5.47-6.18v-1.18H319zm-4.6-27.6h-8.3v40.13h8.3V74.85zM300 86.76c0-8.15-3.67-12.7-12.76-12.7-10.6 0-13.8 6.9-13.8 20.4 0 13.88 2 21.3 12.2 21.3 3.83 0 6.65-1.36 8.6-4.5h.12v3.7h6.1v-21.6h-13.4v5.94h5.46v4.1c0 4.32-3.17 6.4-5.1 6.4-4.8 0-5.7-6.07-5.7-15.73 0-10 1.6-14.05 5.63-14.05 3.3 0 4.7 3.76 4.7 6.74H300zm-53.82-11.9v40.1H270v-6.62h-15.25v-10.8h13.8v-6.62h-13.8v-9.44h14.67v-6.63h-22.95zm-3.7 40.1v-6.62H228v-33.5h-8.3v40.13h22.96zm243.66 32.2v.7c0 4.16 1.7 9.06 9.13 9.06 6.03 0 9.9-2.62 9.9-8.94 0-4.08-1.85-6.37-6.1-7.87L496 139c-3.2-1.2-4.5-2.5-4.5-5 0-3.14 2-4.26 4.05-4.26 2.98 0 4.2 1.58 4.2 4.28v.65h4.8V134c0-3.08-.8-7.8-8.5-7.8-5.63 0-9.33 3-9.33 8.4 0 4.23 1.9 6.5 6.25 8.14l3.3 1.13c2.7.8 4.3 2.18 4.3 5.3 0 2.2-1.5 4.33-4.58 4.33-3.4 0-5-1.85-5-5.47v-.76h-4.8zm-8.44 9.2h4.8v-29.7h-4.8v29.7zm-24.46 0h5l1.97-7.3h8.8l1.88 7.3h5l-7.9-29.7h-6.14l-8.5 29.7zm7.85-11.08l3.6-14.65h.1l3.42 14.65h-7.1zm-22.76-5.4v-9.67h4.1c3.13 0 4.52 1.7 4.52 4.9 0 3-1.73 4.9-4.8 4.9h-3.83zm-4.8 16.46h4.8v-12.9h3.9c3.3 0 4.3 1.42 4.4 4.66.1 2.16.02 3.83.2 5.62.12 1.16.33 2.07.8 2.62h5.4c-.6-.42-1.35-1.13-1.4-2.58-.1-1.8-.17-4.12-.2-6.03-.17-4.16-1.7-5.78-4.7-6.08v-.08c3.3-.5 5-3.45 5-7.28 0-5.6-3.4-7.7-7.6-7.7h-10.5v29.7zm-20.2 0H430v-4h-11.7v-9.48h10.76v-4H418.3v-8.23h11.44v-4h-16.2v29.7zm-7.75 0h3.6V140.7h-9.58v3.57h5c0 6.5-1.36 9.12-5 9.08-3.25 0-4.85-2.42-4.85-12 0-9.48 1.8-11.72 5.2-11.72 3.3 0 4.2 2.62 4.2 4.83v.7h4.6v-.54c0-2.7-1.3-8.56-8.8-8.56-6.97 0-10 4.82-10 15.43 0 10.6 2.38 15.4 8.93 15.4 3.55 0 5.28-1.3 6.58-4.1h.1v3.4zm-47.8-9.2v.72c0 4.15 1.65 9.06 9.1 9.06 6.04 0 9.9-2.62 9.9-8.94 0-4.08-1.84-6.37-6.1-7.87l-3.2-1.1c-3.2-1.2-4.5-2.5-4.5-5 0-3.1 2-4.2 4.04-4.2 3 0 4.2 1.6 4.2 4.3v.7h4.8v-.7c0-3.04-.8-7.8-8.5-7.8-5.67 0-9.36 3-9.36 8.4 0 4.27 1.9 6.5 6.24 8.18l3.27 1.13c2.67.8 4.27 2.2 4.27 5.3 0 2.2-1.5 4.34-4.6 4.34-3.3 0-4.9-1.84-4.9-5.46v-.75H358zm-23.6 9.2h5l1.9-7.28h8.8l1.86 7.28h5l-7.9-29.7h-6.2l-8.55 29.7zm7.8-11.06l3.6-14.65h.05l3.5 14.65h-7.1zm-29 11.06h4.5v-22.72h.1l8.72 22.72h5.82v-29.7h-4.55v22.13h-.1l-8.7-22.13H313v29.7zm-9.6 0h4.8v-29.7h-4.8v29.7zm-30.13 0h4.6v-24.7h.1l6.04 24.7h4l6.05-24.7h.1v24.7h4.53v-29.7h-7.3l-5.3 22H286l-5.3-22h-7.5v29.7zm-30.3 0h16.56v-4H248v-9.48h10.76v-4H248v-8.23h11.44v-4h-16.22v29.7zm-23.36 0h8.5c9.4 0 10.6-6.07 10.6-14.85 0-8.8-1.2-14.9-10.6-14.9h-8.52v29.7zm4.8-26.13h3.93c4.13 0 5.56 3 5.56 11.3 0 8.7-1.65 11.3-5.6 11.3h-3.95v-22.6zm265.3-99.4h.13l3.82 18.1H486l3.84-18zM474.5 64h8.36l1.84-8.5h10.58l1.84 8.5h8.34l-10.52-40.12h-9.9l-10.54 40.1zm-3.17-40.12h-8V64h8V23.85zm-35.2 0V64h22.78v-6.63h-14.7v-10.8h13.4v-6.62h-13.4V30.5h14.2v-6.62h-22.2zM432.57 64v-6.63h-14.2v-33.5h-8V64h22.2zM387.4 45.93h3.46c3.52 0 6.14 1.35 6.14 6.02 0 4.66-2.62 6.07-6.47 6.07h-3.12v-12.1zm0-16.13h2.9c3.97 0 5.8 1.4 5.8 5.23 0 3.77-2 5.3-6.4 5.3h-2.3V29.8zm-8 34.17h13.52c9.36 0 12.42-5.45 12.42-11.74 0-5.34-2.84-8.7-7.23-9.33v-.1c4-1.14 6.1-4.45 6.1-8.78 0-7.7-4.7-10.17-11.3-10.17h-13.5v40.12zm-41.05 0h7.35V31.94h.1l7.08 32.03h6.24l7.08-32.03h.1v32.03h7.35V23.85H361.8l-5.74 28.32h-.1l-5.7-28.32h-11.9v40.12zM311.4 23.85v40.12h22.77v-6.63h-14.75v-10.8h13.36v-6.62h-13.36v-9.45h14.2v-6.62H311.4zm-30.46 27.6v1.62c0 7.42 3.56 11.7 12.64 11.7 8.7 0 13.8-3.83 13.8-12.3 0-4.9-1.56-8-7.56-10.64l-6.2-2.7c-3.4-1.46-4.1-2.98-4.1-5.45 0-2.36.94-4.67 4.56-4.67 3.06 0 4.35 2.2 4.35 6h7.67v-1.1c0-7.7-5.17-10.8-12.3-10.8-7.57 0-12.3 4-12.3 11.8 0 6.7 3.28 9.7 10.4 12.2 5.3 1.9 7.14 3.2 7.14 6.9 0 3.4-2.34 5-4.8 5-4.23 0-5.3-2.4-5.3-6.1v-1.2h-8zm-28.9 0v1.62c0 7.42 3.56 11.7 12.64 11.7 8.68 0 13.8-3.83 13.8-12.3 0-4.9-1.55-8-7.56-10.64l-6.2-2.7c-3.4-1.46-4.1-2.98-4.1-5.45 0-2.36.93-4.67 4.56-4.67 3.06 0 4.35 2.2 4.35 6h7.68v-1.1c0-7.7-5.1-10.8-12.3-10.8-7.5 0-12.3 4-12.3 11.8 0 6.7 3.3 9.7 10.4 12.2 5.3 1.9 7.2 3.2 7.2 6.9 0 3.4-2.3 5-4.8 5-4.2 0-5.3-2.4-5.3-6.1v-1.2h-8zM235.27 30.8h.1l3.85 18.06h-7.8l3.85-18.05zm-15.42 33.17h8.35l1.84-8.5h10.58l1.84 8.5h8.35l-10.5-40.12h-9.9l-10.5 40.12zM54.52 128.72l46.83-89.9L84.6 6.9C42.93 16.9 8.88 54.84 8.88 99.72c0 25.38 9.92 48.44 26.1 65.5l19.55-36.5zM103.68 4.64c-4.97 0-9.86.4-14.62 1.13l-.2.04 60.88 116.9h46.23c1.58-6.8 2.52-15.5 2.52-22.9 0-52.5-42.5-95.1-94.9-95.1m91.3 122.2l-.7 2.1c-4.6 14.4-12.7 28.7-23.1 37.6h-132L60 126.9l134.92-.06z"/></svg>