<svg id="Camada_1" xmlns="http://www.w3.org/2000/svg" width="512" height="172"><style>.st0{fill:#c52026}</style><path class="st0" d="M402.1 5.8l-.3-.6-.6-1.1z"/><path d="M491.8 82.7h.1l4 18.3h-8.2l4.1-18.3zm-16.2 33.7h8.8l1.9-8.6h11.1l1.9 8.6h8.8l-11-40.7h-10.4l-11.1 40.7zm-27.9-40.7l9.6 40.7h10.8l9.6-40.7H469l-6.2 30.1h-.2l-5.9-30.1h-9zm-3.5 0h-8.4v40.7h8.4V75.7zm-39.1 0v6.7h9.1v34h8.4v-34h9.1v-6.7h-26.6zm-13.7 7h.1l4 18.3h-8.2l4.1-18.3zm-16.2 33.7h8.8l1.9-8.6H397l1.9 8.6h8.8l-11-40.7h-10.4l-11.1 40.7zm-.8 0v-6.7h-14.9v-34h-8.4v40.7h23.3zm-55.3-12.7v1.6c0 7.5 3.7 11.9 13.3 11.9 9.1 0 14.5-3.9 14.5-12.5 0-5-1.6-8.1-7.9-10.8l-6.5-2.7c-3.6-1.5-4.3-3-4.3-5.5 0-2.4 1-4.7 4.8-4.7 3.2 0 4.6 2.2 4.6 6h8.1v-1.1c0-7.8-5.4-11-12.9-11-7.9 0-12.9 4.1-12.9 12 0 6.8 3.4 9.8 10.9 12.3 5.5 1.9 7.5 3.2 7.5 7 0 3.4-2.5 5-5 5-4.4 0-5.5-2.5-5.5-6.3v-1.2h-8.7zm-4.6-28h-8.4v40.7h8.4V75.7zm-14.7 12.1c0-8.3-3.7-12.9-13-12.9-10.7 0-14 7-14 20.7 0 14.1 2 21.6 12.4 21.6 3.9 0 6.8-1.4 8.8-4.6h.1v3.8h6.2v-22h-13.6v6h5.5v4.2c0 4.4-3.2 6.5-5.2 6.5-4.8 0-5.8-6.2-5.8-16 0-10.2 1.6-14.3 5.7-14.3 3.4 0 4.8 3.8 4.8 6.8h8.1zm-54.6-12.1v40.7h23.9v-6.7h-15.5v-11h14V92h-14v-9.6h14.9v-6.7h-23.3zm-3.7 40.7v-6.7h-14.9v-34h-8.4v40.7h23.3z"/><path d="M488.8 149.1v.7c0 4.2 1.7 9.2 9.3 9.2 6.1 0 10.1-2.7 10.1-9.1 0-4.1-1.9-6.5-6.2-8l-3.3-1.2c-3.2-1.2-4.6-2.5-4.6-5.1 0-3.2 2-4.3 4.1-4.3 3 0 4.3 1.6 4.3 4.3v.6h4.9v-.7c0-3.1-.8-7.9-8.6-7.9-5.7 0-9.5 3-9.5 8.5 0 4.3 1.9 6.6 6.4 8.3l3.3 1.1c2.7.8 4.4 2.2 4.4 5.4 0 2.2-1.5 4.4-4.6 4.4-3.4 0-5-1.9-5-5.5v-.8h-5zm-8.6 9.3h4.9v-30.1h-4.9v30.1zm-24.8 0h5.1l2-7.4h8.9l1.9 7.4h5.1l-8-30.1H464l-8.6 30.1zm7.9-11.2l3.6-14.9h.1l3.5 14.9h-7.2zm-23.1-5.5v-9.8h4.1c3.2 0 4.6 1.7 4.6 4.9 0 3-1.8 4.9-4.9 4.9h-3.8zm-4.8 16.7h4.9v-13.1h4c3.3 0 4.4 1.4 4.4 4.7.1 2.2 0 3.9.2 5.7.1 1.2.3 2.1.8 2.7h5.5c-.6-.4-1.4-1.1-1.5-2.6-.1-1.8-.1-4.2-.2-6.1-.2-4.2-1.7-5.9-4.8-6.2v-.1c3.3-.5 5.1-3.5 5.1-7.4 0-5.7-3.5-7.8-7.7-7.8h-10.8v30.2zm-20.6 0h16.8v-4h-11.9v-9.6h10.9v-4h-10.9v-8.4h11.6v-4h-16.5v30zm-7.8 0h3.7v-15.9H401v3.6h5.1c0 6.6-1.4 9.3-5.1 9.2-3.3 0-4.9-2.4-4.9-12.2 0-9.6 1.8-11.9 5.3-11.9 3.3 0 4.3 2.7 4.3 4.9v.7h4.6v-.5c0-2.7-1.3-8.7-8.9-8.7-7 0-10.1 4.9-10.1 15.7 0 10.8 2.4 15.7 9 15.7 3.6 0 5.3-1.3 6.7-4.1h.1v3.5zm-48.6-9.3v.7c0 4.2 1.7 9.2 9.3 9.2 6.1 0 10.1-2.7 10.1-9.1 0-4.1-1.9-6.5-6.2-8l-3.3-1.2c-3.2-1.2-4.6-2.5-4.6-5.1 0-3.2 2-4.3 4.1-4.3 3 0 4.3 1.6 4.3 4.3v.6h4.9v-.7c0-3.1-.8-7.9-8.6-7.9-5.7 0-9.5 3-9.5 8.5 0 4.3 1.9 6.6 6.3 8.3l3.3 1.1c2.7.8 4.4 2.2 4.4 5.4 0 2.2-1.5 4.4-4.6 4.4-3.4 0-5-1.9-5-5.5v-.8h-4.9zm-23.9 9.3h5.1l2-7.4h8.9l1.9 7.4h5.1l-8-30.1h-6.2l-8.8 30.1zm7.9-11.2l3.6-14.9h.1l3.5 14.9h-7.2zm-29.5 11.2h4.6v-23.1h.1l8.8 23.1h5.9v-30.1h-4.6v22.5h-.1l-8.8-22.5h-5.9v30.1zm-9.7 0h4.9v-30.1h-4.9v30.1zm-30.5 0h4.6v-25.1h.1l6.1 25.1h4.1l6.1-25.1h.1v25.1h4.6v-30.1H291l-5.3 22.3h-.1l-5.4-22.3h-7.6v30.1zm-30.8 0h16.8v-4h-11.9v-9.6h10.9v-4h-10.9v-8.4h11.6v-4h-16.5v30zm-23.7 0h8.7c9.6 0 10.8-6.2 10.8-15.1 0-8.9-1.2-15.1-10.8-15.1h-8.7v30.2zm4.8-26.5h4c4.2 0 5.7 3 5.7 11.4 0 8.8-1.7 11.5-5.7 11.5h-4v-22.9z" fill="#808285"/><path d="M492.3 31h.1l3.9 18.3h-7.9l3.9-18.3zm-15.6 33.6h8.5L487 56h10.7l1.9 8.6h8.5l-10.7-40.7h-10.1l-10.6 40.7zm-3.3-40.7h-8.1v40.7h8.1V23.9zm-35.7 0v40.7h23.1v-6.7h-15v-11h13.6v-6.7h-13.6v-9.6h14.4v-6.7h-22.5zm-3.6 40.7v-6.7h-14.4v-34h-8.1v40.7h22.5zm-45.8-18.3h3.5c3.6 0 6.2 1.4 6.2 6.1 0 4.7-2.7 6.2-6.6 6.2h-3.2V46.3zm0-16.4h2.9c4 0 5.9 1.4 5.9 5.3 0 3.8-2 5.4-6.5 5.4h-2.3V29.9zm-8.2 34.7h13.7c9.5 0 12.6-5.5 12.6-11.9 0-5.4-2.9-8.8-7.3-9.5v-.1c4-1.1 6.1-4.5 6.1-8.9 0-7.8-4.8-10.3-11.5-10.3h-13.6v40.7zm-41.6 0h7.5V32.1h.1l7.2 32.5h6.3l7.2-32.5h.1v32.5h7.5V23.9h-12l-5.8 28.7h-.1l-5.8-28.7h-12.1v40.7zm-27.4-40.7v40.7h23.1v-6.7h-15v-11h13.6v-6.7h-13.6v-9.6h14.4v-6.7h-22.5zm-30.9 28v1.7c0 7.5 3.6 11.9 12.8 11.9 8.8 0 14-3.9 14-12.5 0-5-1.6-8.1-7.7-10.8l-6.3-2.7c-3.5-1.5-4.2-3-4.2-5.5 0-2.4 1-4.7 4.6-4.7 3.1 0 4.4 2.2 4.4 6.1h7.8V34c0-7.8-5.3-10.9-12.5-10.9-7.7 0-12.5 4-12.5 12 0 6.8 3.3 9.8 10.6 12.3 5.4 1.9 7.2 3.3 7.2 7 0 3.4-2.4 5-4.9 5-4.3 0-5.4-2.5-5.4-6.3v-1.2h-7.9zm-29.4 0v1.7c0 7.5 3.6 11.9 12.8 11.9 8.8 0 14-3.9 14-12.5 0-5-1.6-8.1-7.7-10.8l-6.3-2.7c-3.5-1.5-4.2-3-4.2-5.5 0-2.4 1-4.7 4.6-4.7 3.1 0 4.4 2.2 4.4 6.1h7.8V34c0-7.8-5.3-10.9-12.5-10.9-7.7 0-12.5 4-12.5 12 0 6.8 3.3 9.8 10.6 12.3 5.4 1.9 7.2 3.3 7.2 7 0 3.4-2.4 5-4.9 5-4.3 0-5.4-2.5-5.4-6.3v-1.2h-7.9zm-17-20.9h.1l3.9 18.3h-7.9l3.9-18.3zm-15.6 33.6h8.5l1.9-8.6h10.7l1.9 8.6h8.5L239 23.9h-10.1l-10.7 40.7z"/><path class="st0" d="M50.3 130.3l47.5-91.2-17-32.4C38.6 16.8 4 55.4 4 100.9c0 25.8 10.1 49.2 26.5 66.5l19.8-37.1zM100.2 4.4c-5 0-10 .4-14.8 1.2h-.2l14.5 27.6-4.1-7.9 4.4 8.5.2.3 45.9 88.5.8 1.6h46.9c1.6-7 2.6-15.8 2.6-23.3.1-53.3-43-96.5-96.2-96.5M150.1 128.5H55.9l-21.2 40.2h134.1c10.6-9 18.8-23.6 23.4-38.1 0-.1.6-1.9.7-2.1"/></svg>