<svg xmlns="http://www.w3.org/2000/svg" width="72" height="72" viewBox="0 0 72 72">
  <g fill="none" fill-rule="evenodd">
    <path fill="#fff" d="M8,72 L64,72 C68.418278,72 72,68.418278 72,64 L72,8 C72,3.581722 68.418278,-8.11624501e-16 64,0 L8,0 C3.581722,8.11624501e-16 -5.41083001e-16,3.581722 0,8 L0,64 C5.41083001e-16,68.418278 3.581722,72 8,72 Z
                            M60.4641463,13.4173171 L60.4641463,22.7278049 L54.9382927,22.7421951 C50.6068293,22.7421951 49.7721951,24.8 49.7721951,27.807561 L49.7721951,34.4702439 L60.09,34.4702439 L58.7517073,44.8887805 L49.7721951,44.8887805 L49.7721951,72 L39.0097317,72 L39.0097317,44.8887805 L30,44.8887805 L30,34.4702439 L39.0097317,34.4702439 L39.0097317,26.7858537 C39.0097317,17.8639024 44.4478049,13 52.42,13 C56.2204634,13 59.5,13.2878049 60.4641463,13.4173171 Z"/>
  </g>
</svg>
