<svg version="1.1" id="Layer_1" xmlns="http://www.w3.org/2000/svg" fill="#fff" x="0" y="0" viewBox="0 0 455.7 455.7" style="enable-background:new 0 0 455.7 455.7" xml:space="preserve"><style>.st0{fill:none}</style><circle class="st0" cx="308.9" cy="147" r="18.6"/><path class="st0" d="M227.9 149.4c-43.3 0-78.5 35.2-78.5 78.5s35.2 78.5 78.5 78.5 78.5-35.2 78.5-78.5-35.3-78.5-78.5-78.5zm0 123.8c-25 0-45.3-20.3-45.3-45.3 0-25 20.3-45.3 45.3-45.3 25 0 45.3 20.3 45.3 45.3 0 25-20.3 45.3-45.3 45.3z"/><path class="st0" d="M380.2 152.4c0-42.4-34.5-76.9-76.9-76.9h-151c-42.4 0-76.9 34.5-76.9 76.9v151c0 42.4 34.5 76.9 76.9 76.9h151c42.4 0 76.9-34.5 76.9-76.9v-151zm-33.1 151c0 24.1-19.6 43.7-43.7 43.7h-151c-24.1 0-43.7-19.6-43.7-43.7v-151c0-24.1 19.6-43.7 43.7-43.7h151c24.1 0 43.7 19.6 43.7 43.7v151z"/><path d="M227.9 182.6c-25 0-45.3 20.3-45.3 45.3 0 25 20.3 45.3 45.3 45.3 25 0 45.3-20.3 45.3-45.3 0-25-20.3-45.3-45.3-45.3z"/><path d="M228.3 0h-.8C102.1.2.4 101.7 0 227.1v1.6c.4 125.3 102.1 226.8 227.5 227h.8c125.7-.2 227.5-102.1 227.5-227.9C455.7 102.1 353.9.2 228.3 0zm75.1 380.2h-151c-42.4 0-76.9-34.5-76.9-76.9v-151c0-42.4 34.5-76.9 76.9-76.9h151c42.4 0 76.9 34.5 76.9 76.9v151c-.1 42.4-34.5 76.9-76.9 76.9z"/><path d="M303.4 108.7h-151c-24.1 0-43.7 19.6-43.7 43.7v151c0 24.1 19.6 43.7 43.7 43.7h151c24.1 0 43.7-19.6 43.7-43.7v-151c0-24.1-19.6-43.7-43.7-43.7zm-75.5 197.7c-43.3 0-78.5-35.2-78.5-78.5s35.2-78.5 78.5-78.5 78.5 35.2 78.5 78.5c0 43.2-35.3 78.5-78.5 78.5zm81-140.8c-10.2 0-18.6-8.3-18.6-18.6s8.3-18.6 18.6-18.6c10.2 0 18.6 8.3 18.6 18.6s-8.4 18.6-18.6 18.6z"/></svg>