<svg version="1.1" id="Layer_1" xmlns="http://www.w3.org/2000/svg" x="0" y="0" viewBox="0 0 455 455" style="enable-background:new 0 0 455 455" xml:space="preserve"  fill="#fff">
<style>.st0{fill-rule:evenodd;clip-rule:evenodd}</style>
<path class="st0" d="m292.6 155.2-141.9 87.4c-5.4 3.4-8 9.9-6.2 16.1l15.3 53.9c1.1 3.8 6.6 3.4 7.2-.5l4-29.6c.8-5.6 3.4-10.7 7.5-14.5l117.1-108.8c2.1-2.1-.5-5.6-3-4z"/>
<path class="st0" d="M227.5 0C101.9 0 0 101.9 0 227.5S101.9 455 227.5 455 455 353.1 455 227.5 353.1 0 227.5 0zm136.3 108.7-53.5 257.1c-1.3 6.1-8.4 8.8-13.4 5.2l-73-53c-4.4-3.2-10.5-3-14.7.4l-40.5 33c-4.7 3.8-11.8 1.7-13.6-4.1l-28-90.3-72.6-27.1c-7.4-2.8-7.4-13.2-.1-16L352.4 99c6.3-2.5 12.8 3 11.4 9.7z"/></svg>