<?xml version="1.0" encoding="utf-8"?>
<!-- Generator: Adobe Illustrator 26.0.3, SVG Export Plug-In . SVG Version: 6.00 Build 0)  -->
<svg version="1.1" id="Camada_1" xmlns="http://www.w3.org/2000/svg" xmlns:xlink="http://www.w3.org/1999/xlink" x="0px" y="0px"
	 viewBox="0 0 72 72" style="enable-background:new 0 0 72 72;" xml:space="preserve">
<style type="text/css">
	.st0{fill:#29B6F6;}
	.st1{fill:#FFFFFF;}
	.st2{fill:#B0BEC5;}
	.st3{fill:#CFD8DC;}
</style>
<path class="st0" d="M36,0C16.1,0,0,16.1,0,36s16.1,36,36,36s36-16.1,36-36S55.9,0,36,0z"/>
<path class="st1" d="M53.9,19.8l-6.7,34.4c0,0-0.3,1.6-2.2,1.6c-1,0-1.6-0.5-1.6-0.5L28.7,43.2l-7.1-3.6l-9.2-2.4
	c0,0-1.6-0.5-1.6-1.8c0-1.1,1.7-1.7,1.7-1.7l38.4-15.2c0,0,1.2-0.4,2-0.4c0.5,0,1.1,0.2,1.1,0.9C54,19.4,53.9,19.8,53.9,19.8z"/>
<path class="st2" d="M34.2,47.7L28,53.8c0,0-0.3,0.2-0.6,0.2c-0.1,0-0.3,0-0.4-0.1l1.7-10.7L34.2,47.7z"/>
<path class="st3" d="M46.6,25.6c-0.3-0.4-0.9-0.5-1.3-0.2L21.6,39.6c0,0,3.8,10.6,4.4,12.4c0.6,1.8,1,1.9,1,1.9l1.7-10.7l17.7-16.4
	C46.8,26.5,46.9,25.9,46.6,25.6z"/>
</svg>
