<?xml version="1.0" encoding="utf-8"?>
<!-- Generator: Adobe Illustrator 26.1.0, SVG Export Plug-In . SVG Version: 6.00 Build 0)  -->
<svg version="1.1" id="Camada_1" xmlns="http://www.w3.org/2000/svg" xmlns:xlink="http://www.w3.org/1999/xlink" x="0px" y="0px"
	 viewBox="0 0 500 500" style="enable-background:new 0 0 500 500;" xml:space="preserve">
<style type="text/css">
	.st0{fill:#EACFAC;}
</style>
<g>
	<path class="st0" d="M436,274.8c0,0.4,0,0.8-0.1,1.2c-0.5,2.6-1.7,5-3.2,7.2c-0.2,0.3-0.4,0.5-0.6,0.8c-0.9,1.6-1.9,3.2-3.1,4.7
		c-0.3,0.9-0.4,1.9-0.5,3c3,2.2,5.4,5.5,7.1,8.8c1.4-9.5,2.8-20.1,4.1-31.3C439.2,271.3,437.7,273.2,436,274.8z"/>
	<path class="st0" d="M460.4,178.7c-3.5-56.3-86.6-178.5-175.6-154.2s-70.2,83.2-162.1,91.1c-93.6,8-98.6,106.2-81.2,166l0.3,1.2
		c3.3-1.9,7-3.5,10.6-4.8c3.5-1.3,7.1-2.3,10.7-3.1c3.2-0.7,7.6-0.6,10.5-2.1c1.9-1,2.8-5.4,3.3-7.7c0.9-4,1.1-8.2,1.2-12.3
		c0-7.5-3-14.8-1.5-22.2c2.9-14.2,19.4-14.8,30.5-11c5.9,2,11.5,4.9,16.3,8.8c5.3,4.4,8,10.7,9,17.4c0.5,3.8,0.6,7.8,0.2,11.7
		c0.5,0.3,1,0.6,1.4,1c0.3,0.3,0.5,0.6,0.7,0.9c3.2-0.2,6.4,0.1,9.6,0.1c-2.1-10.3-2.4-21.4,3.4-30.1c1.8-2.8,4.2-5,6.9-6.9
		c1.3-0.9,2.7-1.5,4-2.2c0.4-0.2,0.8-0.4,1.1-0.6c0-0.3,0-0.6,0-0.6c0-1.5-0.1-3-0.1-4.5c0.1-4,0.5-7.9,1.2-11.8
		c0.6-3.7,1.6-7.4,2-11.1c0.3-3.1,0.7-6.4,2.3-9.2c3.6-6.2,11.1-8.5,17.8-8.6c7.1-0.1,13.6,2.7,18.4,8c2.9,3.2,4.6,6.9,4.6,11.2
		c0,1.9-0.3,3.8-0.2,5.6c0,2,0.7,3.7,1.3,5.6c1.3,3.8,2.5,7.7,4.1,11.3c0.9,1.9,1.9,3.8,2.4,5.8c0.6,2.2-0.2,4,0,6.1
		c0,0.3,0.1,0.7,0.3,1c3.8-0.8,6.7,0.9,8.6,3.8c2.1-1.3,4.7-2,7.3-2c2.5-3.7,6.5-6.2,10.7-6.3c2.7-2.9,6.6-4.4,11-4.4
		c5,0,10.1,2.2,14.4,2.3c4.5,0.1,9.1-0.5,13.4,1c3.6,1.2,5.9,3.5,7.3,6.5c2.4,0.3,4.6,1.5,6.5,3.8c0.2,0.2,0.4,0.5,0.6,0.8
		c1.3-2,2.8-3.8,4.5-5.4c1.6-1.5,3.6-3,5.6-3.8c0.2-1.1,0.9-3.2,1-3.5c1.3-5.4,2-10.8,1.5-16.3c-0.5-5.4,0.8-10.6,5-14.3
		c6.8-5.8,17.8-5.6,25.2-1c9.6,5.9,8.9,16.8,11.4,26.4c1.1,4,3.8,7.1,6.1,10.4c5.3-3.6,12.3-5.1,18.7-4.5c7.9,0.7,15.6,3.7,21.4,8.8
		c5.5-7,14.8-9.5,24-5.3c2.7,1.2,5.1,2.9,7.1,5c8.5,2.9,15.6,11.8,12.1,20.7c-0.1,0.2-0.1,0.3-0.2,0.4c1,1.6,2.1,3.3,3.2,4.9
		c0.2,0.3,0.4,0.5,0.6,0.8c0,0,0,0,0,0C455.7,240.4,461.8,200.7,460.4,178.7z"/>
	<path class="st0" d="M139.3,299.2c-1.2-1.2-2.3-2.4-3.3-3.7c-4.4-3.8-7.7-8.6-10.2-14.2c-0.2-0.4-0.4-0.8-0.5-1.3
		c-1.4,3.1-2.9,6.1-4.2,9.3c8,3.5,15.3,10.8,20.7,17c2.5,2.9,3.6,5.8,3.8,9c1.5-1.9,3-3.8,4.2-5.9c0.2-0.3,0.4-0.6,0.5-0.9
		C146.2,306.1,142.5,302.3,139.3,299.2z"/>
	<g>
		<g>
			<path d="M271.2,394.4c-0.8-1.4-1.5-2.9-2.1-4.4c0.2-0.4,0.2-0.9-0.3-0.8c0,0,0,0,0,0c-2.9-7-4.4-14.6-4.5-22.2
				c0-0.9-1.5,0.2-1.5,0.9c-0.3,7.3,0.8,14.5,3.2,21.3c-6.5-0.3-11.9-2.3-17.4-6.1c-0.6-0.4-1.7,0.9-1.2,1.4c0.3,0.3,0.7,0.7,1,1
				c-0.4,0.4-0.7,1-0.6,1.4c1.3,3.6,1.6,7.4,0.6,11.2c-0.8,3.1-2.9,5.7-3.9,8.8c-1.6,5-0.3,10.5,1.6,15.2c0.3,0.8,1.6-0.5,1.5-1.1
				c-0.6-3.2-1.6-6.3-1.7-9.6c-0.1-4.1,1.7-6.9,3.3-10.4c2-4.4,2.4-9.2,1.2-13.8c2.7,1.9,5.9,3.2,9.2,3.8c-1.4,0.6-2.9,1.2-4.3,1.9
				c-0.5,0.2-1,1.6-0.1,1.3c2.1-0.6,4.1-1.4,6.1-2.3c0.3-0.1,0.5-0.3,0.7-0.5c1.5,0.1,3.1,0.1,4.6-0.1c0.4,0.9,0.8,1.9,1.3,2.8
				c-3.5,1.6-7,3.3-10.5,5c-0.6,0.3-1.1,1.9-0.1,1.5c3.8-1.7,7.5-3.3,11.3-5.1c0.5,0.9,1,1.9,1.5,2.8c-0.1-0.1-0.2-0.1-0.4,0
				c-3,0.9-5.8,2.3-8.6,3.5c-0.6,0.2-1.3,1.9-0.3,1.5c3-1.1,6-2,8.8-3.4c0.3-0.2,0.7-0.8,0.7-1.3c0.3,0.6,0.7,1.2,1,1.8
				c-0.2,2.1-0.3,4.1-0.4,6.2c-2.8,0.8-5.6,1.7-8.2,2.8c-0.4,0.2-1.4,1.7-0.5,1.6c2.9-0.5,5.8-1.4,8.6-2.3c0,0.5,0,1.1,0,1.6
				c-3,0.7-5.8,2.5-8.2,4.3c-0.6,0.5-0.8,2,0.3,1.3c2.5-1.6,5.2-2.5,7.9-3.7c0,0.5,0,1.1,0,1.6c-2,1.1-3.9,2.2-5.8,3.4
				c-0.7,0.4-1.1,2,0.1,1.4c1.9-1,3.9-2,5.8-3.1c0,1.1,0,2.2,0.1,3.2c-1.7,0.6-3.4,1.6-5.1,2.3c-0.4,0.2-0.9,0.6-1,1.1
				c0,0.4,0.2,0.8,0.6,0.6c1.8-0.8,3.7-1.5,5.5-2.4c0,1,0.1,2,0.2,2.9c-1.8,0.8-3.5,1.8-5.2,2.6c-0.6,0.3-1,1.9-0.1,1.4
				c1.8-0.8,3.7-1.5,5.4-2.4c0,0,0,0,0,0c0.1,0.8,0.1,1.6,0.2,2.4c0.1,1.2,2-0.3,1.9-1.1c-0.4-7.6-0.6-15.1-0.6-22.7
				c1.6,3.8,2.5,7.8,1,12.1c-0.4,1.3,1.1,0.9,1.5,0.1C279.3,408.2,274.7,400.9,271.2,394.4z"/>
			<path d="M312.7,309.7c-2.9,3-6.9,3-10.6,1.6c-0.5-0.2-1.5,0.9-1,1.3c3.8,3.2,9.7,1.5,12.6-2C314.6,309.5,313.7,308.7,312.7,309.7
				z"/>
			<path d="M323.4,315.7c-5.7,4.1-10.6,5.5-17.6,5.1c-0.6,0-1.8,1.6-0.9,1.8c6.5,2,15-0.7,19.4-5.7C325,316,324.5,314.9,323.4,315.7
				z"/>
			<path d="M302.8,290.7c0-0.3-0.3-0.5-0.6-0.5c-2.8,0.1-5.5-0.5-8.3-0.9c-0.7-0.1-2.1,1.4-1.2,1.8c1.6,0.8,3.4,1.1,5.2,1.2
				c1.3,0.1,2,0.2,2.4,0.6c-0.4-0.1-0.7-0.1-1.1-0.1c-0.6,0-1.1,0.6-1.3,1.1c-0.2,0.4-0.1,1,0.4,1c0.6,0,1.3-0.2,2-0.3
				c0.2,0,0.3-0.1,0.5-0.2c0,0.2,0,0.4,0.1,0.6c0.3,3.9,0.2,7.8,0,11.8c0,0.9,1.4-0.2,1.5-0.7C303.2,301.1,303.3,295.9,302.8,290.7z
				"/>
			<path d="M329.7,286.2c-6.7-3.4-15.5-1.4-21.1,3.3c-0.7,0.6-0.9,2.4,0.4,1.6c6.1-4.2,12.4-4.6,19.3-2.5
				C329.3,288.8,330.9,286.7,329.7,286.2z"/>
			<path d="M316.9,292.2c-0.2,0-0.4,0-0.6,0c-0.1-0.1-0.3-0.2-0.5-0.3c-0.4-0.3-1,0-1.3,0.4c-0.3,0-0.6,0-0.9,0
				c-0.5,0-1.4,1.3-0.7,1.4c0.5,0.1,1,0.2,1.5,0.3c0.6,0.6,1.5,0.6,2.2,0.1C317,293.8,318.1,292.3,316.9,292.2z"/>
			<path d="M291,277.2c-0.7,3.5-1.1,7.2-1.2,10.7c0,0.8,1.2-0.2,1.3-0.6c0.8-3.5,1.5-7.3,1.7-10.9
				C292.8,275.2,291.1,276.6,291,277.2z"/>
			<path d="M329,272.8c-0.7-1.2-1.4-2.3-2.2-3.4c-0.3-0.4-0.7-0.3-1.1-0.1c-4.8,2.9-9.9,5.3-15.2,7.1c-0.3,0.1-0.6,0.4-0.8,0.8
				c-2.2,0.6-4.3-0.3-5.7-2.1c-0.3-0.4-1,0.1-1.2,0.2c-1.5,1.3-4.1,0.3-4.9-1.3c-0.3-0.6-1.2,0.4-1.2,0.8c0.6,2.9,3.5,3.8,5.8,2.6
				c1.8,2.2,4.7,2.8,7.4,1.6c0.3-0.1,0.7-0.6,0.9-1c5-1.6,9.8-3.6,14.3-6.3c0.7,1,1.3,2,2.1,3C327.7,275.3,329.4,273.5,329,272.8z"
				/>
			<path d="M334.2,274c-0.6-2.3-2.4-3.8-3.9-1.4c-0.4,0.7,0.1,1.1,0.7,0.6c0.9-0.8,1.8,4.7,2,5.3c0.2,1.1,0.5,2.3,0.7,3.4
				c0.7,3.1,1.3,6.3,2.2,9.4c0.3,0.9,1.8-0.6,1.7-1.2C336.8,284.8,335.5,279.2,334.2,274z"/>
			<path d="M400.4,399.1l-4.1-28.3c-1.1-7.4-1.7-15.6-5.7-22.2c-3.8-6.3-10.5-12.1-17-14.9c-9-3.9-19.5-9.2-28.5-13
				c-0.4-0.2-1,0.2-1.3,0.7c0,0,0,0,0,0c-1.1-0.5-1.8-1.3-2.6-2.2c-0.2-1.2-0.5-2.4-0.7-3.7c-0.5-2.8-0.9-5.7-1.7-8.5
				c2.4-1.2,4-4.2,4.3-6.9c0.3-2.3-0.2-9.5-3-10.2c0.4-0.3,0.7-0.7,0.8-1c0.6-3.7,0.6-7.5,0.4-11.3c-0.1-2.8,0.1-6.7-1.6-9.2
				c-0.7-1-1.4-1-2.2-1.7c-0.6-0.5-0.5-0.7-1-1.4c-0.6-0.9-1.4-1.4-2.2-1.7c0.4-0.7,0.5-1.5-0.4-1.3c-1.9,0.4-3.1-1.8-4.8-2.6
				c-2.4-1.1-5-1.5-7.6-1.8c-6-0.7-13-2.2-18.9-0.7c-7.7,1.9-14.5,10.7-12.5,18.8c0.2,0.8,1.5-0.6,1.5-1.1c0.1-9.7,6.2-16.4,16.2-16
				c4.6,0.2,9.3,0.8,13.9,1.4c3.5,0.5,6.9,1.3,9.2,4.2c-0.2,0.4-0.1,0.8,0.5,0.7c2.1-0.5,3.7,1.2,3.8,3.2c0,0.2,0.1,0.5,0.3,0.5
				c4.2,0.4,3.6,6.9,3.7,10.1c0.2,3.6-0.1,7.2-0.1,10.8c0,0.1,0,0.1,0,0.2c-0.5,0.2-1.1,0.5-1.7,1c-0.7,0.6-1,2.5,0.4,1.7
				c2.9-1.8,3.4,4.9,3.4,6.4c0.1,2.8-1.1,6.8-4.1,6.8c-0.1-1.7-0.2-3.4-0.4-5.1c-0.1-1.3-1.8,0.4-1.9,1.1c-0.1,1.2-0.1,2.5-0.2,3.8
				c-0.5,0.4-0.9,1.2-0.4,1.5c0.1,0,0.2,0.1,0.3,0.1c-0.1,5-0.3,8.4,0.3,13.3c0.4,2.3-15.4,17.7-27.1,16.7c-3.6-1.8-3.2-2.5-4.5-5.8
				c-0.8-2.1-2.1-4-3.4-5.9c-2.8-3.8-6.4-7.6-8-12c0-0.4-0.1-0.7-0.1-1.1c-0.7-6.9-0.7-13.8-0.5-20.8c0-1-1.6,0.2-1.7,0.8
				c-0.8,6.4-0.9,13.2-0.5,19.9c0.1,0.2,0.2,0.3,0.2,0.5c0.7,5,3.9,9.2,7,13.3c-2,0.3-3.9,0.9-5.7,1.7c-0.1-0.2-0.3-0.4-0.4-0.6
				c-10.4,3.4-20.6,8.2-30.7,12.3c-3.1,1.3-6.4,2.5-8.4,5.4c-1.9,2.8-2,6.1-1.6,9.4c-0.3,0.3-0.6,0.6-0.6,0.9
				c-1.3,9.1-1.8,18.6-2,27.8c0,0.8,1.2-0.2,1.3-0.6c1.4-9.2,2.6-18.8,2.9-28.2c0-0.1,0-0.2,0-0.2c0.2-4.7,0.8-8.9,5.8-11
				c3.9-1.6,7.9-3.1,11.8-4.6c7.5-2.9,15.3-5.6,22.6-9c0,0,0,0,0,0c1.8-0.5,3.6-0.9,5.4-1.4c0.2-0.1,0.5-0.4,0.8-0.7
				c0.6,0.8,1.2,1.6,1.7,2.5c-3,6.1-5.4,8-5.5,14.3c-0.1,6.9,4,10.5,7.1,12.4c0,0-0.1,0.1-0.1,0.1c4,1.1,8.5,1.3,12.5,0.8
				c8.7-1.1,16.9-5.1,22.9-11.4c5.2-5.5,10.3-14,10.4-21.9c0.1,0,0.2,0,0.3-0.1c0,0,0,0,0.1,0c7.5,3.4,16.3,8,23.8,11.2
				c7.2,3.1,14.8,8.8,18.9,16c3.8,6.7,4.3,14.7,5.4,22.1c1.3,9,2.6,18,3.9,27C398.6,401.6,400.5,400,400.4,399.1z M336.7,342.6
				c-4.5,5.6-10.8,9.7-17.8,11.6c-2.9,0.8-8.1-8.7-11.2-8.6c2.2-1.3,6.2,6.4,7.8,5c1.3-1.2,3.6-2.7,3.8-4.6c0.1-1-0.5-1.5-0.6-2.4
				c-0.2-2.6,0.7-4,2.1-5.4c14.6-8.5,15.7-14.4,15.7-14.7c0.5-5.1,0.6-10.4,0.4-15.7c0.2,0,0.4-0.1,0.5-0.1c0,0,0,0.1,0,0.1
				c0.1,3.5,0.7,6.9,1.2,10.4c0.1,0.4,0.1,0.9,0.2,1.4c0.1,0.1,0.2,0.3,0.2,0.5c0,0.8,0.1,1.5,0.2,2.3c0.2,0,0.5,0,0.7,0.2
				c0.6,0.3,1.2,0.7,1.7,1.2c0-0.1,0-0.1,0-0.2c0.8,0.5,1.7,0.8,2.6,0.9C342.6,330.9,341.1,337,336.7,342.6z"/>
			<path d="M400.3,400.6c-2.7,5.5-7.3,9.7-13.3,11.4c-6.3,1.8-11.5,0.1-17.3-1.8c0.5-5.1,0.2-10.9-2.5-15.3
				c-1.5-2.5-3.9-4.4-5.6-6.7c-2.3-3.1-3.5-6.7-3.7-10.6c-0.1-0.8-1.2,0.2-1.3,0.7c-0.3,5.1,1.4,8.9,4.2,12.6
				c-0.2,0.3-0.5,0.5-0.7,0.8c-0.4,0.4-0.9,0.9-1.2,1.4c-0.1,0.2-0.3,0.6-0.1,0.8c0.2,0.2,0.5,0.1,0.7,0c0.5-0.3,1-0.8,1.4-1.2
				c0.3-0.3,0.5-0.5,0.8-0.8c0.2,0.3,0.5,0.6,0.7,0.9c-1.3,0.9-2.5,2.1-3.6,3.1c-0.8,0.7-0.6,2,0.5,1.2c1.3-1,2.8-2,4.1-3.1
				c0.3,0.4,0.6,0.8,0.8,1.1c-1.1,0.6-2.2,1.3-3.4,2c-0.4,0.2-0.9,0.8-0.8,1.3c0.1,0.5,0.5,0.5,0.9,0.3c1.3-0.8,2.7-1.6,4-2.4
				c0.6,1.1,1.1,2.2,1.5,3.3c-2.1,1.7-4.1,3.5-6.2,5.2c-0.8,0.6-0.5,1.9,0.5,1.1c2-1.6,4.1-3.2,6.2-4.8c0.2,0.7,0.3,1.4,0.4,2
				c-0.1,0-0.1,0.1-0.2,0.1c-1.7,1.5-3.3,3.2-4.9,4.8c-0.3,0.3-0.7,1.1-0.3,1.5c0.5,0.4,1.1-0.2,1.4-0.5c1.4-1.4,2.8-2.7,4.1-4.2
				c0.1,0.9,0.1,1.8,0.2,2.7c-2.1,1.5-4.1,3.3-6.1,4.9c-0.9,0.8-0.7,2.3,0.6,1.3c1.9-1.5,3.8-2.8,5.6-4.4c0,0.8,0,1.6,0,2.5
				c-0.9,0.5-1.8,1.2-2.6,1.9c-1.2,1-2.2,2.1-3.1,3.4c-0.2,0.3-0.4,0.9,0.1,1.1c0.5,0.2,1-0.4,1.3-0.8c0.7-1,1.6-1.9,2.6-2.7
				c0.6-0.5,1.3-0.9,2-1.3c0.4,0.1,1-0.4,1.3-0.8c0.2,0.2,0.4,0.3,0.6,0.5c-0.2,0-0.4,0.1-0.6,0.3c-2.3,1.8-4.3,4.1-6.4,6.1
				c-0.3,0.3-0.8,0.8-0.5,1.3c0.2,0.4,0.8,0.2,1.1-0.1c2.2-2,4.7-3.9,6.7-6.2c0.2-0.2,0.3-0.5,0.4-0.7c0.3,0.4,0.4,0.9,0.5,1.5
				c-0.2,0-0.5,0-0.8,0.3c-3.1,2.5-5.7,5.8-8.5,8.6c-0.9,0.9,0,1.7,0.9,0.8c2.7-2.7,5.8-5.1,8.2-8.1c-0.3,1.4-1,2.9-1.6,4.4
				c-0.3,0.1-0.5,0.3-0.7,0.5c-1.5,1.8-3.2,3.2-5.3,4.2c-0.5,0.2-1,0.7-1.1,1.2c0,0.4,0.2,0.8,0.7,0.6c2-0.9,3.8-2,5.3-3.5
				c-0.3,1.3-0.3,2.5,0.4,3.6c0.5,0.9,1.8-0.6,1.7-1.2c-0.4-2.6,0.3-4.5,1.3-6.9c0.5-1.3,1.1-2.6,1.1-4c0-0.8-0.1-1.5-0.3-2.1
				c5.2,2.1,11.7,1.6,16.6-0.4c2.7-1.1,5.2-2.8,7.3-4.8c1,6.8,1.1,13.3,0.3,20.2c-0.2,1.4,1.7,0.2,1.8-0.6
				c1.3-6.8,0.9-14.1-0.9-20.8c1.9-2,3.4-4.4,4.6-6.9C402.9,398.9,400.8,399.7,400.3,400.6z"/>
			<path d="M364.9,398.1c-0.5,0.3-0.9,0.6-1.4,0.9c-0.4,0.3-0.9,0.8-0.8,1.3c0,0.5,0.6,0.5,0.9,0.3c0.5-0.3,0.9-0.6,1.4-0.9
				c0.4-0.3,0.9-0.7,0.8-1.3C365.8,397.9,365.3,397.9,364.9,398.1z"/>
			<path d="M368.2,427.1c-0.1-0.5-0.6-0.5-0.9-0.3c-1.6,0.8-3.1,1.9-4.6,2.8c-0.4,0.2-0.9,0.8-0.8,1.3c0.1,0.5,0.5,0.5,0.9,0.3
				c1.6-0.9,3.1-1.7,4.6-2.8C367.8,428.1,368.3,427.6,368.2,427.1z"/>
			<path d="M265,392.7c-0.1-0.5-0.5-0.5-0.9-0.3c-2,1.4-4.3,2.4-6.7,2.8c-0.7,0.1-1.6,1.8-0.7,1.6c2.7-0.4,5.2-1.3,7.5-2.8
				C264.5,393.7,265.1,393.2,265,392.7z"/>
			<path d="M270.4,402.1c-2.9,0.9-5.8,2.2-8.7,3.3c-0.6,0.2-1.3,1.7-0.3,1.4c2.9-0.9,5.8-1.7,8.6-2.9
				C270.7,403.6,271.7,401.7,270.4,402.1z"/>
			<path d="M336.3,419.5c-18.7,0.8-37.2-4-53.1-13.8c-0.7-0.4-1.9,1.1-1.3,1.4c16,10.1,34.6,15.1,53.5,14.3
				C336.3,421.5,337.5,419.5,336.3,419.5z"/>
			<path d="M347,424c-18.3,1.5-36.4,1.9-54.7,0c-0.8-0.1-1.9,1.6-1.1,1.7c18.2,2.1,36.8,2.5,55,0.2C347,425.8,348.2,423.9,347,424z"
				/>
		</g>
		<g>
			<path d="M277.3,255.3c-8.9-10.4-25.9-6.8-31.9,4.7c-0.6,1.1,0.9,0.7,1.4,0.1c4.5-6.5,11-9.2,17.5-8.3c-6.5,0.4-12.7,3.3-17.3,8.1
				c-0.7,0.8-0.2,2,0.8,1.1c7-6.6,16.7-8.2,25.6-4.9c0.2,0.1,0.5,0,0.8-0.1c0.5,0.4,1,0.8,1.5,1.2C276.4,257.8,278,256,277.3,255.3z
				"/>
			<path d="M261.4,272.8c-3.2,0.6-6.7-1.2-9.6,0.7c-1.7,1-3.2,3.7-1.7,5.4c0.6,0.6,1.7-0.9,1.5-1.5c-1.1-3.4,3.5-2.5,5.1-2.3
				c1.4,0.2,2.7,0.1,4-0.4C261.4,274.4,262.5,272.6,261.4,272.8z"/>
			<path d="M259.1,276.7c-0.1-0.2-0.3-0.3-0.5-0.3c-0.7,0-1.2,0.5-1.6,1.1c-0.6,0.6-0.9,1.4-0.2,1.7c0.2,0.1,0.3,0.1,0.5,0.1
				c0,0,0,0,0.1,0c0.3,0.1,0.8-0.2,1.1-0.6C259.1,278.1,259.4,277.3,259.1,276.7z"/>
			<path d="M269.7,275.1c-0.3-0.3-0.9-0.2-1.3,0c-0.5,0.3-1,0.8-1.1,1.4c0,0.3,0.1,0.5,0.2,0.6c0,0.2,0,0.5,0.3,0.5
				c0.7,0.1,1.3-0.4,1.7-1C269.8,276.3,270.1,275.6,269.7,275.1z"/>
			<path d="M277.7,273c-2.6-3.4-7.7-3.3-10.9-0.8c-0.9,0.7-0.7,2.2,0.6,1.3c2.8-2,6.5-0.9,8.6,1.5
				C276.6,275.8,278.3,273.8,277.7,273z"/>
			<path d="M266.3,284.5c-1.6,1.9-4.3,1.8-6.1,0.2c-0.6-0.6-2,0.9-1.6,1.6c2.1,3.5,7.7,2.2,9.2-1.3
				C268.4,283.7,266.9,283.8,266.3,284.5z"/>
			<path d="M271.3,288.6c-1.9,2.1-4.1,3.4-7,3.7c-0.5,0.1-1.5,1.3-0.6,1.4c3.4,0.2,6.9-1.6,8.6-4.5C273,288.2,272,287.9,271.3,288.6
				z"/>
			<path d="M287.2,285c0.2-0.9,0.3-1.7,0.5-2.6c-1.6,1.3-3.8,0.5-5.5-0.4c0,0-0.1,0-0.1,0c1.8-3.1,4.4-8.2,1.9-11.3
				c-0.8-1-2-1-3-0.5c-0.2-2.1-0.6-4.2-1.1-6.2c0-0.1-0.1-0.2-0.2-0.2c0.6-1.3,0.2-2.9-0.9-4.1c-0.6-0.7-2.2,1.1-1.8,1.8
				c0.2,0.3,1.2,1.8,0.9,2.1c0,0-1.2-0.7-1.4-0.8c-0.8-0.3-1.6-0.3-2.4-0.1c-1.1,0.3-2,0.8-2.7,1.6c0.1-0.5,0.1-0.9,0-1.5
				c-0.2-1.2-1.8,0.3-1.9,1.1c-0.2,6.1-7.7,1.4-9.1,0.5c-0.9-0.6-2.3,1.1-2,2c-0.6-1.6-3.1-2.6-4.6-2.1c-1.1,0.4-4,5-5,1.2
				c-0.2-0.9-1.9,0.6-1.8,1.3c0,0,0,0,0,0c-0.2,0.2-0.4,0.4-0.5,0.6c-2,6.2-1.9,13.3,0.3,19.5c0.7,2.9,1.9,5.8,3.6,8.3
				c-0.3,2.5-0.3,5.2-0.2,7.8c-1.8,1.3-3.8,2.2-5.9,2.7c0-0.1,0-0.3,0-0.4c-0.1-0.8-1.2,0.1-1.3,0.7c-0.3,0-0.6,0.1-0.8,0.1
				c-0.4,0-0.8,0.5-1.1,1c0-0.2,0-0.4,0-0.5c0-0.5-0.4-0.4-0.7-0.2c-6.7-2.5-12.8,5-15.2,10.4c-0.6,1.3-0.9,2.6-0.8,4
				c0.1,0.8,0.6,1.6,0.7,2.4c0.7,3.6-0.3,3.8-1.4,6c-0.8,1.5-1.3,3.2-0.7,4.6c0,0,0,0.1-0.1,0.1c-1.3,1.8-0.8,3.5,0.6,5
				c-0.1,0.1-0.2,0.3-0.2,0.4c-0.4,2.2-0.9,4.3-1.6,6.4c0.4,0.5,0.8,0.9,1.2,1.4c0.7-2.4,1.3-4.8,1.6-7.3c3,2.4,8.1,4.1,11,5
				c-0.4,2.2-0.9,4.4-1.4,6.6c-0.3,0.2-0.7,0.5-0.8,0.9c-0.2,1.6-1.4,2.8-2.5,3.9c0.3,0.5,0.5,1,0.8,1.5c0.5-0.7,1-1.4,1.5-2.2
				c0.7-0.9,1.2-1.8,1.4-2.8c0.5-0.1,1.1-0.6,1.2-1c0.7-2.2,1.3-4.4,1.9-6.7c0.6-0.4,1-1.2,0.4-1.5c0,0,0,0,0,0
				c2.7-11.6,3.4-23.8,3.2-35.5c0.1,0,0.2,0.1,0.3,0c0.5,0,1.1-0.1,1.6-0.2c-0.1,8.3-0.1,16.6-0.8,25c-0.6,8.1-1.8,16.2-3,24.2
				c-0.1,0.1-0.2,0.2-0.3,0.3c0-0.3,0-0.6-0.4-0.6c-1.3,0.2-2.9-0.3-3.5-1.5c-0.3-0.6-1.3,0.5-1.1,0.9c0,0.1,0.1,0.3,0.2,0.4
				c-0.2,0.1-0.4,0.3-0.5,0.5c-0.8,1.1-0.7,3,0.7,3.6c1.4,0.6,3.4-0.7,3.6-2.2c0,0,0-0.1,0-0.1c0,0,0.1,0,0.1,0
				c0.2-0.1,0.5-0.3,0.6-0.5c0,0.2,0.1,0.3,0.3,0.4c0.1,0,0.2,0.1,0.3,0.1c0,0,0,0,0.1,0c2.8,1.7,0.5,9.6-0.2,12.8
				c0.5,1,0.6,2.1,0.4,3c0.2,0.5,0.3,0.9,0.5,1.4c0.1-0.7,0.3-1.3,0.4-1.9c0.9-4,1.8-8.1,2.2-12.1c0.2-1.9,0-3.9-1.6-4.6
				c2.1-9.9,3.4-20.3,3.9-30.7c0.7,3.4,2.8,6.1,7.6,6.9c11.1,1.9,24-1.9,33.9-6.6c0.8-0.4,1.3-2,0.5-2c-0.4-6.7-2.2-14.2-5.2-20.3
				c1.7,0.5,3.4,0.8,5.2,1c0.1-0.7,0.1-1.4,0.2-2.2c-3.3-0.4-6.5-1.1-9.7-2.3c0,0-0.1,0-0.1,0c-0.1-1.5-0.1-3,0-4.6
				c1.9-3.2,3.3-6.6,4.3-9.3c0.4-0.9-0.2-1.1-0.8-0.8c0.1-0.4,0.1-0.9,0.2-1.3C282.6,286.3,285.1,286.2,287.2,285z M281.1,272.8
				c0.1-0.1,0.1-0.2,0.2-0.3c0.1,0.2,0.4,0.4,0.8,0.5c0.1,0.2,0.1,0.4,0.2,0.5c0.4,1.1,0.2,2.5,0,3.6c-0.3,1.3-0.8,2.5-1.4,3.6
				C281.2,278.2,281.3,275.5,281.1,272.8z M235.7,342.6c-4.3-1.5-12.9-4.8-12.3-7.9c0.1,0.1,0.2,0.2,0.4,0.4
				c0.7,0.6,2.3-1.2,1.6-1.9c-2.3-2.2,0.6-4.8,1.4-6.8c0.7-1.6,0.7-2.8,0.2-4.5c-1.2-4.1,0.1-6.4,2.5-9.6c2.4-3.1,5.5-5.7,9.7-4.6
				c0,0,0,0,0.1,0C239.5,319.7,238,331.1,235.7,342.6z M236.3,358.5c-0.3,0.4-0.8,0.5-1.3,0.3c-0.4-0.2-0.9-0.9-0.7-1.4
				C234.8,357.9,235.6,358.3,236.3,358.5C236.3,358.4,236.3,358.5,236.3,358.5z M244.6,316c0-2.9-0.1-5.8-0.3-8.7
				c0.3-0.1,0.6-0.2,0.9-0.3C245.4,309.6,245,312.8,244.6,316z M277.9,307.7c-0.4-1.7-0.7-3.4-0.9-5c0.5,0.2,1.1,0.4,1.6,0.6
				c0,0.1,0,0.3,0,0.4c1.2,3.5,2.7,6.8,3.7,10.3c1.1,3.7,1.8,7.4,2.6,11.1c-9.3,4.2-21.2,7.5-31.4,5.8c-12-2-5.7-16.2-6.7-24.4
				c1.2-0.6,2.4-1.3,3.4-2.1c0,0.7,0.1,1.3,0.1,1.9c0.1,1.3,2-0.4,2-1.2c0.1-2-0.1-4-0.1-6c0-0.4,0-0.9,0-1.4
				c2.6,3.2,6.6,8.8,9.7,11.7c5.6,5.2,10.1-5.7,13.2-10.7c-0.5,3.5-0.3,7.3,1.1,10.5C276.5,310.3,278.1,308.5,277.9,307.7z
				 M278,289.6c-0.7,1.7-1.6,3.3-2.5,4.9c0,0,0,0-0.1,0c-0.6,0-1.3,1.2-0.7,1.4c-0.5,0.8-1,1.5-1.5,2.3c-4.5,6.1-10,4.6-15.1,0.7
				c-5.9-4.5-9.7-11.4-10.3-18.8c0-0.2-0.1-0.3-0.2-0.4c-0.2-3.5-0.1-6.9,0.4-10.6c0.6,0.5,1.3,0.7,2.3,0.6c1.9-0.3,2.5-3.1,4.5-2.8
				c1.8,0.3,2.2,2.5,4.4,1.1c0.3-0.2,0.5-0.4,0.7-0.6c2.6,1.4,5.5,2.5,8.4,0.9c0.8-0.4,1.4-1,1.9-1.6c0.3,0.3,1.2-0.2,1.5-0.8
				c0.6-1.5,2.5-1.5,3.7-0.9c1,0.5,1.8,1,2.9,0.3c0,0,0,0,0,0c0.9,8.1,0.9,15.5-0.5,23.6C277.7,289.4,277.8,289.6,278,289.6z"/>
			<path d="M295.8,251.7c-0.5,0.5-1.2,1.4-0.7,2.1c0.7,1,1.3,2,1.7,3.1c0.8-0.6,1.7-1.1,2.6-1.5c-0.4-1.1-0.9-2.2-1.7-3.3
				c3.8-5.4,0.4-12.7-5.9-11.9c0.8-1.5,1-3.4,0-5c-1.3-2.1-3.5-2.6-5.6-1.9c-0.4-2.4-1.5-5-4.3-4.9c-0.7,0-1.4,0.2-1.9,0.6
				c-1.1-6.2-8.7-7.6-13.1-2.9c0.4-0.7,0.5-1.4-0.3-1.3c-2,0.3-3.6,1-5,2.1c-1.5-5.7-8.1-5.3-11.3-1.1c-1.6-2-4.3-2.2-6.7-0.8
				c-2.6,1.4-3.9,4-4.8,6.7c-3.2-3.2-9.1-0.7-10.1,4c-2.9-0.9-6,0.3-7.9,3c-2.8,4-1.6,8.5,1.5,11.7c-1.8,1.3-2.8,3.4-2.4,5.3
				c-2.1,2.3-2.5,5.6-0.5,7.8c-0.8,0.8-1.4,1.8-1.6,3c-0.4,3.4,2.1,6.4,5,8.4c-1,1.1-1.7,2.5-1.6,4c0.1,5.8,6.4,6.4,10.8,5.1
				c2.2,1.8,4.8,2,7.4,0.9c1.3,2.4,3.4,4.7,5.1,6.2c0.7,0.7,2.4-1.2,1.6-1.9c-1.5-1.4-2.7-3-3.7-4.7c-0.4-0.7-0.8-1.5-1.1-2.3
				c-0.1-0.3-1.4-3.8,0.2-2.6c0.9,0.7,2.6-1.3,1.8-2.1c-2-2.4-5,1.3-5,3.3c0,1,0.2,2,0.6,2.9c-1.7,0.3-3.3-0.2-4.7-1.3
				c0.1-0.3,0.1-0.6-0.1-0.8c-0.1-0.1-0.3-0.3-0.4-0.4c-0.2-0.2-0.5-0.1-0.7-0.1c-0.2,0.1-0.4,0.1-0.5,0.2c-0.3,0.1-0.8,0.5-1.1,1
				c-1.6,0.4-3.2,0.5-4.7-0.1c-0.8-0.3-1.6-0.9-2.1-1.5c-1.4-1.2-1.1-2.3,0.6-3.3c0.1-0.4,0.2-0.7,0.3-0.9c0.4,0.2,0.7,0.3,1.1,0.5
				c0.5,0.2,1.2-0.6,1.2-1.1c0.9-0.3,2-1.7,1-2.2c-0.8-0.4-1.6-0.5-2.4-0.5c-1.2-0.4-2.3-1-3.4-1.9c-0.2-0.2-0.5-0.1-0.8,0
				c-0.6-0.7-1.1-1.5-1.4-2.2c-0.3-0.5-0.5-1-0.6-1.5c-0.7-1.2-0.1-2,1.7-2.3c0.1,0,0.1,0.1,0.2,0.1c0.8,0.3,2.5-1.6,1.6-2.2
				c-0.3-0.2-0.6-0.3-0.9-0.4c-1.9-1-3.9-3.4-2.2-5.5c0.5,0.6,1.1,1.2,2,1.7c0.8,0.4,2.1-1.2,1.4-1.6c-0.5-0.3-1.1-0.8-1.6-1.5
				c0,0,0.1,0,0.1-0.1c0.7-0.4,1.5-2.5,0.1-2c-0.4,0.1-0.7,0.3-1,0.5c-0.3-1.1,0.1-2.2,2.3-2.7c0.7-0.1,2.4-1.6,1.5-2.3
				c-1.6-1.3-3-2.8-3.6-4.8c-1.3-4.6,3.2-8.5,7-5.4c1,0.8,2.3-1.2,2.1-2.1c1.1-4.2,2.8-5.5,5.3-3.7c1,0.7,1.7,1.7,1.9,3.1
				c0.3,1.5,2.5-0.3,2.3-1.4c-0.1-0.7-0.4-1.3-0.6-1.8c1.2-3.5,6.8-10.3,9-4.2c0.5,1.2,2-0.8,2.2-1.3c2.3-3,4.5-3.5,6.7-1.6
				c1.1,1,1.6,2.1,1.6,3.6c0.1,1.1,1.4,0.3,1.8-0.1l4.2-2.4c0.2,0,0.4-0.2,0.6-0.3c0,0,0,0,0,0c-0.9,1.3,0.7,1.3,1.4,0.4
				c3.8-5.1,10.8-0.7,10.2,4.8c-0.2,1.8,2,0.2,2.3-0.8c1.8-0.4,2.9,0.1,3.5,1.7c0.1,0.5,0.2,0.9,0.3,1.4c-0.1,0.1-0.2,0.2-0.3,0.3
				c-0.8,0.8-0.6,2.4,0.5,1.5c0,0.2,0,0.3,0,0.5c0,1.5,2.4-0.3,2.4-1.4c0-0.1,0-0.2,0-0.3c3.1-0.3,5.6,4.2,2.4,6
				c-0.7,0.4-1.7,2.9-0.2,2.2C293.7,241.1,300.6,247,295.8,251.7z"/>
			<path d="M237.2,368.4c0.6-2.7,1.1-5.5,1-8.3c0-0.8-1.1,0.1-1.2,0.6c-0.3,2-0.5,3.9-0.9,5.9C236.5,367.2,236.8,367.8,237.2,368.4z
				"/>
			<g>
				<path d="M190.8,198.5c0.1-0.3,0.2-0.7-0.2-0.7c-0.1,0-0.2,0-0.3,0.1c-0.4-0.1-0.8,0.5-0.9,0.9c0,0.1-0.1,0.2-0.1,0.2
					c-0.2,0.5-0.2,1,0,1.5c0.2,0.3,0.6,0.1,0.8-0.1c0.2-0.2,0.4-0.4,0.6-0.7c0.1-0.1,0.1-0.2,0.1-0.3
					C190.9,199.1,190.9,198.8,190.8,198.5z"/>
				<path d="M193.9,193.6c-0.7,0.3-1.4,0.2-2-0.1c-1.9,0.3-3.4,1.9-4.7,3.2c-0.4,0.4-0.1,1,0.4,0.5c1.9-1.8,5.5-4.1,7.2-0.7
					c0.3,0.6,1.1-0.4,1-0.9C195.6,194.5,194.8,193.9,193.9,193.6z"/>
				<path d="M190.3,208c-0.3-1.8-1.1-3.5-1.7-5.2c-0.6-1.9-1.2-3.9-1.7-5.8c-0.1-0.4-0.8,0.2-0.7,0.5c0,0.2,0.1,0.4,0.1,0.6
					c0,0-0.1,0.1-0.1,0.1c-0.1,0.1-0.3,0.4-0.2,0.6c0.1,0.1,0.3,0.1,0.4,0c0.4,3.2,1.1,7,2.9,9.5c-0.2,0.6-0.5,1-1.2,1.1
					c-0.6,0-1.2-0.2-1.7-0.6c-0.3-0.3-1,0.5-0.8,0.8c1.2,2.1,4.3,0.8,4.6-1.3C190.2,208.2,190.3,208.1,190.3,208z"/>
				<path d="M185.8,185.4c-3.3,6.2-7.3,13.2-15.3,13c-0.5,0-1.3,1.2-0.5,1.3c8.5,0.5,13.2-7.6,16.6-14.2
					C186.8,184.8,186,185,185.8,185.4z"/>
				<path d="M182.9,198.5c-0.9-0.3-1.8-0.3-2.7-0.2c3.7-2.8,6.3-7.1,7.1-12c0.1-0.7-0.9-0.1-0.9,0.3c-1.2,7.3-6.6,12.2-13.6,13.6
					c-0.1-0.2-0.3-0.1-0.5,0.1c-0.5,0.1-1.3,1.4-0.5,1.3c0.1,0,0.1,0,0.2,0c0,0.2,0.1,0.4,0.1,0.6c-0.4-0.2-0.9-0.4-1.3-0.6
					c-1.1,0.2-1.5,1.4-1.6,2.3c-0.1,2.4,1,6.8,3.9,7c-0.1-0.6-0.2-1.2-0.4-1.8c-0.7-0.6-1.3-1.2-1.7-2.3c-0.3-0.8-0.4-1.6-0.6-2.5
					c-0.1-0.3-0.1-0.6-0.1-1c0.3-0.9,0.7-0.9,1-0.2c0,0.5,0.6,0.1,0.8-0.3c0.1,0.4,0.2,0.8,0.2,1.2c0.1,0.5,0.8-0.1,0.7-0.4
					c-0.1-0.7-0.1-1.5-0.2-2.2c2-0.3,3.8-1,5.5-2c1.3-0.1,2.6,0.2,3.9,0.3C182.7,199.7,183.5,198.7,182.9,198.5z"/>
				<path d="M180.9,200.6c0-0.2-0.1-0.2-0.3-0.2c-0.4,0-0.7,0-1.1,0c-0.4,0-1.1,0.9-0.6,1.1c0.3,0.1,0.6,0.1,1,0.2
					c0,0.2,0,0.3,0,0.5c0,0.3,0.3,0.3,0.5,0.2c0.2-0.1,0.5-0.4,0.5-0.7C181,201.2,181,200.9,180.9,200.6z"/>
				<path d="M175.9,220.3c-2.1,0.6-4.4,0.1-6-1.4c-2.3-2.1-2.6-5.9,0.9-6.9c0.2-0.1,0.7-0.7,0.2-0.7c-3.4-0.1-5,3.8-3.9,6.7
					c1.3,3.3,5.3,4.7,8.5,3.6C176.2,221.4,176.8,220,175.9,220.3z"/>
				<path d="M187.3,214.5c-2.2-0.2-4-0.7-5.7-2c0.6-0.2,1.2-0.4,1.8-0.7c0.2-0.1,0.7-1,0.2-0.9c-1,0.2-1.9,0.6-2.9,1
					c-0.3,0.1-0.7,0.5-0.6,0.9c0.1,0.5,0.3,1,0.4,1.5c0.1,0.5,0.8-0.1,0.7-0.4c0-0.1,0-0.3,0-0.4c1.5,1.4,3.6,2.3,5.6,2
					C187.1,215.4,187.8,214.5,187.3,214.5z"/>
				<path d="M219.9,231.7c-0.5-0.5-1.3-0.8-2-1.1c-3-1.6-6.2-3.3-9.5-4.5c4.4-8.4-6.5-15.1-8.8-22.5c-0.6-2-0.6-5-0.6-8.1
					c0.1-0.5,0.1-1,0.2-1.4c0.1-0.3-0.1-0.3-0.3-0.3c-0.1-6.4-0.8-13.1-7.8-13.3c-0.2,0-0.5,0.2-0.7,0.4c0,0,0,0,0,0
					c-1.5-1.6-3-2.6-4.5-3.2c-1.6-1.2-3.5-1.8-5.7-1c-1.2,0.5-2.2,1.3-3.2,2.2c-3.6,2-7,5.3-9.8,8.2c-0.3,0.1-0.7,0.3-1,0.7
					c-0.2,0.3-0.4,0.7-0.6,1c-0.1,0.1-0.1,0.2-0.2,0.2c-0.2,0.3-0.3,0.5-0.2,0.7c-0.7,1.8-1,3.7-1,5.7c0,5,0.8,9.2-0.9,14.1
					c-1.6,4.8-4.5,11.7-0.4,16c-6,1.5-12.4,5.1-14.8,10.9c-1.5,3.6-1.2,7.6-1.2,11.4c0,5.2-0.2,10.6,0.4,15.8
					c0.1,0.9,1.2,0.2,1.6-0.4c0.5,0.1,1,0.1,1.5,0.2c0-4.8,0-9.7,0.1-14.5c0.1-4.4-1-10.7,1.4-14.8c0.5-0.6,1-1.2,1.7-1.8
					c0,0,0.1,0,0.1,0c1.5-0.5,3-1.2,4.5-1.9c2.6,2.6,4.8,5.1,6.3,8.3c-1.3,2.4-1.8,5-1.2,7.8c0.3,1.6,1,3.5,1.9,5.4
					c-0.3,0.9-0.6,1.7-1,2.6c0.5-0.3,1-0.6,1.5-0.8c0.1-0.2,0.1-0.3,0.2-0.5c0.1,0.1,0.1,0.2,0.2,0.3c0.7-0.4,1.5-0.7,2.3-1
					c-0.4-0.7-0.7-1.3-1.1-2c-0.1-0.3-0.3-0.5-0.4-0.8c0,0,0,0,0,0c-0.6-0.9-1-1.8-1.2-2.7c-0.1-0.2-0.2-0.3-0.3-0.5
					c-1.4-3.8-0.6-8.6,2.6-11.2c1.5-3.5,1.4-7.1-1.3-10.2c0-0.1,0.1-0.1,0.1-0.2c-3-3.2-3.4-7-2.7-10.9c0.4-1.6,0.9-3.1,1.4-4.7
					c0.3-0.9,0.6-1.7,0.8-2.6c0,0,0-0.1,0.1-0.1c0-0.1,0-0.2,0-0.2c0.1-0.3,0.1-0.5,0.2-0.8c0.4-1.6,0.6-3.3,0.6-5
					c0-1.8-0.6-3.3-0.9-5c0-1.3,0-2.6,0.2-3.9c1.4-3.9,6-6.9,8.9-9.6c0.5-0.5,1-1,1.5-1.4c4.3-2,8-0.9,12.1,1.8
					c0.1,0.1,0.2,0.1,0.3,0.1c0,0.1,0.1,0.1,0.3,0c0.7-0.3,1.4-0.4,1.9-0.3c1.1,0.5,2.1,1.2,2.8,1.9c0.8,1.1,1.4,2.6,1.7,3.7
					c0.1,0.5,0.3,1,0.4,1.4c-1.6-2.4-3.7-4.4-6-6c-0.4-0.3-1.1,0.6-0.8,0.9c2.7,2,4.7,4.5,6.4,7.2c-0.1,0.1-0.1,0.2-0.2,0.3
					c-2.6-1.9-4.9-4.3-6.6-7.1c-0.3-0.5-1.2,0.4-1,0.8c0,0,0.1,0.1,0.1,0.1c0.2,3.6-1.4,6.8-4.3,9c-0.4,0.3-0.5,1.2,0.2,0.8
					c2.9-1.9,4.7-5,5-8.3c1.7,2.6,3.8,4.7,6.4,6.4c0.3,2.8,0.5,5.6,0.9,8.4c0,0,0,0.1,0,0.1c0.4,3.1,0.4,5.8-0.3,8.6
					c-0.2,0.1-0.3,0.3-0.3,0.4c-1.8,4.2-3.7,8.1-6.9,11.5c-0.1,0-0.3,0-0.4,0c-0.3,0-0.5,0-0.7-0.1c0,0.1-0.1,0.2-0.1,0.2
					c-3.2-1-5.8-2.5-7.8-4.5c0,0,0,0.1,0,0.1c-1.1-1-2.2-2-3.3-3c-0.4-0.4-0.8-0.9-1.2-1.3c-0.3-2.8-1.1-5.6-1.7-8.3
					c-0.1-0.4-0.9,0.3-0.8,0.6c0.4,2.9,0.7,5.9,1.4,8.7c0.1,0.2,0.2,0.2,0.4,0.1c0,0,0,0.1,0.1,0.1c-0.2,0.3-0.3,0.7-0.1,1
					c1.2,1.7,2.6,3.8,4.3,5.8c-0.3,0.3-0.5,0.8-0.1,0.8c0.4,0.1,0.8,0.2,1.1,0.3c0.9,1,1.8,1.8,2.8,2.5c1.4,2.9,0.2,7.4-1.2,10.3
					c-1.5,3.1-3.4,6.2-3.6,9.8c-0.1,1.6,0.2,3.1,0.6,4.5c0.7-0.1,1.3-0.2,2-0.3c-0.1-0.2-0.2-0.4-0.3-0.7c-1.4-3.9-0.3-7.4,1.4-10.9
					c0.1,3.6,1.3,7.5,3.1,10.9c0.6-0.1,1.1-0.2,1.7-0.3c-0.2-0.4-0.4-0.8-0.6-1.2c3.8,0.1,7.7-1,11-2.8c-0.6,1.5-1.4,3.1-2.1,4.6
					c0.3,0.1,0.7,0.2,1,0.3c4.1-7.7,5.9-16.3,1.6-24.5c1,0.4,2,0.7,3.1,1.1c0.1,0.1,0.2,0.1,0.3,0.1c1.5,0.6,3.1,1.1,4.6,1.7
					c0.1,0.3,0.4,0.3,0.8,0.3c1.4,0.5,2.8,1.1,4.2,1.6c0.8,0.4,1.7,0.8,2.5,1.2c1.1,0.5,3.2,1.2,4.9,2.1c0.4,0.3,0.8,0.7,1.1,1.2
					c0.7,1.1,1.2,2.5,1.6,3.9c0.3-0.3,0.5-0.6,0.8-0.9c0.1-0.1,0.2-0.2,0.3-0.3c0.2-0.1,0.3-0.3,0.4-0.4
					C223.1,234.4,221.7,232.9,219.9,231.7z M164,227.6c0.2-0.1,0.4-0.3,0.6-0.6c0.1-0.1,0.3-0.2,0.4-0.3c0.2,0,0.3-0.1,0.5-0.1
					c0.1,0,0.1-0.1,0.2-0.1c1.1,1.4,1.8,3.1,1.8,5c0.1,2.2-0.9,3.8-2,5.5c-1.3-2.9-3.3-5.4-6.1-7.1c1.2-0.6,2.3-1.2,3.4-1.8
					C163.3,227.9,163.7,227.8,164,227.6z M196.5,194.1c0.2,0.1,0.5,0.3,0.7,0.4c0.1,2.6,0,5.3,0.4,7.6c0,0.4,0.1,0.8,0.1,1.2
					c-0.1-0.2-0.1-0.4-0.2-0.7c0,0,0-0.1,0-0.1C197.3,199.8,196.9,197,196.5,194.1z M196.2,213.7c1.3-2.2,2-4.9,1.9-7.6
					c0.3,0.4,0.5,0.7,0.8,1.1c0.1,0.4,0.3,0.7,0.5,1.1c0.1,0.2,0.2,0.3,0.3,0.5c0.1,0.1,0.1,0.3,0.1,0.4c-0.1,0.2-0.2,0.3-0.2,0.4
					c0.2,1.4,0.3,2.9-0.6,4.1c-0.8,1.1-2.2,1.6-3.5,1.6C195.7,214.8,196,214.3,196.2,213.7z M194.9,216.4c0.4,0,0.8,0,1.1-0.1
					c-0.1,0.1-0.1,0.2-0.1,0.2c-0.2,0.9-0.4,1.7-0.9,2.5c-0.1-0.8-0.2-1.5-0.4-2.3C194.7,216.6,194.8,216.5,194.9,216.4z
					 M206.7,221.3c-0.3,0.8-0.6,1.6-0.9,2.4c-0.3,0.3-0.4,0.6-0.3,0.9c-0.1,0.4-0.3,0.9-0.4,1.3c-0.5-0.2-1-0.3-1.5-0.5
					c1.5-1.5,2.5-3.6,2.2-5.8c-0.1-0.9-1.3,0.2-1.4,0.8c0,1.8-0.6,3.5-1.9,4.7c-0.1,0-0.3-0.1-0.4-0.1c1.1-2.1,1.7-4.4,1.6-6.9
					c0-0.9-1.4,0.2-1.4,0.8c0,2-0.3,4-1.1,5.8c-0.8-0.2-1.6-0.5-2.4-0.7c1.7-2,3-4.3,3.3-6.9c0.1-1-1.1-0.1-1.3,0.4
					c-0.7,2.3-1.6,4.4-3.1,6.2c-0.1,0-0.3-0.1-0.4-0.1c-0.5-0.1-1.4,1-0.8,1.3c0,0,0.1,0,0.1,0c-0.1,0.1-0.2,0.2-0.3,0.3
					c-0.5,0.4-0.4,1.3,0.3,0.7c0,0,0.1-0.1,0.1-0.1c1.9,4.3,2.7,8.9,1.9,13.5c-0.3,1.4-0.7,2.8-1.2,4.2c-0.1,0-0.1,0-0.2,0
					c-3.9,1.6-7.5,2.5-11.7,3.1c0,0,0,0-0.1,0c-1.3-2.8-2.3-5.7-3.2-9c0-0.1-0.2-0.1-0.3,0c0.2-0.5,0.5-1,0.7-1.4
					c1.3-2.7,2.5-6.6,2-9.7c0.6,0.2,1.1,0.4,1.7,0.5c2.8,0.4,5.8-1.8,5.5-4.7c0.6-1.1,1.2-2.1,1.6-3.2c0.1-0.3,0.1-0.5,0-0.6
					c0.1-0.1,0.2-0.3,0.3-0.4c0.1,2.5,0.2,5,0.6,7.4c0.1,0.7,1.1-0.2,1.1-0.6c0-0.6-0.1-1.2-0.1-1.8c2-1.9,3.5-4.4,4.2-7
					c0.3-1-1.1-0.2-1.3,0.3c-0.8,1.9-1.8,3.6-3,5.2c0-0.4-0.1-0.8-0.1-1.1c1.1-1.2,2.2-2.9,2-4.5c2.1-0.9,3.8-2.9,3.8-5.2
					c1.1,1.4,2.5,3,3.7,4.6c1.1,1.8,2,3.6,2.4,5.4C206.9,220.9,206.7,221.1,206.7,221.3z"/>
				<path d="M212.4,251.3c-0.1,0.8,1,0.1,1-0.4c0.4-4.1,0.3-8.2-0.3-12.2c1.7,5.6,1.4,11.4-0.4,17c-0.2,0.5,0.2,0.6,0.5,0.4
					c0.2,3.8,0.6,7.7,1.6,11.4c0.4-0.1,0.8-0.2,1.3-0.3c-0.9-4-1.8-7.9-2.1-12.1c0-0.1-0.1-0.1-0.1-0.2c2-6.2,1.7-12.6-0.6-18.7
					c-0.1-0.2-0.4-0.1-0.6,0.1c-0.1-0.5-0.2-1.1-0.3-1.6c-0.1-0.5-0.9,0.1-0.9,0.5C212.6,240.7,212.8,245.9,212.4,251.3z"/>
				<path d="M228.5,286.9c-0.1-0.3-0.1-0.5-0.2-0.8c-0.1-0.3-0.3-0.2-0.6-0.1c-0.4,0.1-0.7,0.7-0.7,0.9c0.2,1.5,0.4,3,0.5,4.5
					c0,3.7-0.9,7.2-2,10.8c-3,0.7-6-0.3-8.3-2.5c-0.1-0.1-0.3-0.1-0.5,0c-0.1-3.9,0.3-7.8,0.9-11.7c0.2-0.9-1.1-0.1-1.2,0.4
					c-1.4,5.8-1.8,11.6-1.2,17.5c0.4,4.1,0.9,7.9-2.7,10.8c-2.5,2.1-5.7,3-8.7,4c-0.1,0-0.1,0.1-0.2,0.1c-1.8,0.2-3.7,0.4-5.5,0.7
					c-0.7,0.1-1.2,1.3-0.7,1.4c0,0,0,0,0,0c0,0,0,0,0,0c0,0,0.1,0,0.2,0c3.3,0.3,6.7-0.4,9.9-1.1c0.3-0.1,0.6-0.5,0.8-0.9
					c2.1-0.9,4.2-2,5.8-3.6c0.6,3.4-2.8,5.5-3.5,8.5c-0.7,3,1.2,6.2-0.3,9c-0.4,0-1,0.8-0.8,1.1c0.7,1.5,2.2,1.9,3.6,1.5
					c-0.1,1.4-0.1,2.9,0.1,4.3c0.1,1.1,0.6,2,1.9,1.7c1.3-0.3,2.1-1.7,2.9-2.6c-0.6,1.8-1.3,3.8-1.2,5.6c0.1,1.2,1.7-0.2,1.9-0.6
					c0.9-2.2,1-4.9,1.2-7.2c0,0,0-0.1,0-0.1c0.5-0.6,1-1.2,1.3-1.9c0.3-0.8-0.2-1.2-0.9-0.8c-1.2,0.7-2.2,2-3,3.1
					c-0.7,0.8-1.4,1.6-2.1,2.5c-0.6-0.3-0.5-1.9-0.6-2.6c-0.1-0.7-0.1-1.3-0.2-2c0.5-0.4,0.6-1.5-0.2-1.2c0,0,0-0.1,0-0.1
					c-0.1-0.7-0.9,0.1-1,0.5c-0.7,0.1-1.4-0.1-1.9-0.5c2-1.9,1.4-4.6,1.1-7.3c-0.3-3.6,1.4-4.7,2.6-7.6c0.6-1.4,0.8-2.6,0.2-4
					c0-0.1-0.1-0.1-0.2-0.2c1-1.2,1.7-2.5,2.2-4.1c0.9-3.1,0-6.4-0.2-9.6c0-0.3,0-0.6-0.1-0.9c2,2.3,5.3,2.9,8.2,2.1
					c-0.4,1.3-1,2.9-1.6,4.5c-0.1,0.4-0.3,0.7-0.4,1.1c-2.1,5.4-4.5,12.1-2.5,17.9c0.2,0.6,1,0.2,1.5-0.4c0.5,0.1,1.3-0.7,1.2-1.3
					c-0.3-1.8-0.7-3.6-1.1-5.3c0-0.5,0-1,0.1-1.5c0,0,0-0.1,0-0.1c0.3-2.1,0.8-4.4,1.5-6.6c1-2.9,2.2-5.7,3.3-8.5
					C228.8,298.7,231,292,228.5,286.9z"/>
				<path d="M173.3,237.2c-3.3,3.9-5.1,8.5-5.7,13.6c-0.1,1.3,1.6,0.2,1.7-0.6c0.5-4.6,2.3-8.7,5-12.5
					C174.9,236.9,173.9,236.6,173.3,237.2z"/>
				<path d="M177,230.5c-0.4-0.8-1.7,0.6-1.5,1.2c2.4,7.1-3.3,12.8-5,19.3c-0.2,0.9,1.1,0.2,1.3-0.3
					C173.9,244.3,180.2,237.7,177,230.5z"/>
			</g>
		</g>
		<g>
			<path d="M326.8,215.6c-1.2,0.5-2.3,0.9-3.6,0.9c-1.3-0.1-2.5-0.5-3.6-1.1c-0.3-0.1-0.8,0.5-0.5,0.7c1.9,2.1,5.7,2.1,7.8,0.3
				C327.1,216.2,327.4,215.4,326.8,215.6z"/>
			<path d="M330.1,217.7c-2.6,1.7-5.6,2.5-8.8,2.2c-0.4,0-1,0.9-0.6,0.9c3.4,0.4,6.6-0.3,9.4-2.2
				C330.6,218.3,330.9,217.2,330.1,217.7z"/>
			<path d="M318.9,208.4c-0.3-0.1-0.6-0.2-0.9-0.3c-0.2,0-0.3-0.1-0.5-0.1c-0.2,0-0.3,0.1-0.4,0.1c-0.2,0-0.4,0.2-0.5,0.4
				c-0.1,0.1-0.1,0.4,0.1,0.4c0.1,0,0.1,0.1,0.2,0.1c0.1,0,0.2,0,0.2,0c0.1,0,0.2,0,0.4,0.1c0,0,0,0,0,0c-0.1,0.1-0.1,0.2-0.1,0.3
				c0,0.2,0.2,0.4,0.4,0.3c0.3-0.1,0.6-0.2,0.8-0.4C318.9,209.2,319.3,208.6,318.9,208.4z"/>
			<path d="M328.3,208.9c-0.4-0.2-0.9-0.2-1.3,0c-0.1,0-0.3,0-0.4,0.1c-0.3,0.1-0.9,0.8-0.4,1c0.5,0.1,1.1,0,1.6,0
				C328.1,209.9,328.8,209.1,328.3,208.9z"/>
			<path d="M322.1,195.1c-0.7,0-1.8,1.7-0.7,1.7C322.1,196.8,323.1,195.1,322.1,195.1z"/>
			<path d="M320.3,196.2c0.1,0,0.1,0,0.2,0c0.4,0,1-1,0.4-1c-0.6,0-1.2,0.2-1.7,0.6c-0.2,0.1-0.5,0.6-0.2,0.8
				c0.1,0.1,0.2,0.2,0.3,0.3c-0.4,0.2-0.7,0.4-1,0.6c-0.1,0.1-0.6,0.7-0.3,0.8c0.5,0.3,1.1,0.6,1.6,0.8c0.4,0.1,1.1-0.7,0.7-1
				c-0.3-0.2-0.6-0.4-0.9-0.5c0.2-0.1,0.3-0.2,0.5-0.2c0.1,0,0.1,0.1,0.2,0.1c0.3,0.1,0.9-0.5,0.7-0.8
				C320.6,196.5,320.4,196.3,320.3,196.2z"/>
			<path d="M318.1,195.4c-0.5,0-1-0.2-1.4-0.3c-0.4,0-0.9,0.5-0.8,0.9c0.1,0.3,0.2,0.6,0.3,0.9c-0.3-0.1-0.6-0.2-0.9-0.1
				c-0.4,0.2-0.8,0.7-0.8,1.2c0.1,0.4,0.5,0.6,0.9,0.6c0.1,0,0.2,0,0.3,0c-0.2,0.1-0.3,0.4-0.3,0.6c0,0.5,0.3,0.9,0.8,1.1
				c0.5,0.2,1,0.1,1.4-0.3c0.2-0.1,0.4-0.5,0.3-0.7c-0.1-0.2-0.4-0.1-0.6,0c-0.1,0.1-0.3,0.1-0.5,0c0.1-0.1,0.1-0.1,0.2-0.2
				c0.3-0.4,0.5-0.7,0.7-1.1c0.1-0.1,0.2-0.4,0-0.5c-0.2-0.1-0.3-0.2-0.5-0.2c0,0,0-0.1,0-0.1c0-0.3-0.1-0.7-0.2-1
				c0.2,0,0.4,0,0.6,0C318,196.1,318.4,195.4,318.1,195.4z M315.9,198.5c0.3-0.1,0.5-0.2,0.7-0.2c-0.1,0.2-0.3,0.4-0.4,0.6
				c0,0,0,0,0,0c-0.1-0.1-0.1-0.2-0.1-0.3C316.1,198.5,316,198.5,315.9,198.5z"/>
			<path d="M313.9,199c0.3-0.8,0.6-1.6,0.9-2.5c0.2-0.6-0.6-0.3-0.7,0.1c-0.3,0.8-0.6,1.6-1,2.5c0,0,0,0,0,0.1
				c-0.6,0.1-1.1,0.7-1.1,1.3c0,0.8,0.7,1.1,1.4,1c0,0.3,0.2,0.3,0.4,0.2c0.3-0.1,0.4-0.4,0.6-0.6c0.1-0.2,0.3-0.4,0.2-0.6
				c-0.1-0.2-0.2-0.2-0.4-0.2c-0.4,0.1-0.8,0.2-1.1,0c-0.1-0.1-0.1-0.1-0.2-0.2c0.3,0.1,0.8-0.5,0.6-0.7
				C313.8,199.2,313.9,199.1,313.9,199z"/>
			<path d="M357,236.4c-1.1-3.3-3.2-5.6-6.8-5.3c1.3-10-14.7-15.8-9.6-25.8c0-0.1,0-0.1,0-0.1c0.3-0.4,0.5-0.8,0.5-1.2
				c0.1-1-0.5-2-1.5-2.1c-0.1-1-0.7-1.8-1.6-2c0.3-0.6,0.3-1.2,0-1.8c-0.1-0.2-0.2-0.2-0.4-0.1c0,0-0.1,0-0.1-0.1
				c-1.3-4-4.3-7.9-8.7-8.6c-2.7-0.4-5.5,0.3-7.5,2.2c-2.4-1.4-5.7-0.5-7.7,1.2c-1.4,1.2-2.8,3.5-2.5,5.5c-0.4,0.1-0.8,0.3-1,0.6
				c-0.5,0.7-0.3,1.3,0.1,1.9c-0.2,0.2-0.4,0.6-0.1,0.7c-0.7,0.1-1.3,0.8-1.3,1.6c0,0.5,0.3,1,0.8,1.2c0.2,0.1,0.3,0.1,0.5,0.1
				c-0.2,0.4-0.4,0.8-0.5,1.2c-1.3,3,0,6.2,0.3,9.7c0.3,3.5-3.1,7.8-1.6,11.3c-1.4-0.1-2.7,0-3.8,0.5c-0.5,0.2-1,0.5-1.3,0.8
				c-0.6,0.4-1.3,0.9-1.8,1.6c-1.3,1.6-2.3,3.5-3.4,5.2c-1,1.6-2.2,3.2-2.9,5c0.1,0,0.1,0,0.2,0.1c0,0,0,0,0.1,0
				c0.6,0.2,1.1,0.4,1.6,0.8c1-1.7,1.9-3.6,2.7-5.4c0,0,0.1-0.1,0.1-0.1c1-0.9,1.6-1.9,2.1-3.1c0.1-0.2,0.2-0.4,0.3-0.6
				c0.5-0.7,1.1-1.4,1.8-1.8c1.6-0.9,3.7-0.6,5.5-0.6c-0.3,6.1-5.5,10.2-7.2,15.8c-1.1,3.7-0.7,7.7,1.2,10.9c0.7-0.1,1.3-0.1,2-0.2
				c-3.2-5.3-2.6-10.7,0.7-16.2c2-3.4,4.1-6.6,4.2-10.5c0.1-0.1,0.3-0.2,0.4-0.4c0.7,0,1.3,0,2-0.1c0.8,4.1-7,10.3-1.4,13.4
				c3.7,2,9.1,1.5,13.3,0.2c-0.6,1-1.1,2.1-1.3,3.4c-0.9,5.3,2.1,10.1,5.9,13.8c2,0.3,3.9,0.9,5.5,2.2c0-0.1,0-0.2-0.1-0.3
				c-3-3-6.5-5.5-8.4-9.4c-1-2.1-1.6-4.5-1.2-6.9c0.2-1.4,0.8-2.5,1.6-3.6c0,0,0.1,0,0.1,0c0.2-0.1,0.5-0.5,0.6-0.8
				c0.6-0.7,1.2-1.3,1.9-2c3.2-3.4,5.6-9.5,0.7-12.7c-0.3-0.2-0.9,0.4-0.7,0.7c1.1,1.5,2.1,3,2.2,4.9c0.2,3.2-1.9,5.3-4,7.3
				c-0.6,0.6-1.1,1.2-1.6,1.8c-4.4,1.1-14.4,2.8-15.1-2.5c-0.5-3.7,4-5.9,2.9-9.6c1.1-0.3,2.2-0.8,3-1.8c1.8,2.3,1.7,7.5,4.4,7.5
				c4.9,0,7.2-4.2,9-5.6c1.8-1.4-1.4-2.8,4.6-7c3.6-2.5,2.3-7.8,1.5-11.9c0.2-0.2,0.2-0.5,0.1-0.7c-0.1-0.1-0.2-0.2-0.3-0.3
				c-0.1-0.3-0.1-0.6-0.2-0.9c-0.1-0.3-0.5-0.2-0.8,0.1c-1.2-0.9-2.5-1.5-4-2c-1.9-0.7-7.1-1.5-6.5-4.5c0.1-0.6-0.7-0.1-0.8,0.3
				c-0.5,2.3,1.3,3.3,3.2,4.1c2.7,1,5.3,1.8,7.6,3.5c1.1,4.6,2,9.7-2.2,13.2c-1.3,1.1-2.8,2.1-4.2,3.1c-2.3,1.7-4.7,4.2-7.5,2.3
				c-2.7-1.9-4.6-4.7-5.8-7.8c0-0.1,0-0.3-0.1-0.4c0,0-0.1-0.1-0.1-0.1c-0.1-0.4-0.3-0.7-0.4-1.1c0,0.1-0.1,0.2-0.2,0.2
				c-1.6-3.7,2.3-8.1,0.5-11.9c3.5,0.1,6.8-2.5,8-5.7c3.8-0.2,7.6,0.5,11.4,1.9c0.5,0.2,1.2-0.9,0.7-1.1c-0.7-0.3-1.3-0.5-2-0.8
				c0.5-0.1,0.9-0.3,1.3-0.6c0.3-0.2,0.8-0.8,0.3-1c-0.1-0.1-0.2-0.1-0.4-0.2c0.2-0.2,0.3-0.4,0.4-0.6c0.5,0,1,0.2,1.5,0.3
				c0.3,0.4,0.5,0.7,0.8,1c0.1,0.1,0.3,0.1,0.5,0c0,0,0,0.1,0,0.1c-0.1,0.1-0.3,0.1-0.4,0.1c-0.2,0-0.5,0-0.8,0
				c-0.4,0-1.1,1-0.5,1.1c0.3,0,0.6,0.1,0.8,0.2c0,0.1,0.1,0.1,0.1,0.2c0,0,0.1,0,0.1,0c0,0,0.1,0,0.1,0c0.3,0.2,0.7,0.4,0.7,0.8
				c0,0,0,0.1,0,0.1c0,0,0,0,0,0c-0.2-0.1-0.3-0.1-0.4-0.3c-0.1-0.6-0.8,0.1-0.9,0.3c-0.1,0.3-0.2,0.6-0.2,1c0,0.4,0.4,0.1,0.6,0
				c0.1,0.1,0.2,0.1,0.4,0.1c0.5,0,1-0.3,1.3-0.7c0,0,0,0,0,0c0.2,0.1,0.3,0.2,0.4,0.3c0,0,0,0,0,0.1c0,0.2,0.1,0.5,0.3,0.5
				c0.2,0.6-0.1,1.2-0.9,1.1c-0.2,0-0.4,0.1-0.5,0.3c-0.3,0-0.6,0.5-0.7,0.7c-0.2,0.7,0.1,1.2,0.8,1.5c0.3,0.1,0.7-0.4,0.8-0.6
				c0.2-0.4,0.2-0.7,0.2-1.1c0.7-0.3,1.1-1,1.3-1.6c0.2,0.3,0.1,0.8-0.3,1.5c-0.3,0.2-0.5,0.4-0.7,0.6c-0.4,0.3-0.6,1.2,0,1.1
				c-1.6,4.5,0.7,9.1,3.3,12.8c2,2.8,4.4,5.5,5.6,8.8c1.4,4,0.3,7.5-1.5,11.1c-2.3,4.7-4.6,9-3.3,14.4c1.4,5.6,8.4,15.9,1,20.2
				c-0.6,0.3-0.9,1.6,0.1,1.2c4-1.9,5.2-6.5,4.6-10.7c-0.5-3.3-2.1-6.2-3.2-9.3c-1.6-4.3-1.5-8.1,0.5-12.3c1.5-3.3,3.4-6.5,4-9.9
				c0.1-0.1,0.1-0.1,0.2-0.2c3.1,0.9,4.7,3.4,5.5,6.4C355.7,238.4,356.3,237.4,357,236.4z M314.5,193.8c-0.7,0.6-1.2,1.4-1.7,2.2
				C313.2,195.1,313.7,194.3,314.5,193.8z M314.1,222.2c0.4,0.9,1,2,1.8,3.1c-1.2,1.2-2.9,1.4-4.6,1.4c0.1-0.1,0.1-0.3,0-0.4
				c-1.8-2.9,0.1-5.5,0.9-8.4c0.2,0.8,0.6,1.6,1.1,2.3C313.5,220.9,313.8,221.5,314.1,222.2z M334.3,197.2c-0.2-1.2-1.6-1.7-2.7-1.5
				c0,0-0.1,0-0.1,0c0.2-0.4,0.4-0.7,0.6-1.1c0.1-0.2,0-0.5-0.2-0.5c-1.3,0-2.5,0.3-3.7,0.9c-0.2,0.1-0.3,0.3-0.4,0.6c0,0,0,0,0,0
				c-0.4-0.2-0.8-0.2-1.2-0.1c0.2-0.8,0.1-1.7-1-1.8c-1.4-0.1-2.2,1.2-2.6,2.3c-0.3,0.6,0.5,0.3,0.7-0.1c0.3-0.6,0.7-1.5,1.5-1.2
				c0.8,0.2,0.5,1.1,0.2,1.6c-0.4,0.7,0.2,0.8,0.7,0.4c0.3-0.3,0.8-0.2,1.1,0c0.1,0,0.2,0,0.3,0c-0.1,0.3-0.3,0.6-0.6,0.8
				c-0.2,0.1-0.4,0.3-0.4,0.6c0,0.2,0,0.4,0.3,0.3c0.6-0.1,1.2-0.2,1.8-0.4c0.2-0.1,0.5-0.3,0.5-0.6c0.1-0.2,0-0.4-0.2-0.4
				c-0.3,0-0.6,0.1-0.9,0.1c0.2-0.3,0.3-0.7,0.4-1.1c0-0.1,0-0.2-0.1-0.2c0,0,0,0,0.1,0c0.9-0.4,1.8-0.6,2.7-0.6
				c-0.2,0.4-0.4,0.7-0.7,1.1c-0.1,0.2-0.3,0.6,0.1,0.7c0.3,0.1,0.6,0.1,0.9,0c0.1,0,0.4-0.2,0.6-0.5c0.4,0,0.8,0.1,1.2,0.4
				c0.2,0.2,0.4,0.4,0.4,0.7c0,0,0,0,0,0c0,0.1,0,0.2,0,0.2c0,0.3-0.2,0.4-0.5,0.3l-0.3-0.1c-0.4-0.2-1.2,0.8-0.8,1c0,0,0.1,0,0.1,0
				l0,0c0.2,0.1,0.4,0.2,0.6,0.3c-0.1,0-0.1,0-0.2,0.1c-0.2,0.1-0.5,0.4-0.6,0.7c-5.3-1.6-11-1.2-16.3,0.8c-0.4,0.1-0.8,1.1-0.2,0.9
				c2.1-0.8,4.3-1.2,6.4-1.4c-1.3,2.8-3.8,4.4-6.9,4.7c-0.2,0-0.4,0.3-0.6,0.5c-0.5-0.5-1.6,0.7-1.5,1.2c0.6,2.6-0.2,4.7-0.6,7.1
				c-0.5-2.4-1.7-4.9-1.8-7.2c0.1-0.9,0.4-1.7,1-2.5c0.1-0.1,0.2-0.3,0.2-0.4c0.1-0.2,0.1-0.5,0.1-0.7c0-0.1,0-0.1,0-0.1
				c0,0,0,0,0.1-0.1c0.3-0.3,0.1-0.9-0.3-0.5c-0.2,0.2-0.4,0.4-0.5,0.6c-0.4,0.2-0.8,0-1-0.4c0-0.1-0.2-0.4-0.1-0.4
				c0.1-0.2,0.5-0.1,0.6,0c0.3,0.2,0.7-0.3,0.7-0.6l0.2,0.1c0.4,0.2,1.1-0.8,0.6-1c0,0,0,0-0.1,0c0.1-0.2,0.2-0.4,0-0.5
				c-0.2-0.2-0.5-0.3-0.6-0.5c-0.1-0.1-0.4-0.6-0.4-0.7c0-0.1,0.3-0.1,0.6-0.1c0.1,0.1,0.2,0.1,0.3,0c0.1,0,0.1,0,0.2,0
				c0,0.2,0.3,0.1,0.5-0.1c0.5-0.2,0.9-0.6,1-1.1c0-0.4-0.6,0.1-0.6,0.3c0,0,0,0,0,0c0.3-1.7,1.3-3.3,2.8-4.1c1.7-0.9,3.2-0.6,5-0.3
				c0.2,0,0.6-0.2,0.8-0.5c2.7-0.8,5.4-2.4,8.2-1.3c2.3,0.9,3.8,3.1,5.3,5.1C334.7,197.3,334.5,197.2,334.3,197.2z"/>
		</g>
		<g>
			<path d="M381.3,244.2c-3.7-1.9-8.5,0.7-10.6,3.8c-0.4,0.6,0.3,0.9,0.7,0.4c2.4-3.1,5.6-3.4,9.1-2.8
				C381,245.6,382,244.6,381.3,244.2z"/>
			<path d="M369.1,265.8c-0.2-0.5-1,0.4-0.9,0.8c0.9,3,1.8,6.4,3.2,9.2c0.2,0.5,1-0.3,0.9-0.7C371.6,271.9,370.3,268.7,369.1,265.8z
				"/>
			<path d="M386.1,268.9c-1.3-1-2.7-1.6-3.9-2.7c-1.3-1.2-2.2-2.5-3.1-4c-0.3-0.4-1,0.3-0.8,0.7c1.1,2.8,4,6.3,7.1,7
				C385.8,270,386.6,269.2,386.1,268.9z"/>
			<path d="M379,266.1c-1.5,1.5-3.3,2.2-5.4,2.2c-0.4,0-1.2,1.1-0.6,1.2c2.5,0.3,5.2-0.8,6.7-2.8C380.3,266,379.7,265.4,379,266.1z"
				/>
			<path d="M389.1,250.3c0.2,0.6,0.3,1.1,0.5,1.7c0-0.9,0.1-1.9,0.2-2.8C389.5,249.3,389,249.9,389.1,250.3z"/>
			<path d="M386.1,306.5c0.3-0.5,0.6-0.9,0.9-1.4c-1.9-2.2-4.4-3.8-7.3-4.6c-1.7-0.5-3.5-0.6-5.3-0.5c-3.6,0.2-7.8,1.3-7.3-4.3
				c0.2-2.5,0-4.3-3.1-4c-3.2,0.4-6.5,2.2-9.3,4.1c0.9-1.8,1.5-3.9,2.2-6c0.4-0.1,1-0.6,1.1-1c1.1-4.4,2.5-8.5,4.8-12.4
				c1.1-1.1,2.4-1.9,4-2.5c0,0,0,0,0,0.1c0.1,0.2,0.3,0.5,0.4,0.8c0.2,0.3,0.4,0.6,0.6,0.9c0,0,0,0.1-0.1,0.1
				c-3.3,13.1,11.4,19.7,19.5,26.4c0.3,0.3,0.9-0.2,1-0.5c2.4-4.2,4.8-8.4,7.1-12.6c-0.2-0.3-0.3-0.6-0.5-0.9
				c-2.3,4.1-4.7,8.2-7.1,12.3c-7.8-6.2-21.1-12.3-19.5-24.1c0.8,1.3,1.5,2.7,2.2,4c0.3,0.2,0.6,0.3,0.9,0.4
				c0.2,4.3,4.4,7.8,8.6,8.1c0.7,3.4,5.3-2,6-3.1c1.9-3,3.5-6.3,4.6-9.7c-0.7-0.9-1.3-1.8-1.9-2.8c0,0.1-0.1,0.1-0.1,0.2
				c-2.6,2-13.1,11.4-14,4.9c-0.1-0.5-0.8,0.1-0.8,0.5c0,0,0,0,0,0c-0.1,0-0.1,0-0.2,0.1c-0.4,0-0.7-0.1-1.1-0.1
				c-0.3,0-0.5,0.1-0.8,0.3c-1.6-1-2.6-4.8-3-5.6c-0.7-1.4-1.6-2.6-2.6-3.8c-1.3-1.7-2.7-3.3-3.8-5.1c0-0.1-0.1-0.1-0.1-0.2
				c-0.9-1.8-1.4-3.7-2-5.6c2.4,0.9,5.1-0.7,6.6-2.6c0,0,0,0.1,0,0.1c0,0.8,1.2-0.1,1.3-0.4c0-0.1,0.1-0.2,0.1-0.3
				c-0.3,2.9-1.1,6,0.7,8.3c1.5,2,4,2.1,5.7,0.4c0.4-0.4,0.3-1.5-0.4-1c-1.3,0.9-2.9,0.2-3.8-0.9c-1.2-1.5-1-3.7-0.8-5.4
				c0.2-2.2,0.5-4.4-0.8-6.4c-0.1-0.1-0.2-0.1-0.3-0.1c0-0.2,0-0.3-0.1-0.5c0.4,0.1,0.9,0.3,1.1,0.6c0.3,0.3,0.8-0.1,1.1-0.5
				c-0.2,2,0.6,4,2.6,4.9c1.9,0.9,4,0.3,5.5-0.9c-0.1,0.4,0,0.8,0.6,0.5c3-1.7,4.6-4.9,4.3-8.3c0.1,0,0.1,0,0.2,0
				c0.4,0.6,0.9,1.2,1.5,1.7c0.5,0.4,1.4-0.7,1-1.2c-0.2-0.3-0.4-0.6-0.6-0.8c0.5-0.1,1-0.3,1.5-0.4c0.1,0.4,0.2,0.8,0.3,1.1
				c0.2,0.5,1-0.3,0.9-0.7c-0.1-0.6-0.3-1.2-0.3-1.8c0.7-0.7,1.4-1.4,2.1-2.1c0.1,0.6,0.3,1.2,0.4,1.8c0,0,0,0,0,0.1
				c0.4-1.4,0.9-2.9,1.4-4.2c0,0-0.1-0.1-0.1-0.1c-0.1-0.1-0.2-0.1-0.3-0.1c-0.6-1.8-1.5-3.7-2.6-5.4c-0.3-0.5-0.7-1-1.1-1.5
				c-1.5-1.9-3.2-3.6-5.1-4.9c0-0.1,0-0.2-0.1-0.3c-2.1-2.8-6.2-2.8-9-1.2c-0.8-0.9-2.4-0.8-3.4-0.5c-0.8,0.3-1.6,0.8-2.1,1.5
				c-2.4-0.1-4.5,1.4-5.9,3.3c-1.1,0.3-2.1,1.5-2.6,2.3c-0.7,1.1-0.9,2.3-0.7,3.6c0,0,0,0.1,0,0.1c0,0-0.1,0.1-0.1,0.1
				c-1.4,0.9-2.2,2.5-2.4,4.3c-0.4,3.2,0.2,7.4,1.4,10.6c-0.7,0.6-1.3,1.6-1.5,2.4c-0.4,1.6,0.6,3.2,2,4c-0.1,0.1-0.1,0.2-0.1,0.3
				c0.2,4.7,3.1,10.7,7,13.5c-0.1,0-0.1,0.1-0.2,0.1c0.1,0.2,0.2,0.3,0.4,0.5c-0.1,0-0.1,0-0.2,0c-1.6,0-3.4,1.8-4.4,2.9
				c-0.6,0.7-1.2,1.5-1.6,2.3c-0.2,0.3-0.3,0.6-0.5,0.9c-3.6,1.3-7.2,3.8-10.3,5.8c-2.4,1.6-4.3,3.6-4.9,6.5c-0.1,0.4,0,0.5,0.2,0.5
				c0,0.1-0.1,0.2-0.1,0.4c0,0,0,0,0,0c-0.2,1-0.3,2-0.3,3c0.1,0.9,1.3-0.2,1.3-0.8c0,0,0,0,0,0c0.1,0.2,0.2,0.4,0.3,0.6
				c0.3-2.5,0.8-4.8,1.9-6.7c0.1,0,0.1,0,0.2-0.1c4-1.8,8.1-4,11.8-6.5c-0.8,1.9-1.6,3.8-2.1,5.7c-0.1,0.1-0.2,0.2-0.4,0.3
				c-0.1,0.2-0.3,0.3-0.4,0.5c-1.1,3.7-2,7.3-3.7,9.8c-0.5,0.7,0.1,1.1,0.7,0.6c2.2-1.6,4.6-3,7.1-4c0.5-0.2,1.7-0.9,2.3-0.8
				c1.1,0.8,2.1,1.6,3.2,2.4c-0.1,0.5-0.2,0.9-0.3,1.4c-0.3,2.1,0.5,3.6,2.5,4.3c3,1.1,6.5-0.4,9.6,0.2c3.3,0.7,6,2.5,8.3,4.9
				C386,306.6,386,306.5,386.1,306.5z M379.8,253.4c0.1-0.5-0.3-1-0.9-0.4c-2.7,2.6-7.3,0.4-7.2-3.2c2.4-1,5-1.8,7.6-2.2
				c1.4-0.2,2.9-0.7,3,1.1C382.5,250.5,381.2,252.3,379.8,253.4z M387.4,235.7c0,0.2,0.2,0.2,0.3,0.2c0.7,1.2,1.3,2.5,2,3.7
				c0.1,0.2,0.1,0.4,0.2,0.5c-0.5,0.1-0.9,0.3-1.4,0.7c-1.1,1-1.4,2.2-1.3,3.5c-0.8-0.8-1.3-1.9-1.7-3c-0.4,0.2-0.9,0.3-1.3,0.3
				c0.6,1.1,1.2,2.2,1.8,3.1c-0.3,0.1-0.6,0.1-0.9,0.2c-0.3-0.5-0.6-1-0.8-1.6c-0.4-1.1-0.6-2.2-0.8-3.4c0.1,0,0.2-0.1,0.3-0.2
				c0.6-0.8,1.3-1.6,1.9-2.4c0.3-0.4,0.6-0.8,0.9-1.2C386.6,235.8,387.2,234.9,387.4,235.7z M366.6,230.1c-0.3,0.4-0.1,0.9,0.4,0.5
				c0.2-0.2,0.4-0.4,0.6-0.5c0.1,0,0.2,0,0.3,0c0.3,0,0.9-0.6,0.9-1c0.8-0.7,1.7-1.2,2.8-1.3c0.3,0.1,0.6,0.2,1,0.3c0,0,0,0,0,0
				c-0.5,0.7,0.1,1.2,0.6,0.5c0.7-0.8,1.5-1.3,2.4-1.5c0.8-0.1,1.6,0,2.4,0.2c-2,1.4-3.8,3.3-5.4,5.2c0.3-0.7,0.7-1.3,1.2-1.9
				c0.6-0.8-0.4-1.2-0.9-0.5c-0.9,1.2-1.7,2.5-2,3.9c-0.2,0.1-0.4,0.2-0.4,0.4c-0.7,1.5-1.6,2.8-2.8,3.9c-0.5-1.9-0.5-3.8,0.1-5.8
				c0.3-0.9-1.1-0.2-1.3,0.3c-0.6,1.5-0.8,3.2-0.5,4.8c-1.6-1.1-2.4-3.2-1.9-5.1c0.1-0.5-0.2-0.5-0.6-0.3
				C364.1,230.9,365.3,230.3,366.6,230.1z M360.7,234.1c0.1-0.2,0.2-0.3,0.3-0.5c0,0,0,0,0,0c0.2-0.2,0.6-0.3,0.9-0.4
				c0,0,0.1,0,0.2-0.1c0,0,0,0.1,0,0.1c-0.1,0.5,0.3,0.4,0.6,0.2c-0.4,1.8,0.2,3.7,1.6,4.9c-1.6-0.4-2.5-2.2-2.4-3.8
				c0-0.4-0.4-0.3-0.6-0.2c-0.1,0-0.1,0.1-0.2,0.1c-0.1-0.1-0.1-0.1-0.2-0.2c-0.1,0.1-0.2,0.3-0.3,0.4
				C360.6,234.4,360.6,234.2,360.7,234.1z M358.4,243.3c0.2-1.6,0.6-3.2,1.1-4.6c0.2-0.2,0.3-0.3,0.5-0.4c0.3-0.2,0.6-0.7,0.8-1.1
				c0.5,1.1,1.6,2,3,2.2c0.3,0.1,0.8-0.5,0.8-0.8c0.5,0.3,1,0.6,1.6,0.7c0.1,0.2,0.1,0.4,0.2,0.6c0.2,0.5,0.8,0,1-0.2
				c1.3-1.3,2.4-2.8,3.2-4.4c0.1,0.6,0.9,0.1,1.2-0.2c1.9-2.4,4.1-4.4,6.3-6.5c0,0.1-0.1,0.3-0.1,0.4c1,0.1,2,0.3,2.9,0.6
				c0.1,0,0.1,0,0.2,0c0.6,0.3,1.1,0.6,1.6,1c0.5,0.4,0.9,0.8,1.3,1.2c-0.1,0-0.2,0-0.3,0c0.2,0.1,0.4,0.3,0.7,0.4
				c0.7,0.7,1.3,1.5,2,2.2c0,0,0.1,0.1,0.1,0.1c-0.1,0.1-0.2,0.2-0.3,0.3c-1.2,1.2-2.2,2.9-3.1,4.3c-0.2-0.4-0.8,0.2-0.8,0.5
				c-0.3,1.9,0.1,4,1,5.9c-0.2,0.1-0.4,0.1-0.7,0.2c-0.1,0-0.1,0.1-0.2,0.1c-4,0.4-7.7,1.6-11.3,3.3c-0.1,0.1-0.3,0.2-0.4,0.4
				c-0.9-1-2.4-0.7-3.3,0.2c-0.9,0.2-1.8,0.4-2.7,0.6c0.2-0.3,0.2-0.6-0.3-0.6c-1.5-0.1-3.1,0.1-4.6,0.3c-0.1,0-0.3,0.1-0.4,0.2
				c-0.1-0.4-0.2-0.9-0.3-1.4c0-0.2,0-0.3,0-0.5c0,0-0.1,0.1-0.1,0.1C358.8,246.6,358.5,244.9,358.4,243.3z M361.1,251.2
				c-0.2,0.1-0.5,0.2-0.7,0.3c-0.1-0.1-0.1-0.1-0.3-0.2c0,0,0,0-0.1,0c0,0,0,0,0-0.1C360.4,251.2,360.7,251.2,361.1,251.2z
				 M359.8,253.2c0.1-0.1,0.2-0.3,0.2-0.4c2.3-0.1,4.7-1,6.9-1.6c0.1,1.2,0.1,2.4,0.1,3.7c-0.2,0-0.4,0.2-0.5,0.3
				c-1.3,1.4-2.8,2.7-4.8,2.2C359.9,257.1,357.8,254.8,359.8,253.2z"/>
			<path d="M355.8,320.6c-5.7,0.2-10.5-3.1-12.2-8.8c0-0.1-0.1-0.1-0.1-0.2c0.2-1.2,0.4-2.4,0.5-3.5c0.4-1.2,0.5-2.5,0.3-3.8
				c-0.2-1.2-1.5,0.2-1.7,0.6c-0.3,0.7-0.5,1.4-0.4,2.1c-0.1,0-0.1,0-0.2,0.1c-0.4,2.1-0.8,4.2-1.1,6.2c0.3,0.3,0.5,0.6,0.6,1.1
				c0.2,0.5,0.4,1,0.6,1.5c0.1,0.2,0.3,0.5,0.4,0.7c0.2-0.7,0.3-1.3,0.5-2c1.3,4.5,5.7,7.8,10.3,8
				C354,321.9,354.8,321.2,355.8,320.6z"/>
		</g>
		<g>
			<path d="M408.8,258.1c-2.8-3-8-3.1-11.5-1.5c-0.2,0.4-0.5,0.8-0.9,1c-0.2,0.5-0.1,1,0.6,0.8c4.1-1.1,6.8-0.2,10.4,1.6
				c0.1,0.1,0.3,0.1,0.4,0c0.8,1.7,0.9,3.5,0.7,5.4c-0.2,1.3,1.5,0.1,1.7-0.6c0.5-2.2,0-4.4-1.3-6.2
				C409,258.4,408.9,258.2,408.8,258.1z"/>
			<path d="M427.3,256.3c-2.6-3.4-8.4-2.8-10.7,0.7c-0.5,0.7,0.1,1.2,0.8,0.7c2.5-2.2,6-2,8.3,0.5
				C426.3,258.9,427.8,257.1,427.3,256.3z"/>
			<path d="M405.4,262.7c0-0.2,0-0.4-0.2-0.5c-0.1-0.1-0.2-0.1-0.3-0.2c-0.2-0.2-0.4-0.3-0.7-0.5c-0.4-0.2-0.8,0-1.1,0.2
				c-0.3,0.3-0.8,0.8-0.7,1.3c0,0.2,0.1,0.4,0.2,0.5c0.1,0.2,0.2,0.2,0.4,0.4c0.1,0.1,0.3,0.1,0.5,0c0.3,0.1,0.5,0.2,0.8,0.2
				C404.8,264,405.5,263.3,405.4,262.7z"/>
			<path d="M419,261c-0.1-0.1-0.2-0.2-0.3-0.3c-0.3,0-0.5-0.1-0.8,0c-0.4,0.1-0.7,0.4-1,0.8c-0.3,0.4-0.6,1.3,0.1,1.5
				c0,0.1,0.1,0.3,0.3,0.3c0.6,0.2,1.2-0.5,1.5-0.9C419.1,262.1,419.2,261.5,419,261z"/>
			<path d="M431.3,246.6c0.3-0.3,0.5-0.7,0.5-1c-0.4-6-8-11-13.1-12.9c-6.6-2.4-13.3-1.5-19.5,1.4c-3.6,0.3-5.3,3.7-6,7
				c-1.3,5.8-1.6,11.9-1.3,17.8c-0.2-0.2-0.5-0.4-0.8-0.6c-0.7-0.5-1.5,0.6-1.7,1.2c-1,3.5-1.5,7.8-0.3,11.3
				c0.9,2.5,3.3,4.1,5.7,2.5c0.8-0.5,1.3-2.6-0.1-1.7c-3.2,1.8-4.1-3.7-4.2-5.6c0-0.3,0-0.5,0-0.8c0.5,0.4,1,0.9,1.5,1.5
				c0.1,0.1,0.2,0.3,0.3,0.4c-0.1,0.1-0.1,0.2-0.1,0.3c-0.7,1.3,0,3.2,1.6,3.2c0.6,0,1.7-1.4,0.9-1.6c-0.2,0-0.3-0.1-0.5-0.2
				c0.1-0.1,0.2-0.2,0.3-0.2c0.3-0.3,0.5-0.7,0.4-1.1c-0.5-1.7-2.2-2.9-3.8-3.6c-0.2-0.1-0.4,0-0.5,0.2c0-1,0.2-2.1,0.3-3.1
				c0.9,0.6,1.7,1.4,2.3,2.5c0.3,0.6,1.5-0.5,1.2-1c-0.3-0.6-0.6-1.2-1-1.7c0-0.1,0.1-0.2,0.1-0.3c0-0.5,0-1,0-1.5
				c0.2-0.1,0.4-0.2,0.5-0.3c0.3-0.3,0.5-0.7,0.4-1.1c-0.1-0.4-0.5-0.8-0.8-1.2c0-0.5,0-1,0.1-1.5c0.1,0,0.2,0.1,0.3,0.1
				c0.7,0.3,1.9-1.4,1.1-1.7c-0.2-0.1-0.4-0.2-0.7-0.2c0,0,0,0-0.1,0c0.1-0.1,0.1-0.1,0.2-0.2c0.2-0.2,0.4-0.8,0.1-1
				c-0.2-0.2-0.4-0.3-0.7-0.4c0-0.1,0-0.3,0-0.4c0.3-0.2,0.5-0.4,0.7-0.7c0.1-0.2,0.3-0.7,0-0.9c-0.1-0.1-0.3-0.1-0.4-0.1
				c0.6-0.5,1-1.6,0.2-1.6c0,0-0.1,0-0.2,0c0-0.2,0-0.4,0.1-0.6c0.2,0.1,0.4,0.1,0.7,0.1c0.5,0,1.4-0.9,1.1-1.5
				c-0.3-0.6-1-0.6-1.6-0.6c0-0.2,0-0.3,0.1-0.5c0.1,0,0.1,0.1,0.2,0.1c0.2,0.1,0.5-0.1,0.6-0.1c0.2-0.1,0.5-0.4,0.6-0.6
				c0.2-0.3,0.3-0.6,0.1-0.9c0.2-0.3,0.2-0.7,0-0.9c-0.3-0.2-0.5-0.4-0.8-0.6c-0.1,0-0.1-0.1-0.2-0.1c0.1-0.2,0.1-0.5,0.2-0.7
				c0.1,0.1,0.3,0.2,0.4,0.3c0.2,0.2,0.4,0.1,0.7,0c-0.2,0.3-0.2,0.7,0.2,0.8c0.1,0,0.2,0.1,0.3,0.1c0.4,0.1,0.8-0.3,1-0.5
				c0.1-0.1,0.3-0.4,0.3-0.7c0.5-0.4,0.8-1.2,0.2-1.2c-0.3,0-0.6,0.3-0.8,0.7c-0.1,0-0.2,0-0.4,0.1c0.2-0.3,0.3-0.7,0-0.8
				c-0.3-0.2-0.7-0.5-1-0.7c0.1-0.2,0.2-0.3,0.2-0.5c0.2,0.3,0.5,0.6,0.7,0.9c0.5,0.8,2-0.8,1.4-1.3c-0.3-0.3-0.6-0.6-0.9-0.9
				c0.4-0.3,0.8-0.5,1.3-0.6c0,0.1,0,0.2,0,0.2c0.2,0.7,0.6,1.6,1.4,1.8c0.6,0.2,1.5-0.9,1.3-1.4c-0.1-0.3-0.3-0.6-0.5-0.9
				c-0.2-0.3-0.3-0.6-0.4-0.9c0.2-0.1,0.4-0.1,0.7-0.2c0,0.1,0,0.3,0,0.4c0.3,0.5,0.5,1.2,0.9,1.5c0.2,0.1,0.4,0.1,0.6,0
				c-0.1,0.1-0.2,0.2-0.3,0.3c-0.2,0.2-0.7,1-0.2,1.2c0.2,0.1,0.4,0.2,0.6,0.3c-0.2,0.1-0.3,0.2-0.4,0.3c-0.2,0.2-0.6,0.8-0.2,1.1
				c0.4,0.3,0.9,0.9,1.5,1c0.6,0.1,1.5-0.8,1.2-1.4c-0.2-0.4-0.6-0.6-1-0.8c0.2-0.1,0.5-0.4,0.6-0.5c0.2-0.2,0.5-0.9,0.2-1.1
				c-0.3-0.2-0.6-0.4-0.9-0.5c-0.2-0.1-0.5-0.1-0.7,0c0.4-0.3,0.7-0.8,0.6-1.1c-0.1-0.5-0.3-0.8-0.5-1.2c0.4-0.1,0.9-0.2,1.3-0.3
				c0.2,0.5,0.4,1.1,0.7,1.6c0,0.1,0.1,0.1,0.1,0.1c-0.1,0.1-0.2,0.1-0.2,0.2c-0.2,0.2-0.7,0.9-0.4,1.2c0.3,0.4,0.5,0.9,1,1.1
				c0.7,0.4,1.6-0.7,1.4-1.4c-0.1-0.5-0.5-0.9-0.8-1.3c0-0.1-0.1-0.1-0.2-0.1c0,0,0,0,0.1,0c0.3-0.2,0.6-0.7,0.6-1.1
				c0-0.2-0.1-0.4-0.2-0.6c0.5,0,1-0.1,1.6-0.1c0,0.1,0,0.2,0,0.2v0.5c0,0.5,0.6,0.5,0.9,0.3c0.4-0.2,0.7-0.6,0.8-1
				c0.8,0,1.5,0.1,2.3,0.2c0,0,0,0,0,0.1c0,0.1-0.1,0.3-0.1,0.4c-0.1,0.3-0.1,0.8,0.4,0.8c0.5,0,1-0.5,1.1-0.9c0,0,0-0.1,0-0.1
				c0.5,0.1,0.9,0.2,1.3,0.3c-0.3,0.6-0.7,1.2-0.7,1.8c0,0.3,0.2,0.4,0.4,0.4c0.1,0,0.1,0,0.2,0c0,0,0,0,0,0.1
				c0,0.1-0.1,0.2-0.1,0.3c-0.2,0.3-0.4,1,0.2,1.1c0.5,0.1,1-0.5,1.2-0.9l0.1-0.3c0.1-0.3,0.1-0.8-0.3-0.8c-0.1,0-0.2,0-0.3,0
				c0.3-0.3,0.5-0.7,0.6-1.1c0.6,0.2,1.2,0.4,1.8,0.7c-0.2,0.2-0.3,0.4-0.5,0.6c-0.2,0.3-0.4,0.9,0.1,1.1c0.5,0.1,1-0.4,1.2-0.7
				c0.1-0.2,0.2-0.3,0.3-0.5c0.3,0.2,0.6,0.4,1,0.5c-0.4,0.5-0.9,1.1-0.8,1.7c0,0.3,0.2,0.4,0.4,0.4c-0.2,0.4-0.4,0.7-0.6,1.1
				c-0.1,0.3-0.1,0.7,0.3,0.8c0.4,0,0.8-0.4,1-0.7c0.2-0.3,0.4-0.6,0.5-0.9c0.2-0.3,0.4-0.9-0.1-1c0.2-0.2,0.3-0.5,0.4-0.7
				c0.4,0.2,0.8,0.5,1.1,0.8c-0.3,0.3-0.6,0.7-0.8,1.2c0,0.2,0,0.3,0,0.4c-0.2,0.1-0.4,0.3-0.5,0.4c-0.3,0.3-0.5,0.5-0.7,0.8
				c-0.2,0.3-0.3,0.8,0,0.9c0.4,0.2,0.8-0.2,1-0.4c0.3-0.3,0.4-0.6,0.6-0.9c0.1-0.2,0.2-0.5,0.2-0.7c0,0,0,0,0,0
				c0.5-0.2,0.8-0.6,1.1-1c0.3,0.2,0.6,0.5,0.9,0.8c-0.1,0.1-0.3,0.3-0.4,0.5c-0.1,0-0.2,0.1-0.4,0.1c-0.5,0.3-1,0.5-1.4,1
				c-0.4,0.4-0.6,1.4,0.3,1.2c0.5-0.1,0.9-0.5,1.2-0.8c0.2-0.1,0.4-0.3,0.5-0.6c0.3,0,0.7-0.3,0.9-0.5c0,0,0-0.1,0.1-0.1
				c0.1,0.1,0.3,0.3,0.4,0.4c-0.5,0.2-0.9,0.8-1,1.3c-0.1,0.6,0.3,0.8,0.8,0.7c0.4-0.1,0.8-0.2,1.2-0.5c0.1-0.1,0.2-0.1,0.2-0.2
				c0.2,0.2,0.3,0.4,0.5,0.7c-0.1,0-0.2,0.1-0.3,0.1c-0.5,0.2-0.9,0.6-1,1.2c-0.1,0.5,0.2,0.7,0.7,0.6c0.5-0.2,1.1-0.3,1.6-0.6
				c0.1,0.2,0.3,0.4,0.4,0.6c-0.4,0.2-0.8,0.6-0.8,1.1c-0.1,0.5,0.2,0.7,0.7,0.6c0.3-0.1,0.7-0.2,1-0.4c0,0,0.1,0,0.1-0.1
				c0.1,0.1,0.1,0.1,0.2,0.2c0,0.2,0,0.5,0,0.7c-0.2,0-0.4,0.1-0.7,0.1c-0.5,0.1-1,0.5-1.2,1c-0.1,0.4-0.1,0.9,0.4,0.9
				c0.5,0,1-0.1,1.5-0.2c0,0.2,0,0.4,0,0.7c-0.4-0.3-1,0.1-1.3,0.4c-0.2,0.3-0.7,1-0.3,1.3c0.5,0.4,1.1,0.4,1.6,0.1
				c0,0.2,0,0.3,0,0.5c-0.5,0.2-0.9,0.7-1,1.1c-0.2,0.5-0.1,1,0.5,1h0.5c0.1,0,0.2,0,0.3,0c0,0.2,0.1,0.3,0.1,0.5
				c-0.5,0.5-0.7,1.3,0,1.3c0.1,0,0.1,0,0.2,0c0.1,0.5,0.2,1,0.4,1.5c0,0,0,0,0,0c-0.2,0-0.3,0.1-0.5,0.2c-0.4,0.1-0.8,0.5-0.8,1
				c-0.1,0.4,0.2,0.6,0.6,0.5c0.3-0.1,0.6-0.1,0.9-0.2c0.4-0.1,0.7-0.5,0.8-0.9c0-0.2,0-0.4-0.1-0.6c0.4-0.3,0.7-0.9,0.7-1.1
				C432.2,252.9,431.8,249.7,431.3,246.6z"/>
			<path d="M434.3,261.9c-0.4-0.2-0.8,0.2-1,0.4c-0.8,0.8-1.4,1.6-2.1,2.4c-0.2,0.3-0.6,0.9-0.2,1.2c0.3,0.2,0.6,0,0.9-0.2
				c0.1,0.9,0,1.6-0.3,2.5c-0.1,0.4,0.2,0.6,0.5,0.6c0.5-0.1,0.8-0.5,1-0.9c0.6-1.1,0.5-2.5,0.1-3.7c0.4-0.4,0.8-0.9,1.1-1.4
				C434.5,262.6,434.7,262,434.3,261.9z"/>
			<path d="M404.5,275.2c-5.7-0.5-5.9-6.5-5.7-10.9c0-0.9-1.4,0.2-1.5,0.7c-0.5,3-0.9,6.3,0.6,9.1c1.2,2.1,3.2,3.5,5.6,3.1
				C404.1,277,405.5,275.3,404.5,275.2z"/>
			<path d="M428.2,263.9c-0.6-0.9-2.2,0.7-1.8,1.5c0.8,1.4,1.2,3.2,0.5,4.8c-0.8,1.7-2.8,2.3-4.5,2.2c-0.4,0-1.2,0.9-1.1,1.4
				c0.1,0,0.3,0,0.4,0.1c0.3,0.1,0.6,0.2,0.9,0.3C427.4,274.1,431.1,268.1,428.2,263.9z"/>
			<path d="M420,268.8c-0.7-0.3-2.2,1.5-1.4,1.9c1.7,1.1-5.9,3.5-6.5,3.5c-2.1,0.1-7.3-1.7-4.9-4.7c0.6-0.7,0.2-1.8-0.7-1
				c-1.4,1.2-2.3,3.2-1.5,5c1.2,2.8,4.8,3.3,7.5,2.7c2.4-0.5,5.8-1.7,7.6-3.4C421.3,271.7,421.9,269.6,420,268.8z"/>
			<path d="M422.9,279.4c-4.9,2.9-9.7,2.9-15.1,2c-0.7-0.1-2,1.4-1.1,1.8c0.1,0.1,0.2,0.1,0.3,0.1c-0.2,0.3-0.2,0.6-0.2,0.8
				c2.3,6.2,11.1,6.5,14,0.6c0.4-0.7-0.5-1-0.9-0.5c-1.8,1.8-3.8,3.1-6.5,2.6c-1.8-0.3-3.3-1.4-4.3-2.8c4.7,1,9.9-0.5,13.9-2.9
				C423.9,280.5,424.3,278.6,422.9,279.4z"/>
			<path d="M483.8,352.7c-8.1-9.5-14.7-19.7-21.4-30.2c0.4-0.6,0.5-1.2,0-1.4c-3.9-2.1-8.3-3.6-12.4-5.2c-2.2-0.9-4.4-1.7-6.6-2.5
				c-1-0.4-1.9-0.7-2.9-1.1c-0.4-0.1-4.5-1.9-4.7-1.8c0.5-0.3,1.2-2,0.1-1.5c-0.1,0.1-0.3,0.1-0.4,0.2c-0.9-4.3-3-7.8-7.6-8.8
				c-0.2-1.7-0.3-3.5-0.5-5.2c0-0.5-0.5-0.4-0.9,0c0.6-1.5,1.1-3.2,1.3-4.8c0.3-0.3,0.6-0.8,0.7-1.1c0.2-0.7-0.3-0.7-0.7-0.4
				c0,0,0,0,0,0c1.7-2.2,3.5-4.9,4.3-7.6c0.8-2.4,0.6-5.5,0.1-8.2c0.8-0.3,1.6-0.9,2.1-1.5c2.1-2.2,3-5.5,2.8-8.5
				c-0.1-1.8-0.7-4.5-2.6-5.1c-0.8,0.3-1.8,0.3-2.6-0.2c0,0,0,0,0,0c-0.1,0.1-0.3,0.3-0.4,0.4c0,0-0.1,0-0.1,0.1
				c0,0.2,0,0.4,0.2,0.5c-1,0.9-1.7,2.3-2.1,3.5c-0.5,1.2,1.1,0.6,1.4-0.1c2.1-5.3,4.3-0.1,4.4,2c0.1,2.1-0.8,7-3.5,7.1
				c-0.1-0.4-0.4-0.3-0.7-0.1c-0.3-0.1-0.5-0.2-0.8-0.3c-0.8-0.4-2.1,1-1.5,1.7c0.4,0.4,0.8,0.6,1.2,0.7c-0.1,2.9,0.7,5.7-0.2,8.5
				c-0.8,2.5-2.4,4.7-3.2,7.2c0,0.1,0,0.1,0,0.2c-0.3,0.3-0.6,0.7-0.6,0.9c-0.3,2-0.6,3.9-1.4,5.7c-0.6,0.1-1.2,0.3-1.9,0.4
				c-0.3-0.6-1.6,0.4-1.9,0.9c-0.5,1.3-2.2,1.3-3.2,0.6c-0.7-0.5-1.7,0.5-1.9,1.1c-0.6,0.6-1.1,0.6-1.7,0c-0.3-0.3-0.5-0.7-0.6-1.1
				c-0.1-0.5-0.7-0.2-1.1,0.2c0-0.7-0.8-0.2-1.3,0.3c-0.1,0-0.2,0-0.3,0.1c0-0.2-0.3-0.4-0.9-0.6c-0.2-0.3-0.5-0.5-0.7-0.7
				c-0.4-0.3-0.7-0.5-1.2-0.5c-0.5-0.1-0.8,0.2-1.3,0.2c-0.1,0-0.1,0.1-0.2,0.1c-0.3-0.4-0.7-0.8-1-1.2c0-0.1,0-0.2,0-0.3
				c-0.3-1-0.4-1.7-1.3-2.4c-0.4-0.3-0.8-0.5-1.3-0.7c0,0-0.2-0.1-0.6-0.3c0-0.1,0-0.2,0-0.2c0-0.4-0.3-0.4-0.7-0.2
				c-0.3-0.2-0.7-0.5-0.9-0.7c0.3-0.3,0.6-0.9,0.6-1.3c0.3-0.4,0.4-0.8-0.1-0.9c-0.3,0-0.7,0.1-0.9,0.2c-0.1-0.6,0.2-1.7,0.2-1.8
				c0.1-0.6,0-1.2-0.2-1.7c-0.2-0.5-0.6-0.9-0.9-1.3c-0.1-0.2-1.3-1.7-1.3-1.7c0.5,0,1.6-1.5,0.8-1.6c-0.1,0-0.3,0-0.4,0
				c0.3-0.4,0.4-0.8,0.1-1.1c-1.7-1.6-2.5-3.5-1.4-5.6c0.4-0.9-0.7-0.7-1.1-0.3c-1.9,2.1-1.8,6.4,1,7.7c-0.2,0.2-0.4,0.5-0.6,0.8
				c-0.7,1.2-0.3,2.4,0.6,3.4c0.8,0.9,1.4,1.4,1.2,2.7c-0.1,0.6-0.4,1.2-0.2,1.9c0.1,0.5,0.4,0.8,0.8,1c0,0.2,0,0.4,0,0.7
				c0.2,1.2,1.1,1.7,2,2.2c0,1.4,0,2.8,0,4.2c-6.8,1.8-12.6,7.1-16,13.2c-0.1,0-0.1,0-0.2,0c-8.2,1.3-16.5,4.9-23.6,9.1
				c-0.2-0.6-1.2-0.3-1.7,0.3c-0.5,0.5-0.9,1.1-1.3,1.7c0.7,0.3,1.3,0.7,2,1c0.2-0.4,0.4-0.9,0.6-1.3c7.6-3.4,15.3-6,23.2-8.7
				c-0.5,1.2-1,2.4-1.4,3.6c-0.6,2,0.1,2.5,1.3,4.3c3.2,5,6.3,10,9.6,14.9c0.6,0.9,2.2-0.6,2-1.4c-0.8-4-0.9-7.9-0.3-11.8
				c4.8,7.5,11.8,14.5,20.2,17.6c0.7,0.3,2.2-1.5,1.5-2c-8.7-5.1-15.9-10.5-21-19.5c-0.6-1-1.8,0.6-2,1.2c-0.8,3.3-1.1,6.6-1,9.9
				c-1.2-1.9-2.4-3.9-3.6-5.8c-2-3.3-5.2-6.4-3.5-10.4c2.7-6.2,7.6-10.5,13.5-13.4c-0.2,0.2-0.4,0.4-0.4,0.6
				c-1.3,7.5,1.7,13.6,6,19.6c4.5,6.3,8.8,13.2,13.9,19c0.2,0.2,0.5,0.2,0.8,0c0,0.1-0.1,0.3-0.1,0.4c-0.3,0.9,1.2,0.3,1.3-0.3
				c1.8-6,4.3-11.7,7.2-17.2c1.4,2.7,2.9,5.3,4.4,7.9c0.6,1.1,2.1-0.6,2.2-1.3c0.7-3.8,1.9-9.9,1.7-15.6c0.4,0.3,0.9,0.6,1.3,0.8
				c6.9,3.2,14.1,6.6,21.3,8.9c3.9,6.3,5.2,12.8,6.2,20c0.1,1,1.4-0.3,1.4-0.8c0.2-3.8-0.4-7.7-1.7-11.3c4.9,8.5,11,16.4,17.4,23.6
				C482.7,355.6,484.6,353.6,483.8,352.7z M400.9,299.6c0,0.4,0,0.8,0.1,1.2c-0.2,0.1-0.4,0.3-0.6,0.4c-0.1,0.1-0.1,0.1-0.2,0.2
				c0-0.3,0-0.6,0.1-0.9c0.1-0.4-0.1-0.5-0.2-0.5C400.3,299.8,400.6,299.7,400.9,299.6z M432.8,326.1c-1.2-2.2-2.5-4.4-3.7-6.6
				c-0.5-0.8-1.6,0.1-1.9,0.6c-2.9,5.6-5.2,11.4-7.2,17.3c-3.5-5.9-8-11.3-12-16.9c-3.8-5.3-7.9-11.1-7.9-17.7c0.1,0,0.3,0,0.4,0
				c0.3-0.1,0.5-0.2,0.7-0.4c0.1,0.3,0.1,0.7,0.2,1c0.2,0.8,1.4-0.5,1.5-0.9c0.1-0.5,0.1-1,0.1-1.5c0.2-0.2,0.3-0.5,0.3-0.7
				c0-0.2-0.1-0.3-0.2-0.4c0-1.7-0.2-3.4-0.3-5c0.1,0.1,0.2,0.2,0.3,0.3c0.8,1,0.3,1.6,0.6,2.6c0.2,0.7,0.6,1.3,1.2,1.5
				c1.4,3,3.4,5.4,6.2,7.4c0.7,0.5,1.6,0.1,2.2-0.6c0.1,0,0.1,0,0.2-0.1c0.6-0.3,1.2-0.7,1.7-1.1c0.3,0.4,0.9,0.5,2-0.3
				c0.3-0.2,0.6-0.4,0.9-0.7c-0.5,1.2-1.1,2.4-1.8,3.6c-1.5,2.6,1.5,2.7,2.7,0.7c0.2-0.4,0.5-0.8,0.7-1.2c1.6-2.8,3.3-5.6,4.9-8.4
				c0.3-0.4,0.4-0.8,0.4-1.1c0.6-0.1,1-0.7,1.2-1.1c0.1-0.1,0.1-0.2,0.2-0.4c0.1,1.7,0.2,3.3,0.3,5c-0.2,0.3-0.4,0.7-0.4,0.9
				c-0.3,0.2-0.5,0.5-0.6,0.7c-1,10.3-3.6,20.1-7.2,29.8c-0.6,1.5,1.3,0.8,1.7-0.1c3.9-8.9,6.1-18.5,6.8-28.1c0.4,0.2,1.2-0.4,1.4-1
				C435.2,307.3,434.1,318.1,432.8,326.1z"/>
			<path d="M409.1,234.8c-0.5,0.2-0.8,0.6-1,1.1c-0.1,0.3-0.2,0.6-0.3,0.9c-0.1,0.4,0.3,0.7,0.6,0.6c0.5-0.2,0.8-0.6,1-1.1
				c0.1-0.3,0.2-0.6,0.3-0.9C409.8,234.9,409.4,234.7,409.1,234.8z"/>
			<path d="M412.3,235.8c-0.1,0-0.3,0.1-0.4,0.2c0.1-0.4-0.3-0.6-0.7-0.5c-0.5,0.2-0.9,0.7-1,1.1c0,0.2-0.1,0.3-0.1,0.5
				c-0.1,0.4,0.2,0.7,0.7,0.6c0.1,0,0.3-0.1,0.4-0.2c0,0.4,0.3,0.6,0.7,0.5c0.5-0.2,0.9-0.6,1-1.1c0-0.2,0.1-0.3,0.1-0.5
				C413.1,236,412.7,235.7,412.3,235.8z"/>
			<path d="M416.6,237c-0.4-0.2-0.9,0.3-1.1,0.6l-0.4,0.5c-0.2,0.2-0.3,0.7,0,0.9c0,0,0,0,0.1,0c-0.4,0-0.8,0.4-0.9,0.7
				c0,0.1-0.1,0.2-0.1,0.3c-0.2,0.3-0.4,0.9,0.2,1c0.5,0.1,1-0.5,1.1-0.9c0-0.1,0.1-0.2,0.1-0.3c0.1-0.3,0.1-0.6-0.2-0.7
				c0.3,0,0.5-0.3,0.7-0.4c0.1-0.2,0.3-0.3,0.4-0.5C416.7,237.8,417.1,237.2,416.6,237z"/>
			<path d="M401.2,239.7c-0.3-0.5-0.7-0.8-1.1-1.2c-0.6-0.5-1.7,0.9-1.2,1.4c0.3,0.4,0.6,0.8,1,1.1c0.3,0.2,0.7,0,0.9-0.3
				C401.1,240.5,401.4,240,401.2,239.7z"/>
			<path d="M407.9,239.3c-0.5-0.3-1-0.6-1.3-1c-0.3-0.3-0.8,0.1-1,0.3c-0.2,0.2-0.6,0.8-0.4,1.1c0.3,0.6,0.8,1.1,1.6,1.2
				c0.4,0.1,0.8-0.2,1.1-0.6C407.9,240.1,408.2,239.5,407.9,239.3z"/>
			<path d="M410.3,238.7c-0.1-0.3-0.2-0.7-0.3-1c-0.1-0.5-0.8-0.1-1,0.1c-0.4,0.3-0.6,0.8-0.5,1.2c0.1,0.4,0.2,0.7,0.2,1.1
				c0.1,0.5,0.9,0.1,1.1-0.1C410.2,239.7,410.5,239.2,410.3,238.7z"/>
			<path d="M412.9,238.2c-0.3-0.2-0.8,0.2-1,0.4c-0.4,0.5-0.9,1.3-0.7,2c0.1,0.4,0.4,0.4,0.7,0.3c0.4-0.2,0.7-0.6,0.8-1
				c0.1-0.3,0.1-0.5,0.2-0.8C413.1,238.9,413.2,238.4,412.9,238.2z"/>
			<path d="M417.7,238.9c-0.5-0.1-1,0.4-1.2,0.7c-0.1,0.1-0.2,0.3-0.2,0.4c-0.2,0.3-0.4,0.9,0.1,1.1c0.5,0.1,1-0.4,1.2-0.7
				c0.1-0.1,0.2-0.3,0.3-0.4C418,239.7,418.2,239,417.7,238.9z"/>
			<path d="M485.9,377c-2.2-2.3-4.6-4.2-6.2-7c-0.4-0.7-1.7,0.6-1.4,1.2c1.6,2.7,3.4,5.8,6.2,7.4C485.2,379.1,486.5,377.7,485.9,377
				z"/>
			<path d="M488.4,375.6c-1.8-3.3-4.3-6.2-6.5-9.2c-0.5-0.7-1.9,0.6-1.5,1.2c2.1,3.1,3.9,6.6,6.4,9.5
				C487.4,377.8,488.7,376.3,488.4,375.6z"/>
			<path d="M498.6,384.6c-0.2-0.2-0.5-0.1-0.7,0.1c-0.5-1-1-2-1.5-2.9c-0.6-1.1-1.1-2.4-1.8-3.4c1-1.9,1.6-3.9,1.7-6
				c0.1-1-1.2-0.1-1.6,0.4c-1.4-6.3-4.7-13.7-9.1-18.6c-0.5-0.5-1.5,0.7-1.3,1.3c0,0.1,0.1,0.2,0.1,0.3c-0.1,0-0.1,0.1-0.2,0.1
				c-2.2,2.4-2.8,6.5-2.9,9.6c0,0.9,1.4-0.2,1.4-0.8c0.1-1.8,0.4-3.5,1.1-5.1c0.3-0.9,0.8-1.7,1.2-2.5c1.3,2.5,2.7,5,3.9,7.6
				c1.4,3.1,2.4,6.4,3.7,9.5c0.2,0.5,0.8,0.3,1.3-0.2c-1.4,3.5-2.9,6.6-5.8,9.2c-3,2.7-6.6,4.3-10.4,5.1c-2.7-0.9-5.3-1.9-7.7-3.7
				c-2.7-2.1-5.1-4.7-6.6-7.8c0.3,0,0.5,0,0.8,0c0.3,0.3,0.6,0.7,1,1c0.5,0.5,1.5-0.3,1.8-1.1c3.6-0.3,7.1-1.4,9.9-3.6
				c0.5-0.4,1.1-2.2-0.1-1.7c-3.8,1.4-7.1,2.7-10.9,3.3c-3.3-3.7-6.9-7.2-10.4-10.8c0.4-0.1,0.9-0.5,1-0.9c2.2-6.9,3-13.9,2.7-21.2
				c0-0.9-1.5,0.2-1.4,0.8c0.1,5.7-0.5,11.3-1.9,16.8c0.5-5,0.6-10.4-0.9-15c-0.3-0.8-1.4,0.6-1.4,1c-0.4,5.8-0.1,11.6-0.7,17.4
				c-0.2,0.3-0.2,0.6-0.1,0.8c-0.1,0.7-0.2,1.3-0.3,2c-0.5,2.9-1.1,5.8-2,8.6c-0.9,3.1-2.4,6.1-3,9.3c-0.3,1.5,1.6,0.4,1.9-0.1
				c0.1-0.2,0.2-0.3,0.3-0.5c-0.8,3.5-1.5,7.1-2.1,10.6c-1.1,6.9-2.3,14.2-2.1,21.2c0,1.1,1.7-0.2,1.8-0.8c1-7.2,1.2-14.5,2.2-21.7
				c0.6-4.5,1.4-9,2.3-13.5c1.6-4,2.6-8.4,3.2-12.6c2.5,2.9,5,5.9,7.6,8.8c-0.5,0.4-1,1.3-0.6,1.5c-0.2,0.3-0.3,0.6-0.2,0.8
				c1.7,3.7,4.4,7.4,7.8,10c-0.1,0.2,0,0.4,0.2,0.3c0,0,0,0,0,0c-3.1,3.6-4.5,8.3-5.5,13c-1.7,7.6-3.2,17-12.1,19.1
				c-0.8,0.2-1.9,2.4-0.7,2.2c15.5-2.5,12.6-23.3,19.5-33.6c2.3,1.4,4.9,2.4,7.8,2.5c0.3,0,0.7-0.3,1-0.7c0.1,0.1,0.2,0.2,0.3,0.3
				c0.7-0.6,1.6-0.9,2.7-0.9c-0.2-0.2-0.4-0.3-0.6-0.5c-0.1-0.1-0.2-0.1-0.3-0.2c4.4-1.6,8.6-4.8,11.3-8.7c0.4,1,0.8,1.9,1.2,2.9
				c0.8,1.7,1.5,3.6,2.4,5.2c0.2,0.4,0.7,0.3,1.1,0c0.7,4.3-3.1,8.5-5.6,11.9c-2.8,3.7-5.8,7.3-8.9,10.8
				c-5.2,5.8-10.9,11.2-16.8,16.3c0.9-0.1,1.9-0.2,2.8-0.2c6.8-5.8,13.1-12.3,18.8-19.2c3.4-4,6.8-8.2,9.6-12.7
				C500.1,392,501.4,388,498.6,384.6z"/>
			<path d="M369.1,327.7c-0.4-1.2-0.6-2.4-0.6-3.6c0-0.8-1.4,0.2-1.4,0.8c0,0.6,0,1.2,0.1,1.8C367.8,327,368.4,327.3,369.1,327.7z"
				/>
			<path d="M370.4,328.3c1,0.5,2,1,3,1.5c-0.9-1.6-1.7-3.2-2.4-5c-0.3-0.8-1.7,0.5-1.5,1.2C369.8,326.8,370.1,327.5,370.4,328.3z"/>
			<path d="M424.7,370.1c0.7-3.1-0.6-6.5-1.3-9.6c-1.3-6.6-2.4-13.4-4.4-19.9c-0.2-0.7-1.3,0.5-1.3,0.9c0.7,7.3,2.3,14.5,3.7,21.6
				c0.3,1.7,0.9,3.6,1,5.4c0.2,2.2-0.5,4.1-0.9,6.2c-0.7,3.2-1.2,6.5-1.6,9.8c-1.6,12.8-1.7,26.5,1.5,39.1c0.2,0.9,1.9-0.6,1.8-1.3
				c-1.7-14.3-2.7-28.2-0.4-42.5C423.3,376.5,424,373.3,424.7,370.1z"/>
		</g>
		<g>
			<path d="M246.1,423.4c-1.4-2.9-2.5-5.3-2.8-8.6c-0.3-3.2-0.1-6.3-0.6-9.5c-0.8-4.9-3.5-9.8-6-14.2c0.4-0.4,0.7-0.9,0.5-1.3
				c-6-9.4-3.8-21.1-8.2-31.1c-2.5-5.6-7.2-8.8-12.1-12.1c-6.6-4.3-13.1-8.8-19.9-12.8c-0.2-0.1-0.4-0.1-0.7,0
				c-0.7-3.5-2.2-7.1-5.7-8.2c0-0.5-0.1-1.1-0.1-1.6c4.9-0.3,6.8-7.2,7.9-11.2c0.8-3.1,1.6-6.1,2.4-9.2c0.1,0,0.3,0,0.5-0.2
				c3.2-2.2,6.3-4.5,9.3-6.8c0.4,0.1,1.1-0.1,1.5-0.7c4.3-5.9,8.3-14.4,8.1-21.9c-0.1-2.3-1-4.8-3.7-4.9c-1.1,0-2.1,0.4-2.8,1.1
				c-3.2,1-6.3,2.1-9.5,2.9c1.3-7.9-1.3-16.7-6.9-22.3c-0.3-0.3-0.7,0-1.1,0.4c-8.7-2.3-18.1,0.6-26.4,3.4
				c-5.8,2-12.3,5.8-13.3,12.2c-1.3-0.4-2.6-0.8-3.9-1.1c-0.1-0.4-9-2.2-13.5-2.8c-3.1-0.4-7-1.5-9.4,1.2c-2.3,2.5-1.6,6.5-1.1,9.5
				c1.4,8.7,5.3,16.4,11.2,22.8c-0.2,0.3-0.4,0.7-0.1,1c3.7,4.2,8.7,7,14.4,6.9c0.8,0,2-1.9,0.8-2c-1.4-0.1-2.8-0.3-4.2-0.6
				c1.6-1.2,3.4-2.1,5.1-3.1c0.5,0.3,1,0.5,1.6,0.6c0,0,0,0,0,0c0,0.1,0,0.3,0,0.4c-0.2,0-0.6,0.2-0.8,0.4c-0.4,0.2-0.8,0.4-1.2,0.6
				c-0.3,0.1-0.6,0.5-0.6,0.9c0,0.4,0.4,0.3,0.6,0.2c0.2-0.1,0.4-0.2,0.6-0.3c-0.1,3.4-0.2,6.8-0.3,10.1c-0.9-0.1-1.8-0.1-2.6-0.1
				c-0.8,0-1.7,1.1-1.7,1.9c0.3,5.8-5.7,8.4-9.3,11.9c-2.4,2.4-4,5.2-4.3,8.6c-0.8,9.2,6.7,16.1,8.8,24.5c0.2,0.9,1.7-0.5,1.8-0.8
				c1.2-3.8,3.1-7.2,5.8-10.1c1,1.1,1.5,2.3,1.3,4c0,0.3,0,0.6,0.3,0.7c5.4,1.7,10.9,3.5,16.5,4.8c0.3,0.3,0.5,0.5,0.8,0.8
				c0.3,0.3,0.9,0.1,1.3-0.4c0.6,0.1,1.3,0.2,1.9,0.3c0.7,0.1,2-1.4,1.1-1.8c-1.1-0.4-2.3-0.8-3.5-1.1c-5.9-6.4-10.7-13.5-15.2-20.9
				c-1-1.6-2-3.2-2.5-5c-0.8-3,1-5.1,1.4-7.9c0.1-1,0-2.1-0.5-2.9c0-0.7,0.1-1.3,0.1-2c0.2,1.3,0.3,2.6,0.6,3.8
				c0.2,1.1,1.8-0.3,1.7-1c-0.6-6.6-1-12.9-0.8-19.5c0,0,0,0,0,0c0.5,0,1.4-1.1,0.7-1.4c-0.6-0.2-1.1-0.5-1.6-0.8
				c0.2-0.4,0.2-0.8-0.3-0.6c-0.1,0-0.2,0.1-0.3,0.1c-0.7-0.5-1.3-1.2-1.8-2c0-0.2,0-0.4-0.2-0.4c-0.2-0.4-0.4-0.7-0.5-1.2
				c-0.6-1.8-0.4-3.5-0.2-5.2c0.2-0.3,0.3-0.7,0.1-0.8c0.2-1,0.4-2.1,0.5-3.2c0,0,0,0,0,0c1.5-0.8,3-1.3,4.5-1.6
				c-0.2,3.1-0.2,6.4,0,9.5c0,0.3,0.2,0.4,0.4,0.3c-0.2,0.6-0.3,1.2-0.5,1.8c-0.3,1,1.1,0.2,1.3-0.3c1.4-3.9,2.7-7.8,3.8-11.8
				c12.3,0.2,24.8,1.6,36.6,4.4c0.6,0.2,1.3-2.7,1-3.8c4.9-2.4,10-4.5,15-6.8c0.2-0.1,0.5-0.5,0.7-0.8c0,0.3,0,0.7,0,1
				c0,0.7-0.1,1.4-0.3,2.1c-5.1,1-10.3,3.7-14.9,6.2c-0.3,0.2-0.7,1.2-0.1,0.9c4.8-1.9,9.9-3.5,14.6-5.6c0,0,0.1-0.1,0.1-0.1
				c-0.2,1-0.5,2-0.7,3c-0.8,3-2.1,5.9-3.6,8.6c-3,0.7-5.9,2.1-8.7,3.2c-0.5,0.2-1,1.4-0.2,1.1c2.7-0.9,5.5-1.7,8.1-2.8
				c-0.2,0.4-0.5,0.8-0.7,1.2c-0.7,0.5-1.3,1-2,1.5c-0.1-0.1-0.2-0.2-0.5-0.1c-2.5,0.8-4.9,2.1-7.4,3.2c0.5-2.9,1-5.8,1.2-8.8
				c0,0,0,0,0.1,0c4.1-2,8.5-3.3,12.6-5.3c0.4-0.2,0.9-1.3,0.1-1.1c-4.4,1-8.7,3.5-12.7,5.5c0.1-0.9,0.1-1.9,0.1-2.8
				c0-1-1.6,0.2-1.6,1c-0.2,6.1-1.2,12.1-2.7,18c-1.2,5-2.5,16-8.5,17.3c-0.1-0.3-0.5-0.2-0.9,0.1c0,0,0,0,0,0
				c-0.4,0-1.1,0.9-0.9,1.2c-5.9,5.1-13.6,4.2-18.7-1.8c-0.2-0.2-0.6,0-0.9,0.3c-0.1-0.2-0.3-0.4-0.4-0.7c0.5,0.1,1.1,0.1,1.7,0
				c0.7,0,1.9-1.7,0.7-1.8c-8-0.5-9.3-8.9-9.9-15.3c-0.1-0.8-1.3,0.2-1.3,0.8c0.1,4.9,3.7,25.8,4.6,27.1c0.2,0.2,14.9,9.8,20.2,5.6
				c3.3-2.6,1.9-10.4,4-12.4c0,0.2,0,0.3,0,0.5c-0.4,0.4-0.6,1-0.1,1.2c0,0.6,0,1.2,0,1.8c-0.3,0.3-0.7,0.7-0.7,0.9
				c-0.8,5.7-0.4,11.5-4.4,16.1c-2.4,2.8-5.2,4.6-6.3,8.3c-0.3,1,1.2,0.2,1.4-0.3c1.7-4.4,6.6-6.7,8.7-11.1
				c1.6-3.3,2.3-7.4,2.4-11.2c0.4-0.3,0.8-0.8,0.9-1.1c0.1-0.8,0.1-1.6,0.1-2.4c3.6,2.6,4,7.2,4.4,11.7c0.4,4.5,0.6,9.1,0.1,13.6
				c-5.1-5.5-14.9-3.8-17.2,4c-0.2,0.8,0.9,0.3,1.1-0.1c3.6-6.6,11.8-7,15.6-0.4c0.5,0.9,1.8-0.5,1.9-1.1c1.2-6.5,0.8-13.1,0.1-19.6
				c0-0.1,0-0.1,0-0.2c5.6,4.1,11.4,7.9,17.2,11.8c5.5,3.7,11,6.8,13.6,13.2c3.6,8.8,2.2,19.1,6.6,27.6c-0.1,0.2-0.2,0.5-0.2,0.7
				c2.5,6.7,6.5,13.1,6.9,20.4c0.3,4.8-0.5,11.7,3.6,15.3C245.1,425.7,246.4,424.1,246.1,423.4z M158.7,338.6
				c3.2,5.1,6.5,10.3,10.5,14.9c-2.3-0.6-4.7-1.2-7-1.8c-1-0.3-3-0.5-3.8-1.1c-1.1-0.9-0.5-0.4-0.9-1.8c-0.5-1.5-0.9-2.3-2.1-3.4
				c-0.4-0.3-1,0.2-1.2,0.4c-2.6,2.6-4.6,5.6-6.1,8.9c-2.6-7.7-9.8-15.6-7.3-23.8c1.4-4.7,6.3-6.7,9.5-10.1c1.9-2,3.3-4.4,3.6-7.1
				c0.7-0.1,1.3-0.2,2-0.3c0,1.1,0,2.1-0.1,3.2c-0.2-0.1-0.5-0.2-0.7-0.2c-0.5-0.1-1.4,1-0.8,1.2c0.7,0.2,1.2,0.6,1.5,1.1
				c0,0.7,0,1.4,0,2.1c0,0.3,0.1,0.4,0.3,0.4c-0.3,2.5-2,5.7-1.9,7.5C154.3,332.3,156.8,335.6,158.7,338.6z M174.9,255
				c7.2-2.2,14.4-3.6,21.7-1.3c0.1,0,0.2,0,0.2,0c3.7,6.3,5.4,12.6,5.4,19.9c-0.5,0.1-0.9,0.2-1.4,0.3c0-0.1-0.1-0.2-0.3-0.1
				c-0.2,0.1-0.5,0.2-0.7,0.3c-0.5,0.1-1,0.2-1.5,0.3c0.4-0.5,0.7-1.2,0.1-1.3c-10.1-1.6-20.5-1.9-30.7-1.9c-3.3-1.4-6.6-2.8-9.9-4
				C158.8,259.3,168.4,257,174.9,255z M196.3,274.9c-1,0.2-2,0.3-2.9,0.5c-0.1-0.1-0.2-0.1-0.4-0.1c-0.2,0.1-0.4,0.1-0.7,0.2
				c-5.6,0.6-11.3,0.4-17.1-1.4c-0.7-0.2-1.3-0.4-2-0.7C180.9,273.8,188.6,274.4,196.3,274.9z M131,274c-0.2-1.2-0.5-2.5-0.6-3.8
				c2.5-1.3,4.9-2.6,7.3-4c0.4-0.2,0.6-1.2-0.1-0.8c-2.5,1.3-4.9,2.7-7.4,4.1c0-0.5-0.1-1-0.1-1.5c-0.1-4.1,3.9-3.4,6.9-3.1
				c0.9,0.1,4.4,0.8,8.3,1.7c-5.1,1.9-9.9,4.9-14.1,8.2c0,0-0.1,0.1-0.1,0.1C131.1,274.6,131,274.3,131,274z M131.3,275.5
				c0.1,0,0.2,0,0.3-0.1c4.9-3.6,10-6.1,15.6-8.4c0.6,0.1,1.1,0.3,1.7,0.4c-6,2.5-11.6,6-16.7,10c-0.1,0.1-0.2,0.2-0.2,0.2
				C131.6,276.9,131.4,276.2,131.3,275.5z M132,278.2c0.1,0,0.2,0,0.3-0.1c5.6-4.3,11.7-7.5,18.2-10.2c1.1,0.3,2.2,0.6,3.2,0.9
				c-7.2,2.9-13.8,7-20,11.8c-0.5,0.4-0.3,1.1,0.3,0.6c6.4-4.9,13.5-8.7,20.9-11.8c0.1,0,0.2-0.1,0.2-0.2c0.4,0.1,0.8,0.3,1.1,0.4
				c0.1,0.3,0.3,0.4,0.6,0.2c0.4,0.1,0.7,0.3,1.1,0.4c-7.9,3.3-15.6,7.9-22.4,12.9c-0.3,0.2-0.4,0.9,0.1,0.6
				c7.8-4.7,15.6-8.9,23.7-13c1.4,0.6,2.7,1.2,4.1,1.7c-9.3,3.6-18.3,8.9-26.6,14.2c-0.4,0.3-0.6,1.3,0.1,0.9
				c9-5.6,18.5-9.9,28-14.4c0.6,0.3,1.3,0.5,1.9,0.8c-10.3,4.4-20.1,9.9-29.2,16.5C135.2,286.6,133.3,282.4,132,278.2z M146,300
				c-1.3-0.7-2.5-1.5-3.7-2.4c0.2-0.3,0.4-0.7,0.1-1c-0.9-1-1.7-2-2.5-3c0,0,0,0,0,0c4.5-3.2,9.3-5.7,14-8.4
				c-0.3,0.8-0.6,1.8-0.7,2.8c-3.5,1.6-6.8,3.8-9.8,6.1c-0.4,0.3-0.3,1.1,0.3,0.6c3-2.2,6.1-3.9,9.4-5.6c-0.1,1.1-0.2,2.2-0.2,3.3
				c-3.1,1.3-6,3.2-8.8,5.1c-0.4,0.3-0.7,1.5,0.1,1c2.8-1.9,5.8-3.4,8.8-5.1c0.1,0.7,0.2,1.4,0.4,2.1
				C150.9,296.7,148.5,298.4,146,300C146.1,299.9,146.1,299.9,146,300z M155,297.9c-1.7,1-3.3,2.1-4.8,3.3c-0.1,0.1-0.2,0.2-0.2,0.3
				c-1.1-0.3-2.1-0.7-3.1-1.1c2.3-1.4,4.7-2.6,6.9-4.1C154.1,296.9,154.5,297.4,155,297.9z M161.3,288.6c0-2.1,0-4.2-0.1-6.3
				c0.7-0.1,1.5-0.1,2.2-0.2C162.6,284.3,161.9,286.4,161.3,288.6z M162.3,279.3c-3.2,0.8-5.9,2-7.7,3.9c-0.2,0.2-0.3,0.5-0.4,0.8
				c-5.2,2.4-9.9,5.6-14.5,8.9c-0.1,0-0.1,0.1-0.1,0.1c-0.5-0.7-1-1.4-1.5-2.1c9.4-6.1,19-11.4,29.2-16c0.2-0.1,0.4-0.3,0.5-0.6
				c1.1,0.4,2.1,0.8,3.2,1.2C168,276.2,165,277.6,162.3,279.3z M165.4,278.7c2.2-0.9,4.5-1.7,6.8-2.5c0.1,0,0.2-0.1,0.3-0.2
				c0.7,0.2,1.3,0.4,2,0.6c-1.3,0.5-2.7,1.1-4,1.7C168.8,278.4,167.1,278.5,165.4,278.7z M178.1,278.5c-1.7-0.1-3.4-0.2-5.1-0.2
				c1-0.4,1.9-0.7,2.9-1.2c0,0,0.1,0,0.1-0.1c0.3,0.1,0.7,0.2,1,0.3c0.8,0.2,1.7,0.4,2.5,0.5C179.1,278,178.6,278.2,178.1,278.5z
				 M184.7,279.1c-1.5-0.2-3.1-0.4-4.6-0.5c0.6-0.2,1.1-0.4,1.7-0.6c1.4,0.1,2.9,0.2,4.3,0.2C185.6,278.5,185.1,278.8,184.7,279.1z
				 M186.2,279.3c0.8-0.4,1.7-0.8,2.6-1.1c1.6-0.1,3.1-0.3,4.7-0.5c-1.2,0.7-2.5,1.4-3.7,2.1C188.6,279.6,187.4,279.5,186.2,279.3z
				 M190.7,280c1.8-0.9,3.7-1.9,5.5-2.8c1.9-0.4,3.7-0.8,5.6-1.3c-2.6,1.5-5.2,3.2-7.8,4.7C193,280.4,191.9,280.2,190.7,280z
				 M217.6,274.4c-5.6,2-11,4.9-16.2,7.8c-1.6-0.4-3.7-0.9-6.1-1.4c3.8-2.1,7.6-4.1,11.3-6.4c2.1-0.7,4.2-1.4,6.3-2.1
				c0.2,0,0.4-0.1,0.6-0.2c0.3-0.1,0.6-0.2,0.9-0.3c0.3-0.1,0.6-0.4,0.8-0.8c0.9,0.1,2,0.9,2.4,1.6c0.3,0.5,0.4,1.1,0.5,1.7
				C217.9,274.3,217.8,274.3,217.6,274.4z M206.4,297.9c-1.8,1.4-3.6,2.8-5.4,4.3c0.2-0.8,0.3-1.6,0.5-2.5
				C203.2,299,204.8,298.5,206.4,297.9z"/>
			<path d="M181.9,291.4c-2.4-3.1-7.8-3.8-11.4-3.1c-0.6,0.1-1.9,1.9-0.7,1.8c2-0.1,4,0,5.9,0.6c1.8,0.6,3.2,1.7,4.9,2.5
				C181.4,293.4,182.4,292,181.9,291.4z"/>
			<path d="M198.2,292.7c-1.7-2.2-5.8-1.5-7.5,0.2c-0.2,0.2-0.6,1.3,0.1,1.2c1-0.2,1.9-0.6,2.9-0.6c1.2,0,2.2,0.5,3.3,0.8
				C197.7,294.4,198.6,293.2,198.2,292.7z"/>
			<path d="M176.5,293.1c-0.1-0.1-0.2-0.1-0.3-0.1c0,0,0,0,0,0c-0.1-0.3-0.5-0.3-0.7-0.2c-0.3,0.1-0.5,0.3-0.7,0.5
				c-0.7,0.5-1.3,1.4-1.2,2.1c0,0.4,0.3,0.5,0.7,0.4c0.2,0,0.4-0.2,0.6-0.3c0.1,0.1,0.1,0.3,0.2,0.4c0.2,0.3,0.6,0.2,0.8,0
				c0.3-0.2,0.6-0.6,0.6-1c0-0.3,0-0.6-0.1-0.8C176.6,293.8,176.8,293.3,176.5,293.1z"/>
			<path d="M191.3,296.9c0-0.1-0.1-0.3-0.1-0.4c-0.1-0.1-0.2-0.2-0.2-0.3c-0.4-0.6-1.2,0.3-1.3,0.7c-0.1,0.6-0.3,1.4,0.1,1.9
				c0.2,0.2,0.7,0,0.9-0.1c0.3-0.2,0.6-0.6,0.7-1C191.5,297.5,191.5,297.2,191.3,296.9z"/>
			<path d="M188.9,294.9c0-1-1.5,0.2-1.6,0.7c-0.2,2.5-0.3,4.9-0.4,7.4c0,1,0.2,2.6-0.1,3.5c-1.1,4.4-4.2,2.8-6.7,2
				c-0.7-0.2-1.8,1.2-1,1.6c3,1.5,7,2.1,8.9-1.2c0.9-1.4,0.8-3.2,0.8-4.8C189,301.1,189.1,298,188.9,294.9z"/>
			<path d="M186.3,314.3c-5.4,0-9.4-1.3-13.8-4c0.4-0.2,0.8-0.4,1.2-0.7c0,0-0.1,0-0.1,0c-0.4-0.2-0.8-0.6-0.9-1.1
				c-0.5,0.2-1.1,0.3-1.7,0.3c-0.6,0-1.4,0.9-1.3,1.5c0.2,1,0.3,1.9,0.5,2.9c0.3,0,0.7,0.1,1,0.4c0.3,0.3,0.5,0.5,0.8,0.7
				c-0.1-0.6-0.1-1.3-0.2-1.9c3.8,3,9,4.3,13.7,3.7C186.2,316,187.5,314.2,186.3,314.3z"/>
			<path d="M138.4,328.8c-4,1.7-12.4,4.4-20.2,6.7c-7.3,1.2-13.4,5.7-17,11.8c-0.8,0.5-1.5,1-2.2,1.6c-0.8,2.6-1.5,5.2-2.2,7.7
				c-1.7,5.7-3.2,11.4-4.6,17.2c-2.3,10.1-4.3,20.3-5.2,30.6c-0.3,0.2-0.5,0.5-0.5,0.7c-0.5,4-1.1,8.3-0.9,12.4
				c-0.1,3.3-0.1,6.6,0.1,9.9c0,0.1-0.1,0.2-0.1,0.3c-0.1,0.7,0,1.3,0.1,2c0,0,0,0,0,0.1c0,0,0,0,0,0.1c0,0.2-0.1,0.5,0.2,0.6
				c0.7,0.1,1.3-0.3,1.7-0.9c0.1-0.1,0.2-0.3,0.3-0.5c0.1,0,0.1,0,0.2,0.1c0-0.1,0-0.3,0-0.4c0.1-0.3,0.1-0.6-0.1-0.8
				c-0.1-0.8-0.2-1.6-0.2-2.4c0.9,1.7,2.1,3.3,3.5,4.5c0.1,0,0.2,0,0.3,0.1c0,0,0,0,0,0c0.5,0.6,1.1,1.2,1.8,1.3
				c0.7,0.1,1.4-0.8,1.2-1.4c-0.1-0.2-0.2-0.4-0.3-0.6c0.1,0,0.2,0,0.2-0.1c-5.1-3.1-6.8-9.5-7-15.9c0-0.9,0.1-1.8,0.2-2.8
				c0.3,7.3,4.9,14.5,11.4,17.6c0,0,0,0,0.1,0c1,1,2.5,1.8,3.8,1.2c0.6-0.2,1.9-1.7,0.9-2.2c-0.4-0.2-0.8-0.2-1.3-0.2
				c-8.9-4.2-13.5-12.1-12.9-22c1.6-10.8,3.2-21.6,5.6-32.2c1.2-5.5,2.7-11.1,4.2-16.5c0.5-1.8,1.2-3.6,1.8-5.5
				c3.2-6.4,9.3-11,16.4-12.4c0.3-0.1,0.7-0.4,1-0.7c7.7-2.4,16-5.3,19.7-7.4C138.8,329.9,139.4,328.4,138.4,328.8z"/>
			<path d="M181.6,409.9c-0.8-3-2.4-5.5-2.6-8.7c-0.2-3.2,0.6-6.3,1.2-9.4c2.3-11.6-0.3-22.5-3.5-33.6c-0.2-0.7-1.6,0.5-1.4,1.2
				c1.8,6.8,3.6,13.6,3.9,20.6c0.4,6.7-1.6,12.7-2.3,19.2c-0.2,2.4-0.2,4.8,0.5,7.1c1.1,3.5,3.4,6.3,1.4,10.1
				c-1,1.8-3.3,5.3-0.9,6.8c0.2,0,0.5,0,0.7,0c0,0.1-0.1,0.2-0.1,0.2c-0.3,0.4-0.7,0.5-1,0.8c-0.3,0.2-1.2,1.6-0.3,1.8
				c1.1,0.2,2.2-1,2.7-1.9c0.3-0.4,0.5-0.9,0.6-1.4c0.3-0.5,0.4-1-0.1-1.2c0,0,0-0.1,0-0.1c-0.1-0.3-0.3-0.3-0.6-0.2
				c-2.3-1.3,1.3-4.7,1.9-6.2C182.2,413.3,182,411.6,181.6,409.9z"/>
			<path d="M222.6,417.3c0.5-1.2-1-0.6-1.4,0.1c-1.2,2.4-2.5,4.7-3.6,7.1c-0.2-0.6-0.3-1.3-0.5-1.9c0.2-0.1,0.4-0.3,0.5-0.5
				c1.6-2.7,2.8-5.5,4.2-8.3c0.5-1-0.9-0.7-1.2-0.1c-1.3,2.4-2.7,4.7-3.9,7.2c-0.2-0.6-0.3-1.2-0.5-1.9c0.2-0.1,0.3-0.3,0.4-0.4
				c1.8-2.7,3.1-6,4.3-9c0.3-0.8-0.6-0.5-0.9-0.1c-1.4,2.4-3.1,5-4.2,7.6c-0.1-0.4-0.1-0.8-0.2-1.1c0.4-0.2,0.9-0.6,1-0.9
				c1-2.6,1.7-5.7,2-8.5c0.1-1-1.1-0.2-1.3,0.3c-0.8,2.1-1.5,4.5-2,6.8c-0.1,0-0.3,0-0.4,0.1c1-3.1,2.1-6.2,2.9-9.4
				c2.6-10.2,2.7-20.6,3-31c0-1-1.5,0.2-1.6,0.9c-0.4,11.1-1.3,22.4-4.4,33.1c-3.8,5.9-7.7,11.8-11.3,17.8c0.1,0,0.2,0,0.3,0
				c-0.2,0.6-0.4,1.4,0.2,1.8c0.7,0.5,1.6-0.7,1.5-1.3c0-0.2-0.1-0.4-0.1-0.6c0-0.2,0-0.2,0-0.3c0.1-0.2,0.1-0.4,0.1-0.6
				c2.8-4.3,5.5-8.7,8.1-13.1c-1.2,3.8-2.4,7.9-3,11.9c-0.4,1.8-0.6,3.7-0.4,5.5c0.2,2,2.9-0.4,3.1-1.4c0.3-2.2,0.4-4.5,0.6-6.7
				c0.2,2.7,0.8,5.4,2.4,7.5c-0.3,1,1.1,0.6,1.5,0c0-0.1,0.1-0.1,0.1-0.2c0.2-0.2,0.3-0.4,0.3-0.6
				C219.9,424,221.2,420.5,222.6,417.3z"/>
			<path d="M149.6,417.5c-5.7-4.7-11.1-9.6-16.3-14.8c0.2-0.5,0.4-1,0.6-1.6c0.4-1.1-1-0.6-1.2,0.1c-0.1,0.2-0.2,0.4-0.2,0.6
				c-0.6-0.6-1.2-1.2-1.8-1.9c0.2-0.5,0.3-1.1,0.5-1.6c0.3-1-1-0.6-1.2,0.1c-0.1,0.2-0.1,0.4-0.2,0.6c-0.4-0.4-0.8-0.9-1.3-1.3
				c0-0.1-0.1-0.2-0.1-0.3c0.8-2.4,1.5-4.7,2.3-7c0.4-1.3-1.1-0.7-1.4,0.1c-0.5,1.4-1.1,2.9-1.7,4.3c-0.3-0.1-0.8,0.3-1.1,0.8
				c-0.6-0.3-1.8,1.1-1.2,1.6c0.3,0.3,0.6,0.7,0.9,1c-0.8,1.9-1.5,3.9-2.1,5.8c-0.3-0.8-0.7-1.5-1-2.3c0.1-0.1,0.2-0.3,0.2-0.4
				c1.3-4.7,2.2-9.6,3.2-14.3c0.2-0.9-1.1-0.1-1.2,0.4c-1,4.1-2,8.2-2.9,12.4c-0.1-0.4-0.3-0.8-0.4-1.2c1.4-4.1,2.6-8.3,3.4-12.6
				c0.2-1.1-1.3-0.1-1.5,0.5c-2.1,8.7-5.9,16.8-8.5,25.4c-0.5,1.8-1,3.6-1.4,5.4c-0.3,0.2-0.6,0.6-0.5,0.9c0,0.3,0.1,0.7,0.1,1
				c0,0.1,0,0.1,0,0.2c0.1,1.6,0.1,3.2,0.1,4.8c-0.2,0.3-0.2,0.7-0.1,1c0.2,0.9,0.3,2,0.7,2.8c0,0,0,0,0,0c0.2,0.4,0.6,0.3,1,0.1
				c0.5-0.3,1-0.9,1-1.5c0-1-0.4-2-0.5-2.9c0-0.1-0.1-0.2-0.1-0.3c-0.1-0.4-0.1-0.8-0.2-1.1c0.7-3.7,1.5-7.5,2.6-11.1
				c0.9-3.2,2-6.4,3.1-9.6c1.6,5.5,4.1,10.5,6.3,15.9c0.9,2.1,1.5,4.2,2,6.3c-0.1,0.3-0.2,0.7,0,1c0.5,1,0.7,2,1,3
				c0.2,0.7,1.2,0.2,1.5,0c0.6-0.4,1-1.1,1.1-1.9c0-0.3,0-0.6,0-1c0.1,0,0.3,0,0.4,0c0.9-2.2,1.6-4.5,2.3-6.7
				c0.4,0.6,0.8,1.3,1.3,1.9c-0.6,1.6-1.3,3.2-1.9,4.8c0.1,0,0.2,0,0.3,0c-0.2,0.4-0.3,0.8-0.5,1.2c-0.1,0.3-0.1,0.7,0.3,0.7
				c0.4,0,0.8-0.5,1-0.8c0.6-1.3,1.2-2.6,1.8-3.9c0.1-0.2,0.1-0.3,0.1-0.5c0.4,0.5,0.7,1,1.1,1.5c1,1.6,2.2,3.1,3.6,4.3
				c0.6,0.6,1.9-0.9,1.4-1.6c-0.4-0.5-0.8-0.9-1.1-1.4c0,0,0.1,0,0.1,0c-2.4-2.8-4.6-5.8-6.6-8.9c0.1-0.2,0.1-0.4,0.2-0.6
				c0.2-0.6-0.3-0.6-0.7-0.3c-0.7-1.1-1.3-2.2-1.9-3.4c0.3-1.3,0.6-2.5,1-3.8c4.3,4.1,8.7,8.1,13.3,11.8
				C148.9,419.6,150.2,418.1,149.6,417.5z M132.5,404.9c0.5,0.5,0.9,0.9,1.4,1.4c-0.1,0.1-0.1,0.2-0.1,0.2c-0.3,0.9-0.5,1.8-0.8,2.7
				c-0.4-0.8-0.8-1.6-1.1-2.4C132.1,406.2,132.3,405.5,132.5,404.9z M131.5,403.9c-0.2,0.4-0.3,0.8-0.5,1.2
				c-0.4-0.9-0.8-1.8-1.1-2.8C130.5,402.9,131,403.4,131.5,403.9z M124.9,406c0.1-0.1,0.2-0.2,0.2-0.3c0.8-1.8,1.6-3.6,2.2-5.5
				c0.3,0.9,0.6,1.7,0.9,2.6c-0.7,1.9-1.5,3.8-2,5.7C125.7,407.7,125.3,406.9,124.9,406z M128.1,412.6c-0.3-0.7-0.7-1.4-1-2.1
				c0.8-1.7,1.4-3.5,1.9-5.4c0.3,0.8,0.7,1.7,1,2.5c-0.6,1.6-1.3,3.2-1.9,4.8C128.2,412.4,128.2,412.5,128.1,412.6z M130.5,417.9
				c-0.1-0.2-0.2-0.5-0.3-0.7c-0.5-1.4-1.1-2.7-1.8-4c0.4,0.1,1.2-0.4,1.5-1c0.3-0.9,0.7-1.9,1-2.8c0.4,0.8,0.8,1.7,1.2,2.5
				C131.5,413.9,130.9,415.9,130.5,417.9z M134.7,416.5c-0.8,2-1.6,4.1-2.3,6.2c-0.1-0.2-0.1-0.3-0.2-0.5c-0.1-0.2-0.2-0.3-0.4-0.4
				c-0.3-1.1-0.6-2.1-1-3.1c0.5,0,1.2-0.6,1.3-1c0.4-1.2,0.8-2.5,1.1-3.8C133.7,414.8,134.2,415.7,134.7,416.5z"/>
			<path d="M114.5,340.8c-0.4-0.6-1.5,0.5-1.2,1c4.8,8.9,7.4,18.4,8,28.4c0.1,0.9,1.4-0.2,1.4-0.8
				C122.6,359.2,119.7,349.4,114.5,340.8z"/>
			<path d="M220.3,356.4c-0.1-0.9-1.4,0.2-1.4,0.8c0.1,4,0.2,8,0.4,11.9c0.1,1.2,1.9-0.2,1.9-1.1
				C221.1,364.2,220.7,360.3,220.3,356.4z"/>
			<path d="M221.2,423.2c-0.7,1.1-1.3,2.2-2,3.3c-0.6,0.9-1.3,1.9-1.6,2.9c-0.3,0.9,0.9,0.4,1.2,0.1c0.8-0.8,1.3-1.9,1.8-2.9
				c0.6-1,1.2-2.1,1.8-3.1C222.9,422.4,221.7,422.4,221.2,423.2z"/>
			<path d="M222.2,426.4c-1,1.3-2,2.5-2.8,3.9c-0.2,0.3-0.4,1,0.1,1.2c0.5,0.2,1.1-0.4,1.3-0.8c0.9-1.2,1.6-2.5,2.4-3.8
				C223.7,426,222.7,425.7,222.2,426.4z"/>
		</g>
		<path d="M215.1,271.9c-5.5,2.1-10.6,5.4-15.5,8.6c-0.4,0.3-0.6,1.3,0.1,0.8c5-3.2,10.2-5.6,15.3-8.4
			C215.4,272.8,215.9,271.6,215.1,271.9z"/>
		<path d="M214.7,287.2c-3.9,0.8-7.8,3.1-11.2,5c-0.4,0.2-0.6,1.1,0,0.8c3.6-1.8,7.4-3,10.9-4.7C214.7,288.2,215.4,287,214.7,287.2z
			"/>
		<g>
			<path d="M116.9,274.1c-0.8,0.3-1.5,0.5-2.5,0.5c-1.7-0.1-3.2-0.8-4.1-2.2c-0.5-0.7-1.7,0.6-1.4,1.2c1.8,3.8,7.5,4.7,10,1.1
				c0.2-0.2,0.2-0.6,0.2-0.9C118.4,274.1,117.6,274.3,116.9,274.1z"/>
			<path d="M126.4,257.9c-1.9-0.6-4.2-0.4-6.1-0.4c-0.6,0-1.9,1.6-0.9,1.8c0.3,0.1,0.6,0.1,0.8,0.2c-1.2,2.4-2,5-2.5,7.7
				c-0.5,0.3-0.9,1.1-0.5,1.5c0.6,0.7,1,1.4,1.3,2.3c0.3,0.8,0.3,1.6,0.6,2.3c0.3,0.8,1.5-0.5,1.5-0.9c0.3-1.5-0.4-3.1-1.3-4.3
				c0.3-1.5,0.7-2.9,1.2-4.4c0.2,0,0.4,0,0.6,0c0.5-0.1,0.9-0.4,1.1-0.9c0.1-0.3,0.3-0.9-0.2-1c-0.3-0.1-0.6-0.1-0.9,0
				c0.2-0.6,0.5-1.3,0.7-1.9c1.2,0.2,2.3,0.3,3.4,0.2C126,259.9,127.5,258.2,126.4,257.9z"/>
			<path d="M86.6,252.5c0.3-1.2,0.4-1.6,1.5-2.4c1-0.7,2.8-1.2,3.2,0.9c0.2,0.9,1.5-0.2,1.4-0.8c-0.1-2-2.1-3-4-2.5
				c-2.3,0.6-3.6,3.1-4.1,5.2c-0.8,2.8-1.5,6.7,0,9.4c1.3,2.3,3.8,3.2,6.2,2c0.5-0.2,1.5-2,0.4-1.8c-3.7,0.5-5.3-2.8-5.1-6
				C86.1,255.2,86.3,253.8,86.6,252.5z"/>
			<path d="M100.4,277.4c3.3,2,6.6,3.9,9.9,5.8c0.6,0.4,1.8-1,1.2-1.4c-4.2-2.8-8.3-5.6-12.6-8.2c-0.4-0.2-0.7-0.1-1.1,0.1
				C98.6,275,97.2,276,100.4,277.4z"/>
			<path d="M112.9,282.2c-0.6-0.7-1.7,0.9-1.6,1.5c0.5,1.8-1.6,3.1-3.3,2.7c-0.8-0.2-1.5-0.5-2.3-0.9c-3.8-1.8-6.8-6.1-6.7-6.4
				c-0.7-0.8-1.4-1.7-2-2.6c0.4,5.1,3.7,10.1,8.8,11.7c2.3,0.7,4.8,0.5,6.4-1.4C113.5,285.7,114.2,283.7,112.9,282.2z"/>
			<path d="M111.7,255c-2.7-2.2-6.3-3.4-9.7-3.7c-0.7-0.1-2,1.5-1.1,1.7c3.4,0.7,6.2,2.1,9.3,3.7C110.9,257.2,112.4,255.6,111.7,255
				z"/>
			<path d="M106,256.4c-0.1-0.6-0.5-0.8-1-0.7c-0.6,0.2-1.1,0.7-1.3,1.3c-0.2,0.4-0.2,1,0.2,1.3c0.3,0.2,0.7,0.1,1-0.2
				c0.2,0,0.3-0.1,0.4-0.2C105.7,257.5,106,257,106,256.4z"/>
			<path d="M128,255.3c-0.8-3.3-1.1-6.5-0.9-9.8c0-0.4-0.2-0.5-0.6-0.3c-0.1-0.8-0.2-1.5-0.4-2.3c0.3-0.3,0.5-0.8,0.3-1.1
				c-4.8-10.7-15.8-17.8-27.7-17.1c-0.3,0-0.6,0.2-0.9,0.6c0.3-0.6,0.3-1.1-0.2-1.1c-7.3-0.8-13.4,4.3-16.2,10.6
				c-3.5,8.3-1.5,17.2-1.7,25.8c-0.2,0.2-0.4,0.3-0.4,0.5c-1.3,4.2-3,8.5-4.1,12.8c-4,2.5-8,4.6-12.2,6.7c-0.1,0-0.3,0-0.5,0
				c-14.4,4.3-28.2,10.6-41.1,18.1c0.3-1.1-1.2-0.5-1.5,0.2c-0.1,0.3-0.2,0.5-0.3,0.8c-0.2,0.1-0.5,0.3-0.7,0.4
				c-0.6,0.4-0.9,1.8,0.1,1.2c0,0,0,0,0,0c-3,8-5.5,16.1-7.5,24.4c-1.2,4.6-2.2,9.2-3.1,13.8c-0.8,3.8-1.9,8-2,11.9
				c0-0.1-0.1-0.2-0.1-0.3c-0.3-0.9-1.8,0.6-1.6,1.3c0.5,1.8,1.3,3.6,2.2,5.2c-0.8,5-2,9.8-3.1,14.7c0,0-0.1,0.1-0.1,0.1
				c-0.6,1.2-1.1,2.4-1.4,3.6c0.6,0,1.1,0,1.6,0.1c0.1-0.5,0.2-1,0.4-1.5c0.5-0.2,1-0.6,1.1-1c1.5-4.5,2.4-9.3,2.8-14
				c0.9,1.2,1.9,2.4,2.9,3.4c0,0,0,0,0,0.1c0.6,0.3,1.1,0.7,1.6,1.2c0.3,0.3,0.6,0.6,0.8,0.9c0,0,0-0.1,0-0.1c5.3,4,12,6,18.7,5.1
				c0.9-0.1,2.3-2.4,0.9-2.3C22,368.9,12,363,7.1,353.3c0.4-0.2,0.9-0.7,1-0.9c1.3-3.9,1.7-8.1,2.5-12.1c0.9-4.6,1.9-9.3,3-13.8
				c2.1-8.8,4.6-17.4,7.3-26c12.6-7,25.9-12.5,39.5-17.1c0,0.3,0.3,0.5,0.9,0.3c1-0.3,2.1-0.7,3.1-1.2c-6.2,13.1,5.8,24.8,17.2,30.2
				c5.5,2.6,13.1,6.4,18.4,1.5c4-3.7,4.2-9.3,2.9-14.3c0.1-0.1,0.2-0.2,0.2-0.4c0.3-0.8,0.6-1.9,0.7-2.9c2,1.1,4.1,2.1,6.2,3
				c0.4,0.2,0.9-0.1,1.2-0.5c5.6-0.6,7.7-7.1,9.4-11.6c2.8-7.3,5.9-15.3,5.5-23.2c-0.1-1.2-1.8,0.2-1.8,0.8
				c-0.7,5.6-1.6,10.8-3.4,16.2c-1.6,4.8-3.8,14.6-9.7,16c-5.7-2.4-10.9-5.8-15.4-10c-4.8-6.4-8.3-13.2-4.6-22
				c0.5-1.2-1-0.8-1.5-0.1c-2.2,3.7-3.5,7.7-3.7,11.9c-0.5,0.4-0.8,1-0.8,1.4c0.3,1.5,0.7,3,1.2,4.4c0.7,3.3,2,6.5,3.5,9.2
				c2.2,4.1,6,10,10.9,11.2c0.2,0.8,0.3,1.7,0.3,2.5c0.2,5-3.4,8.8-8.7,7.8c-5.1-1-10.6-3.9-15-6.6c-8.5-5.3-15.8-15.4-11.3-25.5
				c2.9-1.5,5.7-3.3,8.2-5.3c0,0.1-0.1,0.2-0.1,0.3c-0.3,1.4,1.6,0.3,1.9-0.4c1.5-4,2.5-8.3,3.6-12.4c0.4-0.1,0.9-0.6,0.9-1
				c1.1-11.2-3.2-37.1,15.3-36c0.3,0,0.8-0.3,1.1-0.7c-0.2,0.5-0.2,0.9,0.5,0.9c10.8,0,20.9,5.5,26.1,14.8c0.9,2.3,1.1,4.7,0.9,7.1
				c0,0.3,0.1,0.5,0.2,0.5c0,2.4,0.5,4.8,1.6,7C127,257.1,128.1,255.9,128,255.3z"/>
			<path d="M129.1,302.7c3.3,2.5,8.6,5.5,8.5,9.9c-0.1,4.1-0.3,8.5,0.1,12.8c0.4-0.1,0.9-0.2,1.3-0.3c0.3-0.1,0.7-0.2,1-0.3
				c-0.1-0.8-0.2-1.6-0.3-2.5c-0.2-2.4-0.3-4.8-0.2-7.2c0.1-1.4,1.1-5.1,0.5-6.7c-0.4-1.2-3-2.9-4-3.7c-1.7-1.4-3.4-2.8-5.2-4
				c-3.7-2.6-7.5-4.8-11.7-6.6c-0.5-0.2-1.6,1.1-1,1.4C121.9,297.7,125.6,300,129.1,302.7z"/>
			<path d="M42.7,321.2c-1.9-5.5-4.5-12.6-11.6-12c-0.7,0.1-1.8,1.8-0.7,1.7c7.2-0.5,9.6,9.5,11.1,14.7c1.8,6.3,2.6,12.6,3.2,19.1
				c0.1,1.3,2-0.3,2-1.2C46.6,335.9,45.2,328.3,42.7,321.2z"/>
			<path d="M82.1,426.4C82.1,426.4,82.1,426.4,82.1,426.4c0-0.3-0.1-0.5-0.3-0.6c-0.2-0.2-0.5-0.4-0.8-0.4c-0.2,0-0.4,0.1-0.6,0.2
				c-14.1,1.1-28.2-2.3-39-12c-0.2-1.4-0.3-2.7-0.5-4.1c-1.1-8-3.8-15.3-7.3-22.4c0.6,0.2,1.9-0.9,1.9-1.5
				c0.5-6.6,1.3-12.6,3.8-18.8c0.1-0.2,0.1-0.3,0-0.4c0.5-0.4,1-0.7,1.6-1c0,0,0,0,0.1,0c0,0,0-0.1,0-0.1c0,0,0.1-0.1,0.1-0.1
				c0.3-0.3,0.8-0.9,0.6-1.4c-0.2-0.4-0.6-0.5-1-0.2c-2.3,1.6-4.7,3.2-6.6,5.3c-0.4,0.4-0.4,1.2,0.4,0.9c0.4-0.2,0.8-0.3,1.3-0.6
				c0.6-0.4,1.2-0.9,1.8-1.3c0,0,0.1-0.1,0.1-0.1c-2.9,5.8-4.9,12.3-4.4,18.8c-0.4-0.8-0.8-1.5-1.2-2.3c-0.4-0.8-1.9,0.6-1.6,1.3
				c4.8,9.2,7.1,19.6,8.2,29.8c0.4,4,0.8,8.3,2,12.3c-0.1,0.2-0.2,0.5,0,0.6c0.2,0.2,0.3,0.4,0.5,0.6c0.2,0.6,0.4,1.2,0.7,1.8
				c0.1,0,0.3,0,0.4,0c0,0,0.1,0.1,0.1,0.1c0.3,0.1,0.6,0.4,0.9,0.6c0.4,0.2,0.7,0.3,1.2,0.3c0.4,0,0.8-0.4,1.1-0.8
				c0,0,0.1-0.1,0.1-0.1c0,0,0.1,0,0.1,0c0,0-0.1-0.1-0.1-0.1c0.1-0.3,0.2-0.6-0.1-0.8c-0.2-0.1-0.3-0.2-0.5-0.2
				c-1.8-4.2-2.6-8.7-3.2-13.3c10.4,8.9,24.6,14,38.3,11.9c0,0.1,0,0.1,0,0.2c0.1,0.9,1.1,0.3,1.4-0.1
				C81.9,427.9,82.2,427.1,82.1,426.4z"/>
			<path d="M43.9,364.5c0.9-5.7,1.3-11.5,1.7-17.2c0.1-0.9-1.5,0.2-1.6,0.7c-0.9,5.6-1.8,11.3-2.3,16.9
				C42.5,364.6,43.2,364.5,43.9,364.5z"/>
			<path d="M81.2,368.3c-10.5,0.5-20.7-3.1-28.2-10.5c-0.6-0.6-2,1-1.4,1.6c7.4,7.8,17.9,12,28.8,10.8
				C81.2,370.1,82.3,368.2,81.2,368.3z"/>
			<path d="M74,365.5c-9-2.7-17.1-7.3-23.7-13.9c-0.6-0.6-2,1-1.4,1.6c6.7,6.7,14.7,11.6,23.8,14.3C73.6,367.7,75,365.8,74,365.5z"
				/>
			<path d="M29,430.1c-0.2-0.2-0.5-0.3-0.7-0.3C17.1,413.2,3.2,398,1.9,377.3c-0.1-1-1.6,0.2-1.6,0.9c0.4,20,13,35.7,24.4,51.6
				c-0.4,0.1-0.9,0.8-1,1.1c0,0.1,0,0.1,0,0.2c0.4,0,0.9-0.1,1.3-0.1c-0.1,0.3-0.1,0.6,0.3,0.8c0.4,0.2,0.9,0.2,1.3,0.3
				c0.5,0.1,1,0.1,1.5-0.1C28.6,431.8,29.6,430.8,29,430.1z"/>
			<path d="M127.3,328.5c1.3-2.8,2.3-5.7,2.9-8.7c0.2-1-1.2-0.2-1.4,0.3c-1.1,3.4-2.5,6.5-4.1,9.5
				C125.5,329.3,126.4,328.9,127.3,328.5z"/>
		</g>
	</g>
</g>
</svg>
